%TF.GenerationSoftware,KiCad,Pcbnew,9.0.7*%
%TF.CreationDate,2026-04-13T14:11:10+02:00*%
%TF.ProjectId,hell,68656c6c-2e6b-4696-9361-645f70636258,rev?*%
%TF.SameCoordinates,Original*%
%TF.FileFunction,Soldermask,Top*%
%TF.FilePolarity,Negative*%
%FSLAX46Y46*%
G04 Gerber Fmt 4.6, Leading zero omitted, Abs format (unit mm)*
G04 Created by KiCad (PCBNEW 9.0.7) date 2026-04-13 14:11:10*
%MOMM*%
%LPD*%
G01*
G04 APERTURE LIST*
G04 Aperture macros list*
%AMRoundRect*
0 Rectangle with rounded corners*
0 $1 Rounding radius*
0 $2 $3 $4 $5 $6 $7 $8 $9 X,Y pos of 4 corners*
0 Add a 4 corners polygon primitive as box body*
4,1,4,$2,$3,$4,$5,$6,$7,$8,$9,$2,$3,0*
0 Add four circle primitives for the rounded corners*
1,1,$1+$1,$2,$3*
1,1,$1+$1,$4,$5*
1,1,$1+$1,$6,$7*
1,1,$1+$1,$8,$9*
0 Add four rect primitives between the rounded corners*
20,1,$1+$1,$2,$3,$4,$5,0*
20,1,$1+$1,$4,$5,$6,$7,0*
20,1,$1+$1,$6,$7,$8,$9,0*
20,1,$1+$1,$8,$9,$2,$3,0*%
G04 Aperture macros list end*
%ADD10RoundRect,0.102000X1.400000X0.500000X-1.400000X0.500000X-1.400000X-0.500000X1.400000X-0.500000X0*%
%ADD11C,1.600000*%
%ADD12C,3.400000*%
%ADD13C,2.900000*%
%ADD14RoundRect,0.200000X0.275000X-0.200000X0.275000X0.200000X-0.275000X0.200000X-0.275000X-0.200000X0*%
%ADD15RoundRect,0.140000X-0.140000X-0.170000X0.140000X-0.170000X0.140000X0.170000X-0.140000X0.170000X0*%
%ADD16RoundRect,0.200000X-0.275000X0.200000X-0.275000X-0.200000X0.275000X-0.200000X0.275000X0.200000X0*%
%ADD17RoundRect,0.100500X0.986500X0.301500X-0.986500X0.301500X-0.986500X-0.301500X0.986500X-0.301500X0*%
%ADD18RoundRect,0.250000X-1.075000X0.375000X-1.075000X-0.375000X1.075000X-0.375000X1.075000X0.375000X0*%
%ADD19RoundRect,0.102000X-0.675000X-0.475000X0.675000X-0.475000X0.675000X0.475000X-0.675000X0.475000X0*%
%ADD20RoundRect,0.102000X-0.675000X-1.625000X0.675000X-1.625000X0.675000X1.625000X-0.675000X1.625000X0*%
%ADD21RoundRect,0.225000X0.250000X-0.225000X0.250000X0.225000X-0.250000X0.225000X-0.250000X-0.225000X0*%
%ADD22C,5.600000*%
%ADD23RoundRect,0.225000X-0.225000X-0.250000X0.225000X-0.250000X0.225000X0.250000X-0.225000X0.250000X0*%
%ADD24RoundRect,0.200000X-0.200000X-0.275000X0.200000X-0.275000X0.200000X0.275000X-0.200000X0.275000X0*%
%ADD25RoundRect,0.225000X0.225000X0.250000X-0.225000X0.250000X-0.225000X-0.250000X0.225000X-0.250000X0*%
%ADD26RoundRect,0.140000X-0.170000X0.140000X-0.170000X-0.140000X0.170000X-0.140000X0.170000X0.140000X0*%
%ADD27RoundRect,0.150000X0.150000X-0.825000X0.150000X0.825000X-0.150000X0.825000X-0.150000X-0.825000X0*%
%ADD28RoundRect,0.075000X0.075000X-0.662500X0.075000X0.662500X-0.075000X0.662500X-0.075000X-0.662500X0*%
%ADD29RoundRect,0.075000X0.662500X-0.075000X0.662500X0.075000X-0.662500X0.075000X-0.662500X-0.075000X0*%
%ADD30C,2.000000*%
%ADD31RoundRect,0.250000X0.250000X0.475000X-0.250000X0.475000X-0.250000X-0.475000X0.250000X-0.475000X0*%
%ADD32RoundRect,0.218750X0.218750X0.256250X-0.218750X0.256250X-0.218750X-0.256250X0.218750X-0.256250X0*%
%ADD33RoundRect,0.760000X-1.140000X-1.140000X1.140000X-1.140000X1.140000X1.140000X-1.140000X1.140000X0*%
%ADD34C,3.800000*%
%ADD35R,1.700000X1.700000*%
%ADD36C,1.700000*%
%ADD37RoundRect,0.140000X0.140000X0.170000X-0.140000X0.170000X-0.140000X-0.170000X0.140000X-0.170000X0*%
%ADD38RoundRect,0.140000X0.170000X-0.140000X0.170000X0.140000X-0.170000X0.140000X-0.170000X-0.140000X0*%
%ADD39R,0.740000X2.400000*%
%ADD40C,1.712000*%
%ADD41RoundRect,0.250000X-0.325000X-0.650000X0.325000X-0.650000X0.325000X0.650000X-0.325000X0.650000X0*%
G04 APERTURE END LIST*
D10*
%TO.C,D1602*%
X145200000Y-89500000D03*
X140800000Y-89500000D03*
X145200000Y-88000000D03*
X140800000Y-88000000D03*
X145200000Y-86500000D03*
X140800000Y-86500000D03*
%TD*%
%TO.C,D1501*%
X137200000Y-83500000D03*
X132800000Y-83500000D03*
X137200000Y-82000000D03*
X132800000Y-82000000D03*
X137200000Y-80500000D03*
X132800000Y-80500000D03*
%TD*%
%TO.C,D605*%
X169200000Y-41500000D03*
X164800000Y-41500000D03*
X169200000Y-40000000D03*
X164800000Y-40000000D03*
X169200000Y-38500000D03*
X164800000Y-38500000D03*
%TD*%
D11*
%TO.C,J102*%
X95110000Y-53000000D03*
X90030000Y-60620000D03*
D12*
X104000000Y-53000000D03*
X104000000Y-60620000D03*
D13*
X104000000Y-56810000D03*
X98920000Y-56810000D03*
%TD*%
D11*
%TO.C,J101*%
X95100000Y-79380000D03*
X90020000Y-87000000D03*
D12*
X98910000Y-87000000D03*
X99545000Y-79380000D03*
D13*
X103360000Y-83190000D03*
%TD*%
D10*
%TO.C,D1303*%
X153200000Y-113500000D03*
X148800000Y-113500000D03*
X153200000Y-112000000D03*
X148800000Y-112000000D03*
X153200000Y-110500000D03*
X148800000Y-110500000D03*
%TD*%
D14*
%TO.C,R106*%
X93300000Y-99525000D03*
X93300000Y-97875000D03*
%TD*%
D15*
%TO.C,C109*%
X113940000Y-103005000D03*
X114900000Y-103005000D03*
%TD*%
D10*
%TO.C,D905*%
X169200000Y-59500000D03*
X164800000Y-59500000D03*
X169200000Y-58000000D03*
X164800000Y-58000000D03*
X169200000Y-56500000D03*
X164800000Y-56500000D03*
%TD*%
%TO.C,D1404*%
X161200000Y-119500000D03*
X156800000Y-119500000D03*
X161200000Y-118000000D03*
X156800000Y-118000000D03*
X161200000Y-116500000D03*
X156800000Y-116500000D03*
%TD*%
D16*
%TO.C,R1101*%
X117000000Y-86075000D03*
X117000000Y-87725000D03*
%TD*%
D17*
%TO.C,U1102*%
X124970000Y-109205000D03*
X124970000Y-107935000D03*
X124970000Y-106665000D03*
X124970000Y-105395000D03*
X120030000Y-105395000D03*
X120030000Y-106665000D03*
X120030000Y-107935000D03*
X120030000Y-109205000D03*
%TD*%
D18*
%TO.C,L203*%
X126700000Y-60800000D03*
X126700000Y-63600000D03*
%TD*%
D10*
%TO.C,D1905*%
X169200000Y-95500000D03*
X164800000Y-95500000D03*
X169200000Y-94000000D03*
X164800000Y-94000000D03*
X169200000Y-92500000D03*
X164800000Y-92500000D03*
%TD*%
D19*
%TO.C,U102*%
X107850000Y-61900000D03*
X107850000Y-64200000D03*
X107850000Y-66500000D03*
D20*
X114550000Y-64200000D03*
%TD*%
D10*
%TO.C,D804*%
X161200000Y-65500000D03*
X156800000Y-65500000D03*
X161200000Y-64000000D03*
X156800000Y-64000000D03*
X161200000Y-62500000D03*
X156800000Y-62500000D03*
%TD*%
%TO.C,D1005*%
X169200000Y-53500000D03*
X164800000Y-53500000D03*
X169200000Y-52000000D03*
X164800000Y-52000000D03*
X169200000Y-50500000D03*
X164800000Y-50500000D03*
%TD*%
%TO.C,D1801*%
X137200000Y-101500000D03*
X132800000Y-101500000D03*
X137200000Y-100000000D03*
X132800000Y-100000000D03*
X137200000Y-98500000D03*
X132800000Y-98500000D03*
%TD*%
%TO.C,D1705*%
X169200000Y-107500000D03*
X164800000Y-107500000D03*
X169200000Y-106000000D03*
X164800000Y-106000000D03*
X169200000Y-104500000D03*
X164800000Y-104500000D03*
%TD*%
%TO.C,D606*%
X177200000Y-41500000D03*
X172800000Y-41500000D03*
X177200000Y-40000000D03*
X172800000Y-40000000D03*
X177200000Y-38500000D03*
X172800000Y-38500000D03*
%TD*%
%TO.C,D704*%
X161200000Y-47500000D03*
X156800000Y-47500000D03*
X161200000Y-46000000D03*
X156800000Y-46000000D03*
X161200000Y-44500000D03*
X156800000Y-44500000D03*
%TD*%
D21*
%TO.C,C1103*%
X127300000Y-108975000D03*
X127300000Y-107425000D03*
%TD*%
D10*
%TO.C,D706*%
X177200000Y-47500000D03*
X172800000Y-47500000D03*
X177200000Y-46000000D03*
X172800000Y-46000000D03*
X177200000Y-44500000D03*
X172800000Y-44500000D03*
%TD*%
%TO.C,D1803*%
X153200000Y-101500000D03*
X148800000Y-101500000D03*
X153200000Y-100000000D03*
X148800000Y-100000000D03*
X153200000Y-98500000D03*
X148800000Y-98500000D03*
%TD*%
D18*
%TO.C,L1103*%
X126700000Y-100100000D03*
X126700000Y-102900000D03*
%TD*%
D15*
%TO.C,C107*%
X113940000Y-109025000D03*
X114900000Y-109025000D03*
%TD*%
D10*
%TO.C,D502*%
X145200000Y-77500000D03*
X140800000Y-77500000D03*
X145200000Y-76000000D03*
X140800000Y-76000000D03*
X145200000Y-74500000D03*
X140800000Y-74500000D03*
%TD*%
D22*
%TO.C,H104*%
X126000000Y-118000000D03*
%TD*%
D23*
%TO.C,C2*%
X110405000Y-61835000D03*
X111955000Y-61835000D03*
%TD*%
D24*
%TO.C,R109*%
X119862500Y-77400000D03*
X121512500Y-77400000D03*
%TD*%
%TO.C,R102*%
X90575000Y-106600000D03*
X92225000Y-106600000D03*
%TD*%
D17*
%TO.C,U202*%
X124970000Y-69905000D03*
X124970000Y-68635000D03*
X124970000Y-67365000D03*
X124970000Y-66095000D03*
X120030000Y-66095000D03*
X120030000Y-67365000D03*
X120030000Y-68635000D03*
X120030000Y-69905000D03*
%TD*%
D10*
%TO.C,D1606*%
X177200000Y-89500000D03*
X172800000Y-89500000D03*
X177200000Y-88000000D03*
X172800000Y-88000000D03*
X177200000Y-86500000D03*
X172800000Y-86500000D03*
%TD*%
%TO.C,D603*%
X153200000Y-41500000D03*
X148800000Y-41500000D03*
X153200000Y-40000000D03*
X148800000Y-40000000D03*
X153200000Y-38500000D03*
X148800000Y-38500000D03*
%TD*%
%TO.C,D604*%
X161200000Y-41500000D03*
X156800000Y-41500000D03*
X161200000Y-40000000D03*
X156800000Y-40000000D03*
X161200000Y-38500000D03*
X156800000Y-38500000D03*
%TD*%
%TO.C,D1906*%
X177200000Y-95500000D03*
X172800000Y-95500000D03*
X177200000Y-94000000D03*
X172800000Y-94000000D03*
X177200000Y-92500000D03*
X172800000Y-92500000D03*
%TD*%
D25*
%TO.C,C1102*%
X121375000Y-89100000D03*
X119825000Y-89100000D03*
%TD*%
D10*
%TO.C,D904*%
X161200000Y-59500000D03*
X156800000Y-59500000D03*
X161200000Y-58000000D03*
X156800000Y-58000000D03*
X161200000Y-56500000D03*
X156800000Y-56500000D03*
%TD*%
D26*
%TO.C,C113*%
X94600000Y-103320000D03*
X94600000Y-104280000D03*
%TD*%
D10*
%TO.C,D1807*%
X185200000Y-101500000D03*
X180800000Y-101500000D03*
X185200000Y-100000000D03*
X180800000Y-100000000D03*
X185200000Y-98500000D03*
X180800000Y-98500000D03*
%TD*%
%TO.C,D1903*%
X153200000Y-95500000D03*
X148800000Y-95500000D03*
X153200000Y-94000000D03*
X148800000Y-94000000D03*
X153200000Y-92500000D03*
X148800000Y-92500000D03*
%TD*%
D25*
%TO.C,C1104*%
X121375000Y-111100000D03*
X119825000Y-111100000D03*
%TD*%
D10*
%TO.C,D1407*%
X185200000Y-119500000D03*
X180800000Y-119500000D03*
X185200000Y-118000000D03*
X180800000Y-118000000D03*
X185200000Y-116500000D03*
X180800000Y-116500000D03*
%TD*%
%TO.C,D1904*%
X161200000Y-95500000D03*
X156800000Y-95500000D03*
X161200000Y-94000000D03*
X156800000Y-94000000D03*
X161200000Y-92500000D03*
X156800000Y-92500000D03*
%TD*%
D21*
%TO.C,C1101*%
X127300000Y-86975000D03*
X127300000Y-85425000D03*
%TD*%
D14*
%TO.C,R104*%
X91800000Y-99525000D03*
X91800000Y-97875000D03*
%TD*%
D15*
%TO.C,C108*%
X113940000Y-99995000D03*
X114900000Y-99995000D03*
%TD*%
D21*
%TO.C,C203*%
X127300000Y-69675000D03*
X127300000Y-68125000D03*
%TD*%
D27*
%TO.C,U103*%
X109095000Y-53875000D03*
X110365000Y-53875000D03*
X111635000Y-53875000D03*
X112905000Y-53875000D03*
X112905000Y-48925000D03*
X111635000Y-48925000D03*
X110365000Y-48925000D03*
X109095000Y-48925000D03*
%TD*%
D10*
%TO.C,D907*%
X185200000Y-59500000D03*
X180800000Y-59500000D03*
X185200000Y-58000000D03*
X180800000Y-58000000D03*
X185200000Y-56500000D03*
X180800000Y-56500000D03*
%TD*%
%TO.C,D1507*%
X185200000Y-83500000D03*
X180800000Y-83500000D03*
X185200000Y-82000000D03*
X180800000Y-82000000D03*
X185200000Y-80500000D03*
X180800000Y-80500000D03*
%TD*%
D16*
%TO.C,R1103*%
X117000000Y-97075000D03*
X117000000Y-98725000D03*
%TD*%
D10*
%TO.C,D1305*%
X169200000Y-113500000D03*
X164800000Y-113500000D03*
X169200000Y-112000000D03*
X164800000Y-112000000D03*
X169200000Y-110500000D03*
X164800000Y-110500000D03*
%TD*%
D28*
%TO.C,U104*%
X109250000Y-82512500D03*
X109750000Y-82512500D03*
X110250000Y-82512500D03*
X110750000Y-82512500D03*
X111250000Y-82512500D03*
X111750000Y-82512500D03*
X112250000Y-82512500D03*
X112750000Y-82512500D03*
X113250000Y-82512500D03*
X113750000Y-82512500D03*
X114250000Y-82512500D03*
X114750000Y-82512500D03*
D29*
X116162500Y-81100000D03*
X116162500Y-80600000D03*
X116162500Y-80100000D03*
X116162500Y-79600000D03*
X116162500Y-79100000D03*
X116162500Y-78600000D03*
X116162500Y-78100000D03*
X116162500Y-77600000D03*
X116162500Y-77100000D03*
X116162500Y-76600000D03*
X116162500Y-76100000D03*
X116162500Y-75600000D03*
D28*
X114750000Y-74187500D03*
X114250000Y-74187500D03*
X113750000Y-74187500D03*
X113250000Y-74187500D03*
X112750000Y-74187500D03*
X112250000Y-74187500D03*
X111750000Y-74187500D03*
X111250000Y-74187500D03*
X110750000Y-74187500D03*
X110250000Y-74187500D03*
X109750000Y-74187500D03*
X109250000Y-74187500D03*
D29*
X107837500Y-75600000D03*
X107837500Y-76100000D03*
X107837500Y-76600000D03*
X107837500Y-77100000D03*
X107837500Y-77600000D03*
X107837500Y-78100000D03*
X107837500Y-78600000D03*
X107837500Y-79100000D03*
X107837500Y-79600000D03*
X107837500Y-80100000D03*
X107837500Y-80600000D03*
X107837500Y-81100000D03*
%TD*%
D10*
%TO.C,D1001*%
X137200000Y-53500000D03*
X132800000Y-53500000D03*
X137200000Y-52000000D03*
X132800000Y-52000000D03*
X137200000Y-50500000D03*
X132800000Y-50500000D03*
%TD*%
%TO.C,D707*%
X185200000Y-47500000D03*
X180800000Y-47500000D03*
X185200000Y-46000000D03*
X180800000Y-46000000D03*
X185200000Y-44500000D03*
X180800000Y-44500000D03*
%TD*%
%TO.C,D1901*%
X137200000Y-95500000D03*
X132800000Y-95500000D03*
X137200000Y-94000000D03*
X132800000Y-94000000D03*
X137200000Y-92500000D03*
X132800000Y-92500000D03*
%TD*%
%TO.C,D1703*%
X153200000Y-107500000D03*
X148800000Y-107500000D03*
X153200000Y-106000000D03*
X148800000Y-106000000D03*
X153200000Y-104500000D03*
X148800000Y-104500000D03*
%TD*%
D18*
%TO.C,L1102*%
X126700000Y-111100000D03*
X126700000Y-113900000D03*
%TD*%
D17*
%TO.C,U203*%
X124970000Y-58905000D03*
X124970000Y-57635000D03*
X124970000Y-56365000D03*
X124970000Y-55095000D03*
X120030000Y-55095000D03*
X120030000Y-56365000D03*
X120030000Y-57635000D03*
X120030000Y-58905000D03*
%TD*%
D30*
%TO.C,SW102*%
X103100000Y-109900000D03*
X96600000Y-109900000D03*
X103100000Y-105400000D03*
X96600000Y-105400000D03*
%TD*%
D25*
%TO.C,C102*%
X106475000Y-46400000D03*
X104925000Y-46400000D03*
%TD*%
D10*
%TO.C,D1902*%
X145200000Y-95500000D03*
X140800000Y-95500000D03*
X145200000Y-94000000D03*
X140800000Y-94000000D03*
X145200000Y-92500000D03*
X140800000Y-92500000D03*
%TD*%
%TO.C,D1607*%
X185200000Y-89500000D03*
X180800000Y-89500000D03*
X185200000Y-88000000D03*
X180800000Y-88000000D03*
X185200000Y-86500000D03*
X180800000Y-86500000D03*
%TD*%
D22*
%TO.C,H103*%
X126000000Y-40000000D03*
%TD*%
D25*
%TO.C,C204*%
X121375000Y-71800000D03*
X119825000Y-71800000D03*
%TD*%
D10*
%TO.C,D803*%
X153200000Y-65500000D03*
X148800000Y-65500000D03*
X153200000Y-64000000D03*
X148800000Y-64000000D03*
X153200000Y-62500000D03*
X148800000Y-62500000D03*
%TD*%
%TO.C,D1002*%
X145200000Y-53500000D03*
X140800000Y-53500000D03*
X145200000Y-52000000D03*
X140800000Y-52000000D03*
X145200000Y-50500000D03*
X140800000Y-50500000D03*
%TD*%
%TO.C,D1406*%
X177200000Y-119500000D03*
X172800000Y-119500000D03*
X177200000Y-118000000D03*
X172800000Y-118000000D03*
X177200000Y-116500000D03*
X172800000Y-116500000D03*
%TD*%
%TO.C,D1706*%
X177200000Y-107500000D03*
X172800000Y-107500000D03*
X177200000Y-106000000D03*
X172800000Y-106000000D03*
X177200000Y-104500000D03*
X172800000Y-104500000D03*
%TD*%
%TO.C,D1503*%
X153200000Y-83500000D03*
X148800000Y-83500000D03*
X153200000Y-82000000D03*
X148800000Y-82000000D03*
X153200000Y-80500000D03*
X148800000Y-80500000D03*
%TD*%
%TO.C,D404*%
X161200000Y-71500000D03*
X156800000Y-71500000D03*
X161200000Y-70000000D03*
X156800000Y-70000000D03*
X161200000Y-68500000D03*
X156800000Y-68500000D03*
%TD*%
D31*
%TO.C,C1*%
X112130000Y-66535000D03*
X110230000Y-66535000D03*
%TD*%
D10*
%TO.C,D403*%
X153200000Y-71500000D03*
X148800000Y-71500000D03*
X153200000Y-70000000D03*
X148800000Y-70000000D03*
X153200000Y-68500000D03*
X148800000Y-68500000D03*
%TD*%
%TO.C,D806*%
X177200000Y-65500000D03*
X172800000Y-65500000D03*
X177200000Y-64000000D03*
X172800000Y-64000000D03*
X177200000Y-62500000D03*
X172800000Y-62500000D03*
%TD*%
D30*
%TO.C,SW101*%
X103100000Y-117400000D03*
X96600000Y-117400000D03*
X103100000Y-112900000D03*
X96600000Y-112900000D03*
%TD*%
D32*
%TO.C,D102*%
X125475000Y-77400000D03*
X123900000Y-77400000D03*
%TD*%
D24*
%TO.C,R108*%
X119875000Y-79300000D03*
X121525000Y-79300000D03*
%TD*%
D10*
%TO.C,D601*%
X137200000Y-41500000D03*
X132800000Y-41500000D03*
X137200000Y-40000000D03*
X132800000Y-40000000D03*
X137200000Y-38500000D03*
X132800000Y-38500000D03*
%TD*%
%TO.C,D1004*%
X161200000Y-53500000D03*
X156800000Y-53500000D03*
X161200000Y-52000000D03*
X156800000Y-52000000D03*
X161200000Y-50500000D03*
X156800000Y-50500000D03*
%TD*%
%TO.C,D1504*%
X161200000Y-83500000D03*
X156800000Y-83500000D03*
X161200000Y-82000000D03*
X156800000Y-82000000D03*
X161200000Y-80500000D03*
X156800000Y-80500000D03*
%TD*%
%TO.C,D1402*%
X145200000Y-119500000D03*
X140800000Y-119500000D03*
X145200000Y-118000000D03*
X140800000Y-118000000D03*
X145200000Y-116500000D03*
X140800000Y-116500000D03*
%TD*%
%TO.C,D1907*%
X185200000Y-95500000D03*
X180800000Y-95500000D03*
X185200000Y-94000000D03*
X180800000Y-94000000D03*
X185200000Y-92500000D03*
X180800000Y-92500000D03*
%TD*%
%TO.C,D1401*%
X137200000Y-119500000D03*
X132800000Y-119500000D03*
X137200000Y-118000000D03*
X132800000Y-118000000D03*
X137200000Y-116500000D03*
X132800000Y-116500000D03*
%TD*%
%TO.C,D1306*%
X177200000Y-113500000D03*
X172800000Y-113500000D03*
X177200000Y-112000000D03*
X172800000Y-112000000D03*
X177200000Y-110500000D03*
X172800000Y-110500000D03*
%TD*%
D17*
%TO.C,U1103*%
X124970000Y-98205000D03*
X124970000Y-96935000D03*
X124970000Y-95665000D03*
X124970000Y-94395000D03*
X120030000Y-94395000D03*
X120030000Y-95665000D03*
X120030000Y-96935000D03*
X120030000Y-98205000D03*
%TD*%
D24*
%TO.C,R103*%
X90575000Y-109200000D03*
X92225000Y-109200000D03*
%TD*%
D10*
%TO.C,D901*%
X137200000Y-59500000D03*
X132800000Y-59500000D03*
X137200000Y-58000000D03*
X132800000Y-58000000D03*
X137200000Y-56500000D03*
X132800000Y-56500000D03*
%TD*%
%TO.C,D805*%
X169200000Y-65500000D03*
X164800000Y-65500000D03*
X169200000Y-64000000D03*
X164800000Y-64000000D03*
X169200000Y-62500000D03*
X164800000Y-62500000D03*
%TD*%
%TO.C,D1601*%
X137200000Y-89500000D03*
X132800000Y-89500000D03*
X137200000Y-88000000D03*
X132800000Y-88000000D03*
X137200000Y-86500000D03*
X132800000Y-86500000D03*
%TD*%
D21*
%TO.C,C1105*%
X127300000Y-97975000D03*
X127300000Y-96425000D03*
%TD*%
D16*
%TO.C,R105*%
X93300000Y-103375000D03*
X93300000Y-105025000D03*
%TD*%
D18*
%TO.C,L201*%
X126700000Y-49800000D03*
X126700000Y-52600000D03*
%TD*%
D10*
%TO.C,D602*%
X145200000Y-41500000D03*
X140800000Y-41500000D03*
X145200000Y-40000000D03*
X140800000Y-40000000D03*
X145200000Y-38500000D03*
X140800000Y-38500000D03*
%TD*%
D18*
%TO.C,L202*%
X126700000Y-71800000D03*
X126700000Y-74600000D03*
%TD*%
D10*
%TO.C,D1307*%
X185200000Y-113500000D03*
X180800000Y-113500000D03*
X185200000Y-112000000D03*
X180800000Y-112000000D03*
X185200000Y-110500000D03*
X180800000Y-110500000D03*
%TD*%
%TO.C,D506*%
X177200000Y-77500000D03*
X172800000Y-77500000D03*
X177200000Y-76000000D03*
X172800000Y-76000000D03*
X177200000Y-74500000D03*
X172800000Y-74500000D03*
%TD*%
%TO.C,D801*%
X137200000Y-65500000D03*
X132800000Y-65500000D03*
X137200000Y-64000000D03*
X132800000Y-64000000D03*
X137200000Y-62500000D03*
X132800000Y-62500000D03*
%TD*%
%TO.C,D1604*%
X161200000Y-89500000D03*
X156800000Y-89500000D03*
X161200000Y-88000000D03*
X156800000Y-88000000D03*
X161200000Y-86500000D03*
X156800000Y-86500000D03*
%TD*%
D25*
%TO.C,C1106*%
X121375000Y-100100000D03*
X119825000Y-100100000D03*
%TD*%
D10*
%TO.C,D405*%
X169200000Y-71500000D03*
X164800000Y-71500000D03*
X169200000Y-70000000D03*
X164800000Y-70000000D03*
X169200000Y-68500000D03*
X164800000Y-68500000D03*
%TD*%
%TO.C,D701*%
X137200000Y-47500000D03*
X132800000Y-47500000D03*
X137200000Y-46000000D03*
X132800000Y-46000000D03*
X137200000Y-44500000D03*
X132800000Y-44500000D03*
%TD*%
D15*
%TO.C,C106*%
X113940000Y-112035000D03*
X114900000Y-112035000D03*
%TD*%
D10*
%TO.C,D402*%
X145200000Y-71500000D03*
X140800000Y-71500000D03*
X145200000Y-70000000D03*
X140800000Y-70000000D03*
X145200000Y-68500000D03*
X140800000Y-68500000D03*
%TD*%
%TO.C,D407*%
X185200000Y-71500000D03*
X180800000Y-71500000D03*
X185200000Y-70000000D03*
X180800000Y-70000000D03*
X185200000Y-68500000D03*
X180800000Y-68500000D03*
%TD*%
%TO.C,D902*%
X145200000Y-59500000D03*
X140800000Y-59500000D03*
X145200000Y-58000000D03*
X140800000Y-58000000D03*
X145200000Y-56500000D03*
X140800000Y-56500000D03*
%TD*%
D16*
%TO.C,R107*%
X107400000Y-71775000D03*
X107400000Y-73425000D03*
%TD*%
D10*
%TO.C,D702*%
X145200000Y-47500000D03*
X140800000Y-47500000D03*
X145200000Y-46000000D03*
X140800000Y-46000000D03*
X145200000Y-44500000D03*
X140800000Y-44500000D03*
%TD*%
%TO.C,D406*%
X177200000Y-71500000D03*
X172800000Y-71500000D03*
X177200000Y-70000000D03*
X172800000Y-70000000D03*
X177200000Y-68500000D03*
X172800000Y-68500000D03*
%TD*%
%TO.C,D1301*%
X137200000Y-113500000D03*
X132800000Y-113500000D03*
X137200000Y-112000000D03*
X132800000Y-112000000D03*
X137200000Y-110500000D03*
X132800000Y-110500000D03*
%TD*%
D22*
%TO.C,H105*%
X191000000Y-40000000D03*
%TD*%
D21*
%TO.C,C201*%
X127300000Y-47675000D03*
X127300000Y-46125000D03*
%TD*%
D10*
%TO.C,D1403*%
X153200000Y-119500000D03*
X148800000Y-119500000D03*
X153200000Y-118000000D03*
X148800000Y-118000000D03*
X153200000Y-116500000D03*
X148800000Y-116500000D03*
%TD*%
%TO.C,D1505*%
X169200000Y-83500000D03*
X164800000Y-83500000D03*
X169200000Y-82000000D03*
X164800000Y-82000000D03*
X169200000Y-80500000D03*
X164800000Y-80500000D03*
%TD*%
D26*
%TO.C,C105*%
X107300000Y-48870000D03*
X107300000Y-49830000D03*
%TD*%
D15*
%TO.C,C110*%
X113940000Y-106015000D03*
X114900000Y-106015000D03*
%TD*%
D10*
%TO.C,D507*%
X185200000Y-77500000D03*
X180800000Y-77500000D03*
X185200000Y-76000000D03*
X180800000Y-76000000D03*
X185200000Y-74500000D03*
X180800000Y-74500000D03*
%TD*%
%TO.C,D1702*%
X145200000Y-107500000D03*
X140800000Y-107500000D03*
X145200000Y-106000000D03*
X140800000Y-106000000D03*
X145200000Y-104500000D03*
X140800000Y-104500000D03*
%TD*%
D21*
%TO.C,C205*%
X127300000Y-58675000D03*
X127300000Y-57125000D03*
%TD*%
D10*
%TO.C,D1806*%
X177200000Y-101500000D03*
X172800000Y-101500000D03*
X177200000Y-100000000D03*
X172800000Y-100000000D03*
X177200000Y-98500000D03*
X172800000Y-98500000D03*
%TD*%
%TO.C,D503*%
X153200000Y-77500000D03*
X148800000Y-77500000D03*
X153200000Y-76000000D03*
X148800000Y-76000000D03*
X153200000Y-74500000D03*
X148800000Y-74500000D03*
%TD*%
D16*
%TO.C,R201*%
X117000000Y-46775000D03*
X117000000Y-48425000D03*
%TD*%
D10*
%TO.C,D1805*%
X169200000Y-101500000D03*
X164800000Y-101500000D03*
X169200000Y-100000000D03*
X164800000Y-100000000D03*
X169200000Y-98500000D03*
X164800000Y-98500000D03*
%TD*%
%TO.C,D504*%
X161200000Y-77500000D03*
X156800000Y-77500000D03*
X161200000Y-76000000D03*
X156800000Y-76000000D03*
X161200000Y-74500000D03*
X156800000Y-74500000D03*
%TD*%
D33*
%TO.C,J105*%
X114000000Y-40000000D03*
D34*
X119000000Y-40000000D03*
%TD*%
D17*
%TO.C,U201*%
X124970000Y-47905000D03*
X124970000Y-46635000D03*
X124970000Y-45365000D03*
X124970000Y-44095000D03*
X120030000Y-44095000D03*
X120030000Y-45365000D03*
X120030000Y-46635000D03*
X120030000Y-47905000D03*
%TD*%
D16*
%TO.C,R203*%
X117000000Y-57775000D03*
X117000000Y-59425000D03*
%TD*%
D10*
%TO.C,D1506*%
X177200000Y-83500000D03*
X172800000Y-83500000D03*
X177200000Y-82000000D03*
X172800000Y-82000000D03*
X177200000Y-80500000D03*
X172800000Y-80500000D03*
%TD*%
D18*
%TO.C,L1101*%
X126700000Y-89100000D03*
X126700000Y-91900000D03*
%TD*%
D25*
%TO.C,C202*%
X121375000Y-49800000D03*
X119825000Y-49800000D03*
%TD*%
D16*
%TO.C,R1102*%
X117000000Y-108075000D03*
X117000000Y-109725000D03*
%TD*%
D22*
%TO.C,H106*%
X191000000Y-118000000D03*
%TD*%
D10*
%TO.C,D1405*%
X169200000Y-119500000D03*
X164800000Y-119500000D03*
X169200000Y-118000000D03*
X164800000Y-118000000D03*
X169200000Y-116500000D03*
X164800000Y-116500000D03*
%TD*%
%TO.C,D505*%
X169200000Y-77500000D03*
X164800000Y-77500000D03*
X169200000Y-76000000D03*
X164800000Y-76000000D03*
X169200000Y-74500000D03*
X164800000Y-74500000D03*
%TD*%
D16*
%TO.C,R202*%
X117000000Y-68775000D03*
X117000000Y-70425000D03*
%TD*%
D10*
%TO.C,D1302*%
X145200000Y-113500000D03*
X140800000Y-113500000D03*
X145200000Y-112000000D03*
X140800000Y-112000000D03*
X145200000Y-110500000D03*
X140800000Y-110500000D03*
%TD*%
D35*
%TO.C,J103*%
X88100000Y-101520000D03*
D36*
X88100000Y-104060000D03*
X88100000Y-106600000D03*
X88100000Y-109140000D03*
X88100000Y-111680000D03*
%TD*%
D10*
%TO.C,D903*%
X153200000Y-59500000D03*
X148800000Y-59500000D03*
X153200000Y-58000000D03*
X148800000Y-58000000D03*
X153200000Y-56500000D03*
X148800000Y-56500000D03*
%TD*%
%TO.C,D607*%
X185200000Y-41500000D03*
X180800000Y-41500000D03*
X185200000Y-40000000D03*
X180800000Y-40000000D03*
X185200000Y-38500000D03*
X180800000Y-38500000D03*
%TD*%
D25*
%TO.C,C206*%
X121375000Y-60800000D03*
X119825000Y-60800000D03*
%TD*%
D32*
%TO.C,D101*%
X125487500Y-79300000D03*
X123912500Y-79300000D03*
%TD*%
D10*
%TO.C,D1304*%
X161200000Y-113500000D03*
X156800000Y-113500000D03*
X161200000Y-112000000D03*
X156800000Y-112000000D03*
X161200000Y-110500000D03*
X156800000Y-110500000D03*
%TD*%
D37*
%TO.C,C112*%
X119380000Y-117100000D03*
X118420000Y-117100000D03*
%TD*%
D38*
%TO.C,C114*%
X94600000Y-99480000D03*
X94600000Y-98520000D03*
%TD*%
D10*
%TO.C,D1502*%
X145200000Y-83500000D03*
X140800000Y-83500000D03*
X145200000Y-82000000D03*
X140800000Y-82000000D03*
X145200000Y-80500000D03*
X140800000Y-80500000D03*
%TD*%
%TO.C,D802*%
X145200000Y-65500000D03*
X140800000Y-65500000D03*
X145200000Y-64000000D03*
X140800000Y-64000000D03*
X145200000Y-62500000D03*
X140800000Y-62500000D03*
%TD*%
D39*
%TO.C,J104*%
X109150000Y-119300000D03*
X109150000Y-115400000D03*
X110420000Y-119300000D03*
X110420000Y-115400000D03*
X111690000Y-119300000D03*
X111690000Y-115400000D03*
X112960000Y-119300000D03*
X112960000Y-115400000D03*
X114230000Y-119300000D03*
X114230000Y-115400000D03*
X115500000Y-119300000D03*
X115500000Y-115400000D03*
X116770000Y-119300000D03*
X116770000Y-115400000D03*
%TD*%
D10*
%TO.C,D1003*%
X153200000Y-53500000D03*
X148800000Y-53500000D03*
X153200000Y-52000000D03*
X148800000Y-52000000D03*
X153200000Y-50500000D03*
X148800000Y-50500000D03*
%TD*%
%TO.C,D906*%
X177200000Y-59500000D03*
X172800000Y-59500000D03*
X177200000Y-58000000D03*
X172800000Y-58000000D03*
X177200000Y-56500000D03*
X172800000Y-56500000D03*
%TD*%
%TO.C,D807*%
X185200000Y-65500000D03*
X180800000Y-65500000D03*
X185200000Y-64000000D03*
X180800000Y-64000000D03*
X185200000Y-62500000D03*
X180800000Y-62500000D03*
%TD*%
%TO.C,D1704*%
X161200000Y-107500000D03*
X156800000Y-107500000D03*
X161200000Y-106000000D03*
X156800000Y-106000000D03*
X161200000Y-104500000D03*
X156800000Y-104500000D03*
%TD*%
%TO.C,D1006*%
X177200000Y-53500000D03*
X172800000Y-53500000D03*
X177200000Y-52000000D03*
X172800000Y-52000000D03*
X177200000Y-50500000D03*
X172800000Y-50500000D03*
%TD*%
%TO.C,D705*%
X169200000Y-47500000D03*
X164800000Y-47500000D03*
X169200000Y-46000000D03*
X164800000Y-46000000D03*
X169200000Y-44500000D03*
X164800000Y-44500000D03*
%TD*%
%TO.C,D1605*%
X169200000Y-89500000D03*
X164800000Y-89500000D03*
X169200000Y-88000000D03*
X164800000Y-88000000D03*
X169200000Y-86500000D03*
X164800000Y-86500000D03*
%TD*%
%TO.C,D1802*%
X145200000Y-101500000D03*
X140800000Y-101500000D03*
X145200000Y-100000000D03*
X140800000Y-100000000D03*
X145200000Y-98500000D03*
X140800000Y-98500000D03*
%TD*%
%TO.C,D1804*%
X161200000Y-101500000D03*
X156800000Y-101500000D03*
X161200000Y-100000000D03*
X156800000Y-100000000D03*
X161200000Y-98500000D03*
X156800000Y-98500000D03*
%TD*%
%TO.C,D501*%
X137200000Y-77500000D03*
X132800000Y-77500000D03*
X137200000Y-76000000D03*
X132800000Y-76000000D03*
X137200000Y-74500000D03*
X132800000Y-74500000D03*
%TD*%
D30*
%TO.C,SW103*%
X96600000Y-97800000D03*
X103100000Y-97800000D03*
X96600000Y-102300000D03*
X103100000Y-102300000D03*
%TD*%
D40*
%TO.C,U101*%
X100260000Y-42325000D03*
X102800000Y-42325000D03*
X105340000Y-42325000D03*
%TD*%
D16*
%TO.C,R101*%
X91800000Y-103375000D03*
X91800000Y-105025000D03*
%TD*%
D10*
%TO.C,D1603*%
X153200000Y-89500000D03*
X148800000Y-89500000D03*
X153200000Y-88000000D03*
X148800000Y-88000000D03*
X153200000Y-86500000D03*
X148800000Y-86500000D03*
%TD*%
%TO.C,D1701*%
X137200000Y-107500000D03*
X132800000Y-107500000D03*
X137200000Y-106000000D03*
X132800000Y-106000000D03*
X137200000Y-104500000D03*
X132800000Y-104500000D03*
%TD*%
D22*
%TO.C,H101*%
X90000000Y-40000000D03*
%TD*%
D17*
%TO.C,U1101*%
X124970000Y-87205000D03*
X124970000Y-85935000D03*
X124970000Y-84665000D03*
X124970000Y-83395000D03*
X120030000Y-83395000D03*
X120030000Y-84665000D03*
X120030000Y-85935000D03*
X120030000Y-87205000D03*
%TD*%
D10*
%TO.C,D1707*%
X185200000Y-107500000D03*
X180800000Y-107500000D03*
X185200000Y-106000000D03*
X180800000Y-106000000D03*
X185200000Y-104500000D03*
X180800000Y-104500000D03*
%TD*%
D26*
%TO.C,C111*%
X90400000Y-102620000D03*
X90400000Y-103580000D03*
%TD*%
D41*
%TO.C,C101*%
X100225000Y-46300000D03*
X103175000Y-46300000D03*
%TD*%
D10*
%TO.C,D703*%
X153200000Y-47500000D03*
X148800000Y-47500000D03*
X153200000Y-46000000D03*
X148800000Y-46000000D03*
X153200000Y-44500000D03*
X148800000Y-44500000D03*
%TD*%
%TO.C,D1007*%
X185200000Y-53500000D03*
X180800000Y-53500000D03*
X185200000Y-52000000D03*
X180800000Y-52000000D03*
X185200000Y-50500000D03*
X180800000Y-50500000D03*
%TD*%
%TO.C,D401*%
X137200000Y-71500000D03*
X132800000Y-71500000D03*
X137200000Y-70000000D03*
X132800000Y-70000000D03*
X137200000Y-68500000D03*
X132800000Y-68500000D03*
%TD*%
D22*
%TO.C,H102*%
X90000000Y-118000000D03*
%TD*%
M02*
