M48
; DRILL file {KiCad 9.0.7} date 2026-04-13T14:11:18+0200
; FORMAT={-:-/ absolute / metric / decimal}
; #@! TF.CreationDate,2026-04-13T14:11:18+02:00
; #@! TF.GenerationSoftware,Kicad,Pcbnew,9.0.7
; #@! TF.FileFunction,Plated,1,4,PTH
FMAT,2
METRIC
; #@! TA.AperFunction,Plated,PTH,ViaDrill
T1C0.300
; #@! TA.AperFunction,Plated,PTH,ViaDrill
T2C0.500
; #@! TA.AperFunction,Plated,PTH,ComponentDrill
T3C1.000
; #@! TA.AperFunction,Plated,PTH,ComponentDrill
T4C1.100
; #@! TA.AperFunction,Plated,PTH,ComponentDrill
T5C1.200
; #@! TA.AperFunction,Plated,PTH,ComponentDrill
T6C1.600
; #@! TA.AperFunction,Plated,PTH,ComponentDrill
T7C2.700
; #@! TA.AperFunction,Plated,PTH,ComponentDrill
T8C3.200
%
G90
G05
T1
X90.5Y-98.675
X106.4Y-75.9
X106.665Y-78.758
X106.673Y-77.958
X106.794Y-81.107
X107.8Y-68.1
X107.9Y-60.4
X109.1Y-50.6
X109.1Y-55.7
X109.2Y-72.7
X109.202Y-80.6
X110.3Y-75.7
X110.4Y-47.3
X110.4Y-55.5
X111.6Y-47.3
X111.6Y-55.5
X111.6Y-55.5
X111.7Y-72.7
X111.7Y-121.0
X112.808Y-84.206
X113.0Y-121.0
X113.2Y-81.2
X113.608Y-83.913
X113.9Y-112.9
X114.4Y-83.8
X114.5Y-87.1
X114.5Y-88.3
X114.7Y-72.7
X114.7Y-80.1
X114.8Y-81.3
X114.9Y-112.8
X115.111Y-76.1
X115.5Y-121.1
X117.206Y-75.593
X117.8Y-80.5
X117.8Y-81.5
X120.6Y-117.1
X123.2Y-95.6
X123.3Y-56.4
X123.3Y-84.6
X123.3Y-106.6
X123.335Y-45.365
X123.365Y-67.365
T2
X92.0Y-101.3
X93.3Y-106.6
X93.3Y-109.2
X99.757Y-97.757
X107.4Y-70.4
X110.4Y-121.0
X112.9Y-47.2
X116.0Y-64.2
X119.0Y-91.7
X119.5Y-50.8
X119.6Y-73.1
X119.7Y-62.0
X119.8Y-101.3
X119.8Y-112.2
X124.4Y-49.8
X124.4Y-60.8
X124.4Y-71.8
X124.4Y-89.1
X124.4Y-100.1
X124.4Y-111.1
X126.9Y-77.4
X126.9Y-77.4
X126.9Y-79.3
X127.1Y-44.1
X127.1Y-55.1
X127.1Y-83.4
X127.1Y-105.4
X127.2Y-66.1
X127.2Y-94.4
X129.0Y-63.6
X129.0Y-74.6
X129.0Y-91.9
X129.0Y-102.9
X129.0Y-113.9
X129.1Y-52.6
X130.7Y-38.5
X130.7Y-40.0
X130.7Y-41.5
X130.7Y-44.5
X130.7Y-46.0
X130.7Y-47.5
X130.7Y-50.5
X130.7Y-52.0
X130.7Y-53.5
X130.7Y-56.5
X130.7Y-58.0
X130.7Y-59.5
X130.7Y-62.5
X130.7Y-64.0
X130.7Y-65.5
X130.7Y-68.5
X130.7Y-70.0
X130.7Y-71.5
X130.7Y-74.5
X130.7Y-76.0
X130.7Y-77.5
X130.7Y-80.5
X130.7Y-82.0
X130.7Y-83.5
X130.7Y-86.5
X130.7Y-88.0
X130.7Y-89.5
X130.7Y-92.5
X130.7Y-94.0
X130.7Y-95.5
X130.7Y-98.5
X130.7Y-100.0
X130.7Y-101.5
X130.7Y-104.5
X130.7Y-106.0
X130.7Y-107.5
X130.7Y-110.5
X130.7Y-112.0
X130.7Y-113.5
X130.7Y-116.5
X130.7Y-118.0
X130.7Y-119.5
X187.1Y-38.5
X187.1Y-40.0
X187.1Y-41.5
X187.1Y-44.5
X187.1Y-46.0
X187.1Y-47.5
X187.1Y-50.5
X187.1Y-52.0
X187.1Y-53.5
X187.1Y-56.5
X187.1Y-58.0
X187.1Y-59.5
X187.1Y-62.5
X187.1Y-64.0
X187.1Y-65.5
X187.1Y-68.5
X187.1Y-70.0
X187.1Y-71.5
X187.1Y-74.5
X187.1Y-76.0
X187.1Y-77.5
X187.1Y-80.5
X187.1Y-82.0
X187.1Y-83.5
X187.1Y-86.5
X187.1Y-88.0
X187.1Y-89.5
X187.1Y-92.5
X187.1Y-94.0
X187.1Y-95.5
X187.1Y-98.5
X187.1Y-100.0
X187.1Y-101.5
X187.1Y-104.5
X187.1Y-106.0
X187.1Y-107.5
X187.1Y-110.5
X187.1Y-112.0
X187.1Y-113.5
X187.1Y-116.5
X187.1Y-118.0
X187.1Y-119.5
T3
X88.1Y-101.52
X88.1Y-104.06
X88.1Y-106.6
X88.1Y-109.14
X88.1Y-111.68
X100.26Y-42.325
X102.8Y-42.325
X105.34Y-42.325
T4
X96.6Y-97.8
X96.6Y-102.3
X96.6Y-105.4
X96.6Y-109.9
X96.6Y-112.9
X96.6Y-117.4
X103.1Y-97.8
X103.1Y-102.3
X103.1Y-105.4
X103.1Y-109.9
X103.1Y-112.9
X103.1Y-117.4
T5
X98.92Y-56.81
X103.36Y-83.19
X104.0Y-56.81
T6
X98.91Y-87.0
X99.545Y-79.38
X104.0Y-53.0
X104.0Y-60.62
T7
X114.0Y-40.0
X119.0Y-40.0
T8
X90.0Y-40.0
X90.0Y-118.0
X126.0Y-40.0
X126.0Y-118.0
X191.0Y-40.0
X191.0Y-118.0
M30
