%TF.GenerationSoftware,KiCad,Pcbnew,9.0.7*%
%TF.CreationDate,2026-04-13T14:07:11+02:00*%
%TF.ProjectId,hell,68656c6c-2e6b-4696-9361-645f70636258,rev?*%
%TF.SameCoordinates,Original*%
%TF.FileFunction,Copper,L2,Inr*%
%TF.FilePolarity,Positive*%
%FSLAX46Y46*%
G04 Gerber Fmt 4.6, Leading zero omitted, Abs format (unit mm)*
G04 Created by KiCad (PCBNEW 9.0.7) date 2026-04-13 14:07:11*
%MOMM*%
%LPD*%
G01*
G04 APERTURE LIST*
G04 Aperture macros list*
%AMRoundRect*
0 Rectangle with rounded corners*
0 $1 Rounding radius*
0 $2 $3 $4 $5 $6 $7 $8 $9 X,Y pos of 4 corners*
0 Add a 4 corners polygon primitive as box body*
4,1,4,$2,$3,$4,$5,$6,$7,$8,$9,$2,$3,0*
0 Add four circle primitives for the rounded corners*
1,1,$1+$1,$2,$3*
1,1,$1+$1,$4,$5*
1,1,$1+$1,$6,$7*
1,1,$1+$1,$8,$9*
0 Add four rect primitives between the rounded corners*
20,1,$1+$1,$2,$3,$4,$5,0*
20,1,$1+$1,$4,$5,$6,$7,0*
20,1,$1+$1,$6,$7,$8,$9,0*
20,1,$1+$1,$8,$9,$2,$3,0*%
G04 Aperture macros list end*
%TA.AperFunction,ComponentPad*%
%ADD10C,3.400000*%
%TD*%
%TA.AperFunction,ComponentPad*%
%ADD11C,2.900000*%
%TD*%
%TA.AperFunction,ComponentPad*%
%ADD12C,5.600000*%
%TD*%
%TA.AperFunction,ComponentPad*%
%ADD13C,2.000000*%
%TD*%
%TA.AperFunction,ComponentPad*%
%ADD14RoundRect,0.760000X-1.140000X-1.140000X1.140000X-1.140000X1.140000X1.140000X-1.140000X1.140000X0*%
%TD*%
%TA.AperFunction,ComponentPad*%
%ADD15C,3.800000*%
%TD*%
%TA.AperFunction,ComponentPad*%
%ADD16R,1.700000X1.700000*%
%TD*%
%TA.AperFunction,ComponentPad*%
%ADD17C,1.700000*%
%TD*%
%TA.AperFunction,ComponentPad*%
%ADD18C,1.508000*%
%TD*%
%TA.AperFunction,ViaPad*%
%ADD19C,1.000000*%
%TD*%
%TA.AperFunction,ViaPad*%
%ADD20C,0.600000*%
%TD*%
%TA.AperFunction,Conductor*%
%ADD21C,0.200000*%
%TD*%
G04 APERTURE END LIST*
D10*
%TO.N,GND*%
%TO.C,J102*%
X104000000Y-53000000D03*
%TO.N,DMX_N*%
X104000000Y-60620000D03*
D11*
%TO.N,DMX_P*%
X104000000Y-56810000D03*
%TO.N,GND*%
X98920000Y-56810000D03*
%TD*%
D10*
%TO.N,GND*%
%TO.C,J101*%
X98910000Y-87000000D03*
%TO.N,DMX_N*%
X99545000Y-79380000D03*
D11*
%TO.N,DMX_P*%
X103360000Y-83190000D03*
%TD*%
D12*
%TO.N,GND*%
%TO.C,H104*%
X126000000Y-118000000D03*
%TD*%
D13*
%TO.N,Net-(R101-Pad2)*%
%TO.C,SW102*%
X103100000Y-109900000D03*
X96600000Y-109900000D03*
%TO.N,GND*%
X103100000Y-105400000D03*
X96600000Y-105400000D03*
%TD*%
D12*
%TO.N,GND*%
%TO.C,H103*%
X126000000Y-40000000D03*
%TD*%
D13*
%TO.N,GND*%
%TO.C,SW101*%
X103100000Y-117400000D03*
X96600000Y-117400000D03*
%TO.N,NRST*%
X103100000Y-112900000D03*
X96600000Y-112900000D03*
%TD*%
D12*
%TO.N,GND*%
%TO.C,H105*%
X191000000Y-40000000D03*
%TD*%
D14*
%TO.N,GND*%
%TO.C,J105*%
X114000000Y-40000000D03*
D15*
%TO.N,+24V*%
X119000000Y-40000000D03*
%TD*%
D12*
%TO.N,GND*%
%TO.C,H106*%
X191000000Y-118000000D03*
%TD*%
D16*
%TO.N,+3.3V*%
%TO.C,J103*%
X88100000Y-101520000D03*
D17*
%TO.N,GND*%
X88100000Y-104060000D03*
%TO.N,Ecr_SCL*%
X88100000Y-106600000D03*
%TO.N,Ecr_SDA*%
X88100000Y-109140000D03*
%TO.N,N/C*%
X88100000Y-111680000D03*
%TD*%
D13*
%TO.N,Net-(R104-Pad2)*%
%TO.C,SW103*%
X96600000Y-97800000D03*
X103100000Y-97800000D03*
%TO.N,GND*%
X96600000Y-102300000D03*
X103100000Y-102300000D03*
%TD*%
D18*
%TO.N,+24V*%
%TO.C,U101*%
X100260000Y-42325000D03*
%TO.N,GND*%
X102800000Y-42325000D03*
%TO.N,+5V*%
X105340000Y-42325000D03*
%TD*%
D12*
%TO.N,GND*%
%TO.C,H101*%
X90000000Y-40000000D03*
%TD*%
%TO.N,GND*%
%TO.C,H102*%
X90000000Y-118000000D03*
%TD*%
D19*
%TO.N,+3.3V*%
X93300000Y-109200000D03*
D20*
%TO.N,GND*%
X114900000Y-112800000D03*
X90500000Y-98675000D03*
D19*
%TO.N,BOUTTON_2*%
X92000000Y-101300000D03*
%TO.N,GND*%
X116000000Y-64200000D03*
X119600000Y-73100000D03*
X127200000Y-66100000D03*
X119500000Y-50800000D03*
X127100000Y-55100000D03*
X119700000Y-62000000D03*
X119000000Y-91700000D03*
X127100000Y-44100000D03*
X127200000Y-94400000D03*
X127100000Y-83400000D03*
X127100000Y-105400000D03*
X119800000Y-101300000D03*
X119800000Y-112200000D03*
X187100000Y-77500000D03*
X187100000Y-64000000D03*
X187100000Y-88000000D03*
X187100000Y-58000000D03*
X187100000Y-65500000D03*
X126900000Y-77400000D03*
X107400000Y-70400000D03*
X112900000Y-47200000D03*
X126900000Y-79300000D03*
X187100000Y-41500000D03*
X187100000Y-76000000D03*
D20*
X115500000Y-121100000D03*
D19*
X187100000Y-56500000D03*
X187100000Y-80500000D03*
D20*
X113000000Y-121000000D03*
D19*
X187100000Y-116500000D03*
X187100000Y-68500000D03*
X187100000Y-50500000D03*
X187100000Y-82000000D03*
X187100000Y-101500000D03*
D20*
X120600000Y-117100000D03*
D19*
X187100000Y-92500000D03*
X187100000Y-94000000D03*
D20*
X111600000Y-55500000D03*
X110400000Y-55500000D03*
D19*
X187100000Y-86500000D03*
X187100000Y-89500000D03*
X187100000Y-113500000D03*
X187100000Y-59500000D03*
X187100000Y-46000000D03*
D20*
X112808038Y-84205957D03*
X109202000Y-80600000D03*
D19*
X187100000Y-47500000D03*
D20*
X111700000Y-121000000D03*
D19*
X187100000Y-74500000D03*
X187100000Y-107500000D03*
X187100000Y-44500000D03*
X187100000Y-110500000D03*
X187100000Y-100000000D03*
X187100000Y-83500000D03*
X187100000Y-40000000D03*
X187100000Y-119500000D03*
X187100000Y-98500000D03*
X187100000Y-104500000D03*
D20*
X115110648Y-76100000D03*
D19*
X126900000Y-77400000D03*
D20*
X111600000Y-55500000D03*
D19*
X187100000Y-71500000D03*
X187100000Y-70000000D03*
X187100000Y-95500000D03*
X187100000Y-118000000D03*
X187100000Y-53500000D03*
X187100000Y-38500000D03*
X187100000Y-62500000D03*
X187100000Y-52000000D03*
X187100000Y-106000000D03*
X187100000Y-112000000D03*
D20*
%TO.N,+3.3V*%
X107800000Y-68100000D03*
X113200000Y-81200000D03*
X113900000Y-112900000D03*
D19*
X93300000Y-106600000D03*
D20*
X117206446Y-75593004D03*
D19*
X110400000Y-121000000D03*
D20*
X109200000Y-72700000D03*
X106793554Y-81106996D03*
D19*
%TO.N,+24V*%
X124400000Y-111100000D03*
X124400000Y-60800000D03*
X124400000Y-71800000D03*
X124400000Y-49800000D03*
X124400000Y-100100000D03*
X124400000Y-89100000D03*
D20*
%TO.N,+5V*%
X107900000Y-60400000D03*
X109100000Y-50600000D03*
D19*
%TO.N,/Driver_49LED_RGB_1/G_49_Anode*%
X130700000Y-50500000D03*
X130700000Y-62500000D03*
X129000000Y-74600000D03*
X130700000Y-68500000D03*
X130700000Y-38500000D03*
X130700000Y-44500000D03*
X130700000Y-56500000D03*
X130700000Y-74500000D03*
%TO.N,/Driver_49LED_RGB_1/B_49_Anode*%
X130700000Y-47500000D03*
X130700000Y-59500000D03*
X130700000Y-65500000D03*
X130700000Y-71500000D03*
X129000000Y-63600000D03*
X130700000Y-53500000D03*
X130700000Y-77500000D03*
X130700000Y-41500000D03*
%TO.N,/Driver_49LED_RGB_1/R_49_Anode*%
X130700000Y-46000000D03*
X130700000Y-52000000D03*
X130700000Y-58000000D03*
X130700000Y-40000000D03*
X130700000Y-76000000D03*
X130700000Y-70000000D03*
X130700000Y-64000000D03*
X129100000Y-52600000D03*
%TO.N,/Driver_49LED_RGB_2/B_49_Anode*%
X130700000Y-107500000D03*
X130700000Y-101500000D03*
X130700000Y-95500000D03*
X130700000Y-83500000D03*
X129000000Y-102900000D03*
X130700000Y-113500000D03*
X130700000Y-89500000D03*
X130700000Y-119500000D03*
%TO.N,/Driver_49LED_RGB_2/G_49_Anode*%
X129000000Y-113900000D03*
X130700000Y-92500000D03*
X130700000Y-104500000D03*
X130700000Y-98500000D03*
X130700000Y-86500000D03*
X130700000Y-110500000D03*
X130700000Y-116500000D03*
X130700000Y-80500000D03*
%TO.N,/Driver_49LED_RGB_2/R_49_Anode*%
X130700000Y-82000000D03*
X130700000Y-112000000D03*
X130700000Y-88000000D03*
X130700000Y-118000000D03*
X130700000Y-100000000D03*
X130700000Y-106000000D03*
X129000000Y-91900000D03*
X130700000Y-94000000D03*
D20*
%TO.N,SWCLK*%
X106400000Y-75900000D03*
X114500000Y-88300000D03*
%TO.N,SWDIO*%
X114500000Y-87100000D03*
X110300000Y-75700000D03*
%TO.N,DMX_P*%
X111600000Y-47300000D03*
%TO.N,DMX_N*%
X110400000Y-47300000D03*
%TO.N,Ecr_SCL*%
X106673355Y-77957724D03*
%TO.N,Ecr_SDA*%
X106664660Y-78757678D03*
D19*
%TO.N,Net-(R104-Pad2)*%
X99757049Y-97757049D03*
D20*
%TO.N,BOUTTON_2*%
X114700000Y-72700000D03*
%TO.N,DMX_RX*%
X109100000Y-55700000D03*
X111700000Y-72700000D03*
%TO.N,LEDR2*%
X123300000Y-84600000D03*
X114800000Y-81300000D03*
%TO.N,LEDR1*%
X114700000Y-80100000D03*
X123335000Y-45365000D03*
%TO.N,LEDB1*%
X117800000Y-80500000D03*
X123300000Y-56400000D03*
%TO.N,LEDG1*%
X117800000Y-81500000D03*
X123365000Y-67365000D03*
%TO.N,LEDB2*%
X123200000Y-95600000D03*
X114400000Y-83800000D03*
%TO.N,LEDG2*%
X113608038Y-83913137D03*
X123300000Y-106600000D03*
%TD*%
D21*
%TO.N,GND*%
X124500000Y-104000000D02*
X114500000Y-104000000D01*
X117200000Y-93200000D02*
X119800000Y-90600000D01*
X117200000Y-97900000D02*
X112800000Y-102300000D01*
X110610648Y-80600000D02*
X109200000Y-80600000D01*
X119800000Y-90600000D02*
X119800000Y-90300000D01*
X117200000Y-93200000D02*
X117200000Y-97900000D01*
X115110648Y-76100000D02*
X110610648Y-80600000D01*
X114500000Y-104000000D02*
X112800000Y-102300000D01*
%TD*%
%TA.AperFunction,Conductor*%
%TO.N,GND*%
G36*
X191003032Y-36300648D02*
G01*
X191356532Y-36318015D01*
X191368640Y-36319208D01*
X191477576Y-36335367D01*
X191715717Y-36370692D01*
X191727635Y-36373062D01*
X192068008Y-36458321D01*
X192079646Y-36461852D01*
X192409996Y-36580054D01*
X192421237Y-36584710D01*
X192646857Y-36691419D01*
X192738433Y-36734731D01*
X192749150Y-36740459D01*
X193050102Y-36920843D01*
X193060220Y-36927603D01*
X193342049Y-37136622D01*
X193351455Y-37144342D01*
X193611436Y-37379974D01*
X193620025Y-37388563D01*
X193781782Y-37567035D01*
X193855657Y-37648544D01*
X193863377Y-37657950D01*
X194072396Y-37939779D01*
X194079156Y-37949897D01*
X194209995Y-38168189D01*
X194259533Y-38250837D01*
X194265270Y-38261570D01*
X194415289Y-38578762D01*
X194419945Y-38590003D01*
X194538147Y-38920353D01*
X194541680Y-38931998D01*
X194626934Y-39272351D01*
X194629308Y-39284287D01*
X194680791Y-39631359D01*
X194681984Y-39643468D01*
X194699351Y-39996966D01*
X194699500Y-40003051D01*
X194699500Y-117996948D01*
X194699351Y-118003033D01*
X194681984Y-118356531D01*
X194680791Y-118368640D01*
X194629308Y-118715712D01*
X194626934Y-118727648D01*
X194541680Y-119068001D01*
X194538147Y-119079646D01*
X194419945Y-119409996D01*
X194415289Y-119421237D01*
X194265270Y-119738429D01*
X194259533Y-119749162D01*
X194079156Y-120050102D01*
X194072396Y-120060220D01*
X193863377Y-120342049D01*
X193855657Y-120351455D01*
X193620033Y-120611428D01*
X193611428Y-120620033D01*
X193351455Y-120855657D01*
X193342049Y-120863377D01*
X193060220Y-121072396D01*
X193050102Y-121079156D01*
X192749162Y-121259533D01*
X192738429Y-121265270D01*
X192421237Y-121415289D01*
X192409996Y-121419945D01*
X192079646Y-121538147D01*
X192068001Y-121541680D01*
X191727648Y-121626934D01*
X191715712Y-121629308D01*
X191368640Y-121680791D01*
X191356531Y-121681984D01*
X191023016Y-121698369D01*
X191003031Y-121699351D01*
X190996949Y-121699500D01*
X110990519Y-121699500D01*
X110923480Y-121679815D01*
X110877725Y-121627011D01*
X110867781Y-121557853D01*
X110896806Y-121494297D01*
X110902838Y-121487819D01*
X110944111Y-121446545D01*
X110944114Y-121446542D01*
X111020775Y-121331811D01*
X111073580Y-121204328D01*
X111082389Y-121160041D01*
X111100500Y-121068995D01*
X111100500Y-120931004D01*
X111073581Y-120795677D01*
X111073580Y-120795676D01*
X111073580Y-120795672D01*
X111054785Y-120750296D01*
X111020778Y-120668195D01*
X111020771Y-120668182D01*
X110944114Y-120553458D01*
X110944111Y-120553454D01*
X110846545Y-120455888D01*
X110846541Y-120455885D01*
X110731817Y-120379228D01*
X110731804Y-120379221D01*
X110604332Y-120326421D01*
X110604322Y-120326418D01*
X110468995Y-120299500D01*
X110468993Y-120299500D01*
X110331007Y-120299500D01*
X110331005Y-120299500D01*
X110195677Y-120326418D01*
X110195667Y-120326421D01*
X110068195Y-120379221D01*
X110068182Y-120379228D01*
X109953458Y-120455885D01*
X109953454Y-120455888D01*
X109855888Y-120553454D01*
X109855885Y-120553458D01*
X109779228Y-120668182D01*
X109779221Y-120668195D01*
X109726421Y-120795667D01*
X109726418Y-120795677D01*
X109699500Y-120931004D01*
X109699500Y-120931007D01*
X109699500Y-121068993D01*
X109699500Y-121068995D01*
X109699499Y-121068995D01*
X109726418Y-121204322D01*
X109726421Y-121204332D01*
X109779221Y-121331804D01*
X109779228Y-121331817D01*
X109855885Y-121446541D01*
X109855888Y-121446545D01*
X109897162Y-121487819D01*
X109930647Y-121549142D01*
X109925663Y-121618834D01*
X109883791Y-121674767D01*
X109818327Y-121699184D01*
X109809481Y-121699500D01*
X90003051Y-121699500D01*
X89996968Y-121699351D01*
X89975811Y-121698311D01*
X89643468Y-121681984D01*
X89631359Y-121680791D01*
X89284287Y-121629308D01*
X89272351Y-121626934D01*
X88931998Y-121541680D01*
X88920353Y-121538147D01*
X88590003Y-121419945D01*
X88578762Y-121415289D01*
X88261570Y-121265270D01*
X88250842Y-121259535D01*
X87949897Y-121079156D01*
X87939779Y-121072396D01*
X87657950Y-120863377D01*
X87648544Y-120855657D01*
X87532295Y-120750296D01*
X87388563Y-120620025D01*
X87379974Y-120611436D01*
X87144342Y-120351455D01*
X87136622Y-120342049D01*
X86927601Y-120060217D01*
X86920843Y-120050102D01*
X86917252Y-120044111D01*
X86740459Y-119749150D01*
X86734729Y-119738429D01*
X86718602Y-119704332D01*
X86691419Y-119646857D01*
X86584710Y-119421237D01*
X86580054Y-119409996D01*
X86461852Y-119079646D01*
X86458319Y-119068001D01*
X86373062Y-118727635D01*
X86370691Y-118715712D01*
X86364441Y-118673580D01*
X86319208Y-118368640D01*
X86318015Y-118356530D01*
X86300649Y-118003032D01*
X86300500Y-117996948D01*
X86300500Y-116568995D01*
X129999499Y-116568995D01*
X130026418Y-116704322D01*
X130026421Y-116704332D01*
X130079221Y-116831804D01*
X130079228Y-116831817D01*
X130155885Y-116946541D01*
X130155888Y-116946545D01*
X130253454Y-117044111D01*
X130253458Y-117044114D01*
X130368182Y-117120771D01*
X130368186Y-117120773D01*
X130368189Y-117120775D01*
X130380114Y-117125714D01*
X130403590Y-117135439D01*
X130457994Y-117179280D01*
X130480058Y-117245575D01*
X130462778Y-117313274D01*
X130411641Y-117360884D01*
X130403590Y-117364561D01*
X130368192Y-117379223D01*
X130368182Y-117379228D01*
X130253458Y-117455885D01*
X130253454Y-117455888D01*
X130155888Y-117553454D01*
X130155885Y-117553458D01*
X130079228Y-117668182D01*
X130079221Y-117668195D01*
X130026421Y-117795667D01*
X130026418Y-117795677D01*
X129999500Y-117931004D01*
X129999500Y-117931007D01*
X129999500Y-118068993D01*
X129999500Y-118068995D01*
X129999499Y-118068995D01*
X130026418Y-118204322D01*
X130026421Y-118204332D01*
X130079221Y-118331804D01*
X130079228Y-118331817D01*
X130155885Y-118446541D01*
X130155888Y-118446545D01*
X130253454Y-118544111D01*
X130253458Y-118544114D01*
X130368182Y-118620771D01*
X130368186Y-118620773D01*
X130368189Y-118620775D01*
X130380114Y-118625714D01*
X130403590Y-118635439D01*
X130457994Y-118679280D01*
X130480058Y-118745575D01*
X130462778Y-118813274D01*
X130411641Y-118860884D01*
X130403590Y-118864561D01*
X130368192Y-118879223D01*
X130368182Y-118879228D01*
X130253458Y-118955885D01*
X130253454Y-118955888D01*
X130155888Y-119053454D01*
X130155885Y-119053458D01*
X130079228Y-119168182D01*
X130079221Y-119168195D01*
X130026421Y-119295667D01*
X130026418Y-119295677D01*
X129999500Y-119431004D01*
X129999500Y-119431007D01*
X129999500Y-119568993D01*
X129999500Y-119568995D01*
X129999499Y-119568995D01*
X130026418Y-119704322D01*
X130026421Y-119704332D01*
X130079221Y-119831804D01*
X130079228Y-119831817D01*
X130155885Y-119946541D01*
X130155888Y-119946545D01*
X130253454Y-120044111D01*
X130253458Y-120044114D01*
X130368182Y-120120771D01*
X130368195Y-120120778D01*
X130495667Y-120173578D01*
X130495672Y-120173580D01*
X130495676Y-120173580D01*
X130495677Y-120173581D01*
X130631004Y-120200500D01*
X130631007Y-120200500D01*
X130768995Y-120200500D01*
X130860041Y-120182389D01*
X130904328Y-120173580D01*
X131031811Y-120120775D01*
X131146542Y-120044114D01*
X131244114Y-119946542D01*
X131320775Y-119831811D01*
X131373580Y-119704328D01*
X131400500Y-119568993D01*
X131400500Y-119431007D01*
X131400500Y-119431004D01*
X131373581Y-119295677D01*
X131373580Y-119295676D01*
X131373580Y-119295672D01*
X131373578Y-119295667D01*
X131320778Y-119168195D01*
X131320771Y-119168182D01*
X131244114Y-119053458D01*
X131244111Y-119053454D01*
X131146545Y-118955888D01*
X131146541Y-118955885D01*
X131031817Y-118879228D01*
X131031804Y-118879221D01*
X130996410Y-118864561D01*
X130942006Y-118820720D01*
X130919941Y-118754426D01*
X130937220Y-118686727D01*
X130988357Y-118639116D01*
X130996410Y-118635439D01*
X131031804Y-118620778D01*
X131031804Y-118620777D01*
X131031811Y-118620775D01*
X131146542Y-118544114D01*
X131244114Y-118446542D01*
X131320775Y-118331811D01*
X131373580Y-118204328D01*
X131400500Y-118068993D01*
X131400500Y-117931007D01*
X131400500Y-117931004D01*
X131373581Y-117795677D01*
X131373580Y-117795676D01*
X131373580Y-117795672D01*
X131373578Y-117795667D01*
X131320778Y-117668195D01*
X131320771Y-117668182D01*
X131244114Y-117553458D01*
X131244111Y-117553454D01*
X131146545Y-117455888D01*
X131146541Y-117455885D01*
X131031817Y-117379228D01*
X131031804Y-117379221D01*
X130996410Y-117364561D01*
X130942006Y-117320720D01*
X130919941Y-117254426D01*
X130937220Y-117186727D01*
X130988357Y-117139116D01*
X130996410Y-117135439D01*
X131031804Y-117120778D01*
X131031804Y-117120777D01*
X131031811Y-117120775D01*
X131146542Y-117044114D01*
X131244114Y-116946542D01*
X131320775Y-116831811D01*
X131373580Y-116704328D01*
X131400500Y-116568993D01*
X131400500Y-116431007D01*
X131400500Y-116431004D01*
X131373581Y-116295677D01*
X131373580Y-116295676D01*
X131373580Y-116295672D01*
X131373578Y-116295667D01*
X131320778Y-116168195D01*
X131320771Y-116168182D01*
X131244114Y-116053458D01*
X131244111Y-116053454D01*
X131146545Y-115955888D01*
X131146541Y-115955885D01*
X131031817Y-115879228D01*
X131031804Y-115879221D01*
X130904332Y-115826421D01*
X130904322Y-115826418D01*
X130768995Y-115799500D01*
X130768993Y-115799500D01*
X130631007Y-115799500D01*
X130631005Y-115799500D01*
X130495677Y-115826418D01*
X130495667Y-115826421D01*
X130368195Y-115879221D01*
X130368182Y-115879228D01*
X130253458Y-115955885D01*
X130253454Y-115955888D01*
X130155888Y-116053454D01*
X130155885Y-116053458D01*
X130079228Y-116168182D01*
X130079221Y-116168195D01*
X130026421Y-116295667D01*
X130026418Y-116295677D01*
X129999500Y-116431004D01*
X129999500Y-116431007D01*
X129999500Y-116568993D01*
X129999500Y-116568995D01*
X129999499Y-116568995D01*
X86300500Y-116568995D01*
X86300500Y-112805513D01*
X95399500Y-112805513D01*
X95399500Y-112994486D01*
X95429059Y-113181118D01*
X95487454Y-113360836D01*
X95534646Y-113453454D01*
X95573240Y-113529199D01*
X95684310Y-113682073D01*
X95817927Y-113815690D01*
X95970801Y-113926760D01*
X96050347Y-113967290D01*
X96139163Y-114012545D01*
X96139165Y-114012545D01*
X96139168Y-114012547D01*
X96235497Y-114043846D01*
X96318881Y-114070940D01*
X96505514Y-114100500D01*
X96505519Y-114100500D01*
X96694486Y-114100500D01*
X96881118Y-114070940D01*
X97060832Y-114012547D01*
X97229199Y-113926760D01*
X97382073Y-113815690D01*
X97515690Y-113682073D01*
X97626760Y-113529199D01*
X97712547Y-113360832D01*
X97770940Y-113181118D01*
X97784867Y-113093186D01*
X97800500Y-112994486D01*
X97800500Y-112805513D01*
X101899500Y-112805513D01*
X101899500Y-112994486D01*
X101929059Y-113181118D01*
X101987454Y-113360836D01*
X102034646Y-113453454D01*
X102073240Y-113529199D01*
X102184310Y-113682073D01*
X102317927Y-113815690D01*
X102470801Y-113926760D01*
X102550347Y-113967290D01*
X102639163Y-114012545D01*
X102639165Y-114012545D01*
X102639168Y-114012547D01*
X102735497Y-114043846D01*
X102818881Y-114070940D01*
X103005514Y-114100500D01*
X103005519Y-114100500D01*
X103194486Y-114100500D01*
X103381118Y-114070940D01*
X103560832Y-114012547D01*
X103646308Y-113968995D01*
X128299499Y-113968995D01*
X128326418Y-114104322D01*
X128326421Y-114104332D01*
X128379221Y-114231804D01*
X128379228Y-114231817D01*
X128455885Y-114346541D01*
X128455888Y-114346545D01*
X128553454Y-114444111D01*
X128553458Y-114444114D01*
X128668182Y-114520771D01*
X128668195Y-114520778D01*
X128795667Y-114573578D01*
X128795672Y-114573580D01*
X128795676Y-114573580D01*
X128795677Y-114573581D01*
X128931004Y-114600500D01*
X128931007Y-114600500D01*
X129068995Y-114600500D01*
X129160041Y-114582389D01*
X129204328Y-114573580D01*
X129331811Y-114520775D01*
X129446542Y-114444114D01*
X129544114Y-114346542D01*
X129620775Y-114231811D01*
X129673580Y-114104328D01*
X129700500Y-113968993D01*
X129700500Y-113831007D01*
X129700500Y-113831004D01*
X129673581Y-113695677D01*
X129673580Y-113695676D01*
X129673580Y-113695672D01*
X129621109Y-113568995D01*
X129620778Y-113568195D01*
X129620771Y-113568182D01*
X129544114Y-113453458D01*
X129544111Y-113453454D01*
X129446545Y-113355888D01*
X129446541Y-113355885D01*
X129331817Y-113279228D01*
X129331804Y-113279221D01*
X129204332Y-113226421D01*
X129204322Y-113226418D01*
X129068995Y-113199500D01*
X129068993Y-113199500D01*
X128931007Y-113199500D01*
X128931005Y-113199500D01*
X128795677Y-113226418D01*
X128795667Y-113226421D01*
X128668195Y-113279221D01*
X128668182Y-113279228D01*
X128553458Y-113355885D01*
X128553454Y-113355888D01*
X128455888Y-113453454D01*
X128455885Y-113453458D01*
X128379228Y-113568182D01*
X128379221Y-113568195D01*
X128326421Y-113695667D01*
X128326418Y-113695677D01*
X128299500Y-113831004D01*
X128299500Y-113831007D01*
X128299500Y-113968993D01*
X128299500Y-113968995D01*
X128299499Y-113968995D01*
X103646308Y-113968995D01*
X103729199Y-113926760D01*
X103882073Y-113815690D01*
X104015690Y-113682073D01*
X104126760Y-113529199D01*
X104212547Y-113360832D01*
X104270940Y-113181118D01*
X104284867Y-113093186D01*
X104300500Y-112994486D01*
X104300500Y-112834108D01*
X113399500Y-112834108D01*
X113399500Y-112965891D01*
X113433608Y-113093187D01*
X113466554Y-113150250D01*
X113499500Y-113207314D01*
X113592686Y-113300500D01*
X113706814Y-113366392D01*
X113834108Y-113400500D01*
X113834110Y-113400500D01*
X113965890Y-113400500D01*
X113965892Y-113400500D01*
X114093186Y-113366392D01*
X114207314Y-113300500D01*
X114300500Y-113207314D01*
X114366392Y-113093186D01*
X114400500Y-112965892D01*
X114400500Y-112834108D01*
X114366392Y-112706814D01*
X114300500Y-112592686D01*
X114207314Y-112499500D01*
X114150250Y-112466554D01*
X114093187Y-112433608D01*
X114029539Y-112416554D01*
X113965892Y-112399500D01*
X113834108Y-112399500D01*
X113706812Y-112433608D01*
X113592686Y-112499500D01*
X113592683Y-112499502D01*
X113499502Y-112592683D01*
X113499500Y-112592686D01*
X113433608Y-112706812D01*
X113399500Y-112834108D01*
X104300500Y-112834108D01*
X104300500Y-112805513D01*
X104270940Y-112618881D01*
X104214943Y-112446542D01*
X104212547Y-112439168D01*
X104212545Y-112439165D01*
X104212545Y-112439163D01*
X104126759Y-112270800D01*
X104015690Y-112117927D01*
X103882073Y-111984310D01*
X103729199Y-111873240D01*
X103560836Y-111787454D01*
X103381118Y-111729059D01*
X103194486Y-111699500D01*
X103194481Y-111699500D01*
X103005519Y-111699500D01*
X103005514Y-111699500D01*
X102818881Y-111729059D01*
X102639163Y-111787454D01*
X102470800Y-111873240D01*
X102391296Y-111931004D01*
X102317927Y-111984310D01*
X102317925Y-111984312D01*
X102317924Y-111984312D01*
X102184312Y-112117924D01*
X102184312Y-112117925D01*
X102184310Y-112117927D01*
X102140958Y-112177596D01*
X102073240Y-112270800D01*
X101987454Y-112439163D01*
X101929059Y-112618881D01*
X101899500Y-112805513D01*
X97800500Y-112805513D01*
X97770940Y-112618881D01*
X97714943Y-112446542D01*
X97712547Y-112439168D01*
X97712545Y-112439165D01*
X97712545Y-112439163D01*
X97626759Y-112270800D01*
X97515690Y-112117927D01*
X97382073Y-111984310D01*
X97229199Y-111873240D01*
X97060836Y-111787454D01*
X96881118Y-111729059D01*
X96694486Y-111699500D01*
X96694481Y-111699500D01*
X96505519Y-111699500D01*
X96505514Y-111699500D01*
X96318881Y-111729059D01*
X96139163Y-111787454D01*
X95970800Y-111873240D01*
X95891296Y-111931004D01*
X95817927Y-111984310D01*
X95817925Y-111984312D01*
X95817924Y-111984312D01*
X95684312Y-112117924D01*
X95684312Y-112117925D01*
X95684310Y-112117927D01*
X95640958Y-112177596D01*
X95573240Y-112270800D01*
X95487454Y-112439163D01*
X95429059Y-112618881D01*
X95399500Y-112805513D01*
X86300500Y-112805513D01*
X86300500Y-111576530D01*
X87049500Y-111576530D01*
X87049500Y-111783469D01*
X87089868Y-111986412D01*
X87089870Y-111986420D01*
X87169059Y-112177598D01*
X87186922Y-112204332D01*
X87284024Y-112349657D01*
X87430342Y-112495975D01*
X87430345Y-112495977D01*
X87602402Y-112610941D01*
X87793580Y-112690130D01*
X87996530Y-112730499D01*
X87996534Y-112730500D01*
X87996535Y-112730500D01*
X88203466Y-112730500D01*
X88203467Y-112730499D01*
X88406420Y-112690130D01*
X88573850Y-112620778D01*
X88597596Y-112610942D01*
X88597596Y-112610941D01*
X88597598Y-112610941D01*
X88769655Y-112495977D01*
X88915977Y-112349655D01*
X89030941Y-112177598D01*
X89110130Y-111986420D01*
X89150500Y-111783465D01*
X89150500Y-111576535D01*
X89110130Y-111373580D01*
X89030941Y-111182402D01*
X89021983Y-111168995D01*
X123699499Y-111168995D01*
X123726418Y-111304322D01*
X123726421Y-111304332D01*
X123779221Y-111431804D01*
X123779228Y-111431817D01*
X123855885Y-111546541D01*
X123855888Y-111546545D01*
X123953454Y-111644111D01*
X123953458Y-111644114D01*
X124068182Y-111720771D01*
X124068195Y-111720778D01*
X124195667Y-111773578D01*
X124195672Y-111773580D01*
X124195676Y-111773580D01*
X124195677Y-111773581D01*
X124331004Y-111800500D01*
X124331007Y-111800500D01*
X124468995Y-111800500D01*
X124560041Y-111782389D01*
X124604328Y-111773580D01*
X124731811Y-111720775D01*
X124846542Y-111644114D01*
X124944114Y-111546542D01*
X125020775Y-111431811D01*
X125073580Y-111304328D01*
X125094233Y-111200500D01*
X125100500Y-111168995D01*
X125100500Y-111031004D01*
X125073581Y-110895677D01*
X125073580Y-110895676D01*
X125073580Y-110895672D01*
X125060471Y-110864023D01*
X125020778Y-110768195D01*
X125020771Y-110768182D01*
X124944114Y-110653458D01*
X124944111Y-110653454D01*
X124859652Y-110568995D01*
X129999499Y-110568995D01*
X130026418Y-110704322D01*
X130026421Y-110704332D01*
X130079221Y-110831804D01*
X130079228Y-110831817D01*
X130155885Y-110946541D01*
X130155888Y-110946545D01*
X130253454Y-111044111D01*
X130253458Y-111044114D01*
X130368182Y-111120771D01*
X130368186Y-111120773D01*
X130368189Y-111120775D01*
X130380114Y-111125714D01*
X130403590Y-111135439D01*
X130457994Y-111179280D01*
X130480058Y-111245575D01*
X130462778Y-111313274D01*
X130411641Y-111360884D01*
X130403590Y-111364561D01*
X130368192Y-111379223D01*
X130368182Y-111379228D01*
X130253458Y-111455885D01*
X130253454Y-111455888D01*
X130155888Y-111553454D01*
X130155885Y-111553458D01*
X130079228Y-111668182D01*
X130079221Y-111668195D01*
X130026421Y-111795667D01*
X130026418Y-111795677D01*
X129999500Y-111931004D01*
X129999500Y-111931007D01*
X129999500Y-112068993D01*
X129999500Y-112068995D01*
X129999499Y-112068995D01*
X130026418Y-112204322D01*
X130026421Y-112204332D01*
X130079221Y-112331804D01*
X130079228Y-112331817D01*
X130155885Y-112446541D01*
X130155888Y-112446545D01*
X130253454Y-112544111D01*
X130253458Y-112544114D01*
X130368182Y-112620771D01*
X130368186Y-112620773D01*
X130368189Y-112620775D01*
X130380114Y-112625714D01*
X130403590Y-112635439D01*
X130457994Y-112679280D01*
X130480058Y-112745575D01*
X130462778Y-112813274D01*
X130411641Y-112860884D01*
X130403590Y-112864561D01*
X130368192Y-112879223D01*
X130368182Y-112879228D01*
X130253458Y-112955885D01*
X130253454Y-112955888D01*
X130155888Y-113053454D01*
X130155885Y-113053458D01*
X130079228Y-113168182D01*
X130079221Y-113168195D01*
X130026421Y-113295667D01*
X130026418Y-113295677D01*
X129999500Y-113431004D01*
X129999500Y-113431007D01*
X129999500Y-113568993D01*
X129999500Y-113568995D01*
X129999499Y-113568995D01*
X130026418Y-113704322D01*
X130026421Y-113704332D01*
X130079221Y-113831804D01*
X130079228Y-113831817D01*
X130155885Y-113946541D01*
X130155888Y-113946545D01*
X130253454Y-114044111D01*
X130253458Y-114044114D01*
X130368182Y-114120771D01*
X130368195Y-114120778D01*
X130495667Y-114173578D01*
X130495672Y-114173580D01*
X130495676Y-114173580D01*
X130495677Y-114173581D01*
X130631004Y-114200500D01*
X130631007Y-114200500D01*
X130768995Y-114200500D01*
X130860041Y-114182389D01*
X130904328Y-114173580D01*
X131031811Y-114120775D01*
X131146542Y-114044114D01*
X131244114Y-113946542D01*
X131320775Y-113831811D01*
X131373580Y-113704328D01*
X131400500Y-113568993D01*
X131400500Y-113431007D01*
X131400500Y-113431004D01*
X131373581Y-113295677D01*
X131373580Y-113295676D01*
X131373580Y-113295672D01*
X131366769Y-113279228D01*
X131320778Y-113168195D01*
X131320771Y-113168182D01*
X131244114Y-113053458D01*
X131244111Y-113053454D01*
X131146545Y-112955888D01*
X131146541Y-112955885D01*
X131031817Y-112879228D01*
X131031804Y-112879221D01*
X130996410Y-112864561D01*
X130942006Y-112820720D01*
X130919941Y-112754426D01*
X130937220Y-112686727D01*
X130988357Y-112639116D01*
X130996410Y-112635439D01*
X131031804Y-112620778D01*
X131031804Y-112620777D01*
X131031811Y-112620775D01*
X131146542Y-112544114D01*
X131244114Y-112446542D01*
X131320775Y-112331811D01*
X131373580Y-112204328D01*
X131382389Y-112160041D01*
X131400500Y-112068995D01*
X131400500Y-111931004D01*
X131373581Y-111795677D01*
X131373580Y-111795676D01*
X131373580Y-111795672D01*
X131364429Y-111773580D01*
X131320778Y-111668195D01*
X131320771Y-111668182D01*
X131244114Y-111553458D01*
X131244111Y-111553454D01*
X131146545Y-111455888D01*
X131146541Y-111455885D01*
X131031817Y-111379228D01*
X131031804Y-111379221D01*
X130996410Y-111364561D01*
X130942006Y-111320720D01*
X130919941Y-111254426D01*
X130937220Y-111186727D01*
X130988357Y-111139116D01*
X130996410Y-111135439D01*
X131031804Y-111120778D01*
X131031804Y-111120777D01*
X131031811Y-111120775D01*
X131146542Y-111044114D01*
X131244114Y-110946542D01*
X131320775Y-110831811D01*
X131373580Y-110704328D01*
X131400500Y-110568993D01*
X131400500Y-110431007D01*
X131400500Y-110431004D01*
X131373581Y-110295677D01*
X131373580Y-110295676D01*
X131373580Y-110295672D01*
X131373578Y-110295667D01*
X131320778Y-110168195D01*
X131320771Y-110168182D01*
X131244114Y-110053458D01*
X131244111Y-110053454D01*
X131146545Y-109955888D01*
X131146541Y-109955885D01*
X131031817Y-109879228D01*
X131031804Y-109879221D01*
X130904332Y-109826421D01*
X130904322Y-109826418D01*
X130768995Y-109799500D01*
X130768993Y-109799500D01*
X130631007Y-109799500D01*
X130631005Y-109799500D01*
X130495677Y-109826418D01*
X130495667Y-109826421D01*
X130368195Y-109879221D01*
X130368182Y-109879228D01*
X130253458Y-109955885D01*
X130253454Y-109955888D01*
X130155888Y-110053454D01*
X130155885Y-110053458D01*
X130079228Y-110168182D01*
X130079221Y-110168195D01*
X130026421Y-110295667D01*
X130026418Y-110295677D01*
X129999500Y-110431004D01*
X129999500Y-110431007D01*
X129999500Y-110568993D01*
X129999500Y-110568995D01*
X129999499Y-110568995D01*
X124859652Y-110568995D01*
X124846545Y-110555888D01*
X124846541Y-110555885D01*
X124804834Y-110528017D01*
X124731817Y-110479228D01*
X124731804Y-110479221D01*
X124604332Y-110426421D01*
X124604322Y-110426418D01*
X124468995Y-110399500D01*
X124468993Y-110399500D01*
X124331007Y-110399500D01*
X124331005Y-110399500D01*
X124195677Y-110426418D01*
X124195667Y-110426421D01*
X124068195Y-110479221D01*
X124068182Y-110479228D01*
X123953458Y-110555885D01*
X123953454Y-110555888D01*
X123855888Y-110653454D01*
X123855885Y-110653458D01*
X123779228Y-110768182D01*
X123779221Y-110768195D01*
X123726421Y-110895667D01*
X123726418Y-110895677D01*
X123699500Y-111031004D01*
X123699500Y-111031007D01*
X123699500Y-111168993D01*
X123699500Y-111168995D01*
X123699499Y-111168995D01*
X89021983Y-111168995D01*
X88915977Y-111010345D01*
X88915975Y-111010342D01*
X88769657Y-110864024D01*
X88626228Y-110768189D01*
X88597598Y-110749059D01*
X88489608Y-110704328D01*
X88406420Y-110669870D01*
X88406412Y-110669868D01*
X88203469Y-110629500D01*
X88203465Y-110629500D01*
X87996535Y-110629500D01*
X87996530Y-110629500D01*
X87793587Y-110669868D01*
X87793579Y-110669870D01*
X87602403Y-110749058D01*
X87430342Y-110864024D01*
X87284024Y-111010342D01*
X87169058Y-111182403D01*
X87089870Y-111373579D01*
X87089868Y-111373587D01*
X87049500Y-111576530D01*
X86300500Y-111576530D01*
X86300500Y-109036530D01*
X87049500Y-109036530D01*
X87049500Y-109243469D01*
X87089868Y-109446412D01*
X87089870Y-109446420D01*
X87161306Y-109618882D01*
X87169059Y-109637598D01*
X87175035Y-109646542D01*
X87284024Y-109809657D01*
X87430342Y-109955975D01*
X87430345Y-109955977D01*
X87602402Y-110070941D01*
X87793580Y-110150130D01*
X87996530Y-110190499D01*
X87996534Y-110190500D01*
X87996535Y-110190500D01*
X88203466Y-110190500D01*
X88203467Y-110190499D01*
X88406420Y-110150130D01*
X88597598Y-110070941D01*
X88769655Y-109955977D01*
X88915977Y-109809655D01*
X89030941Y-109637598D01*
X89110130Y-109446420D01*
X89145422Y-109268995D01*
X92599499Y-109268995D01*
X92626418Y-109404322D01*
X92626421Y-109404332D01*
X92679221Y-109531804D01*
X92679228Y-109531817D01*
X92755885Y-109646541D01*
X92755888Y-109646545D01*
X92853454Y-109744111D01*
X92853458Y-109744114D01*
X92968182Y-109820771D01*
X92968195Y-109820778D01*
X93095667Y-109873578D01*
X93095672Y-109873580D01*
X93095676Y-109873580D01*
X93095677Y-109873581D01*
X93231004Y-109900500D01*
X93231007Y-109900500D01*
X93368995Y-109900500D01*
X93460041Y-109882389D01*
X93504328Y-109873580D01*
X93631811Y-109820775D01*
X93654652Y-109805513D01*
X95399500Y-109805513D01*
X95399500Y-109994486D01*
X95429059Y-110181118D01*
X95487454Y-110360836D01*
X95572638Y-110528017D01*
X95573240Y-110529199D01*
X95684310Y-110682073D01*
X95817927Y-110815690D01*
X95970801Y-110926760D01*
X96050347Y-110967290D01*
X96139163Y-111012545D01*
X96139165Y-111012545D01*
X96139168Y-111012547D01*
X96195982Y-111031007D01*
X96318881Y-111070940D01*
X96505514Y-111100500D01*
X96505519Y-111100500D01*
X96694486Y-111100500D01*
X96881118Y-111070940D01*
X97060832Y-111012547D01*
X97229199Y-110926760D01*
X97382073Y-110815690D01*
X97515690Y-110682073D01*
X97626760Y-110529199D01*
X97712547Y-110360832D01*
X97770940Y-110181118D01*
X97775848Y-110150129D01*
X97800500Y-109994486D01*
X97800500Y-109805513D01*
X101899500Y-109805513D01*
X101899500Y-109994486D01*
X101929059Y-110181118D01*
X101987454Y-110360836D01*
X102072638Y-110528017D01*
X102073240Y-110529199D01*
X102184310Y-110682073D01*
X102317927Y-110815690D01*
X102470801Y-110926760D01*
X102550347Y-110967290D01*
X102639163Y-111012545D01*
X102639165Y-111012545D01*
X102639168Y-111012547D01*
X102695982Y-111031007D01*
X102818881Y-111070940D01*
X103005514Y-111100500D01*
X103005519Y-111100500D01*
X103194486Y-111100500D01*
X103381118Y-111070940D01*
X103560832Y-111012547D01*
X103729199Y-110926760D01*
X103882073Y-110815690D01*
X104015690Y-110682073D01*
X104126760Y-110529199D01*
X104212547Y-110360832D01*
X104270940Y-110181118D01*
X104275848Y-110150129D01*
X104300500Y-109994486D01*
X104300500Y-109805513D01*
X104270940Y-109618881D01*
X104214903Y-109446420D01*
X104212547Y-109439168D01*
X104212545Y-109439165D01*
X104212545Y-109439163D01*
X104126759Y-109270800D01*
X104106902Y-109243469D01*
X104015690Y-109117927D01*
X103882073Y-108984310D01*
X103729199Y-108873240D01*
X103719272Y-108868182D01*
X103560836Y-108787454D01*
X103381118Y-108729059D01*
X103194486Y-108699500D01*
X103194481Y-108699500D01*
X103005519Y-108699500D01*
X103005514Y-108699500D01*
X102818881Y-108729059D01*
X102639163Y-108787454D01*
X102470800Y-108873240D01*
X102383579Y-108936610D01*
X102317927Y-108984310D01*
X102317925Y-108984312D01*
X102317924Y-108984312D01*
X102184312Y-109117924D01*
X102184312Y-109117925D01*
X102184310Y-109117927D01*
X102174809Y-109131004D01*
X102073240Y-109270800D01*
X101987454Y-109439163D01*
X101929059Y-109618881D01*
X101899500Y-109805513D01*
X97800500Y-109805513D01*
X97770940Y-109618881D01*
X97714903Y-109446420D01*
X97712547Y-109439168D01*
X97712545Y-109439165D01*
X97712545Y-109439163D01*
X97626759Y-109270800D01*
X97606902Y-109243469D01*
X97515690Y-109117927D01*
X97382073Y-108984310D01*
X97229199Y-108873240D01*
X97219272Y-108868182D01*
X97060836Y-108787454D01*
X96881118Y-108729059D01*
X96694486Y-108699500D01*
X96694481Y-108699500D01*
X96505519Y-108699500D01*
X96505514Y-108699500D01*
X96318881Y-108729059D01*
X96139163Y-108787454D01*
X95970800Y-108873240D01*
X95883579Y-108936610D01*
X95817927Y-108984310D01*
X95817925Y-108984312D01*
X95817924Y-108984312D01*
X95684312Y-109117924D01*
X95684312Y-109117925D01*
X95684310Y-109117927D01*
X95674809Y-109131004D01*
X95573240Y-109270800D01*
X95487454Y-109439163D01*
X95429059Y-109618881D01*
X95399500Y-109805513D01*
X93654652Y-109805513D01*
X93746542Y-109744114D01*
X93746545Y-109744111D01*
X93777691Y-109712966D01*
X93844111Y-109646545D01*
X93844114Y-109646542D01*
X93920775Y-109531811D01*
X93973580Y-109404328D01*
X93982389Y-109360041D01*
X94000500Y-109268995D01*
X94000500Y-109131004D01*
X93973581Y-108995677D01*
X93973580Y-108995676D01*
X93973580Y-108995672D01*
X93968874Y-108984310D01*
X93920778Y-108868195D01*
X93920771Y-108868182D01*
X93844114Y-108753458D01*
X93844111Y-108753454D01*
X93746545Y-108655888D01*
X93746541Y-108655885D01*
X93631817Y-108579228D01*
X93631804Y-108579221D01*
X93504332Y-108526421D01*
X93504322Y-108526418D01*
X93368995Y-108499500D01*
X93368993Y-108499500D01*
X93231007Y-108499500D01*
X93231005Y-108499500D01*
X93095677Y-108526418D01*
X93095667Y-108526421D01*
X92968195Y-108579221D01*
X92968182Y-108579228D01*
X92853458Y-108655885D01*
X92853454Y-108655888D01*
X92755888Y-108753454D01*
X92755885Y-108753458D01*
X92679228Y-108868182D01*
X92679221Y-108868195D01*
X92626421Y-108995667D01*
X92626418Y-108995677D01*
X92599500Y-109131004D01*
X92599500Y-109131007D01*
X92599500Y-109268993D01*
X92599500Y-109268995D01*
X92599499Y-109268995D01*
X89145422Y-109268995D01*
X89150500Y-109243465D01*
X89150500Y-109036535D01*
X89110130Y-108833580D01*
X89030941Y-108642402D01*
X88915977Y-108470345D01*
X88915975Y-108470342D01*
X88769657Y-108324024D01*
X88683626Y-108266541D01*
X88597598Y-108209059D01*
X88406420Y-108129870D01*
X88406412Y-108129868D01*
X88203469Y-108089500D01*
X88203465Y-108089500D01*
X87996535Y-108089500D01*
X87996530Y-108089500D01*
X87793587Y-108129868D01*
X87793579Y-108129870D01*
X87602403Y-108209058D01*
X87430342Y-108324024D01*
X87284024Y-108470342D01*
X87169058Y-108642403D01*
X87089870Y-108833579D01*
X87089868Y-108833587D01*
X87049500Y-109036530D01*
X86300500Y-109036530D01*
X86300500Y-106496530D01*
X87049500Y-106496530D01*
X87049500Y-106703469D01*
X87089868Y-106906412D01*
X87089870Y-106906420D01*
X87156132Y-107066391D01*
X87169059Y-107097598D01*
X87170998Y-107100500D01*
X87284024Y-107269657D01*
X87430342Y-107415975D01*
X87430345Y-107415977D01*
X87602402Y-107530941D01*
X87793580Y-107610130D01*
X87996530Y-107650499D01*
X87996534Y-107650500D01*
X87996535Y-107650500D01*
X88203466Y-107650500D01*
X88203467Y-107650499D01*
X88406420Y-107610130D01*
X88597598Y-107530941D01*
X88769655Y-107415977D01*
X88915977Y-107269655D01*
X89030941Y-107097598D01*
X89110130Y-106906420D01*
X89150500Y-106703465D01*
X89150500Y-106668995D01*
X92599499Y-106668995D01*
X92626418Y-106804322D01*
X92626421Y-106804332D01*
X92679221Y-106931804D01*
X92679228Y-106931817D01*
X92755885Y-107046541D01*
X92755888Y-107046545D01*
X92853454Y-107144111D01*
X92853458Y-107144114D01*
X92968182Y-107220771D01*
X92968195Y-107220778D01*
X93086196Y-107269655D01*
X93095672Y-107273580D01*
X93095676Y-107273580D01*
X93095677Y-107273581D01*
X93231004Y-107300500D01*
X93231007Y-107300500D01*
X93368995Y-107300500D01*
X93460041Y-107282389D01*
X93504328Y-107273580D01*
X93631811Y-107220775D01*
X93746542Y-107144114D01*
X93844114Y-107046542D01*
X93920775Y-106931811D01*
X93973580Y-106804328D01*
X93994233Y-106700500D01*
X94000500Y-106668995D01*
X94000500Y-106534108D01*
X122799500Y-106534108D01*
X122799500Y-106665892D01*
X122801560Y-106673580D01*
X122833608Y-106793187D01*
X122866554Y-106850250D01*
X122899500Y-106907314D01*
X122992686Y-107000500D01*
X123106814Y-107066392D01*
X123234108Y-107100500D01*
X123234110Y-107100500D01*
X123365890Y-107100500D01*
X123365892Y-107100500D01*
X123493186Y-107066392D01*
X123607314Y-107000500D01*
X123700500Y-106907314D01*
X123766392Y-106793186D01*
X123800500Y-106665892D01*
X123800500Y-106534108D01*
X123766392Y-106406814D01*
X123700500Y-106292686D01*
X123607314Y-106199500D01*
X123550250Y-106166554D01*
X123493187Y-106133608D01*
X123429539Y-106116554D01*
X123365892Y-106099500D01*
X123234108Y-106099500D01*
X123106812Y-106133608D01*
X122992686Y-106199500D01*
X122992683Y-106199502D01*
X122899502Y-106292683D01*
X122899500Y-106292686D01*
X122833608Y-106406812D01*
X122800332Y-106531004D01*
X122799500Y-106534108D01*
X94000500Y-106534108D01*
X94000500Y-106531004D01*
X93973581Y-106395677D01*
X93973580Y-106395676D01*
X93973580Y-106395672D01*
X93973578Y-106395667D01*
X93920778Y-106268195D01*
X93920771Y-106268182D01*
X93844114Y-106153458D01*
X93844111Y-106153454D01*
X93746545Y-106055888D01*
X93746541Y-106055885D01*
X93631817Y-105979228D01*
X93631804Y-105979221D01*
X93504332Y-105926421D01*
X93504322Y-105926418D01*
X93368995Y-105899500D01*
X93368993Y-105899500D01*
X93231007Y-105899500D01*
X93231005Y-105899500D01*
X93095677Y-105926418D01*
X93095667Y-105926421D01*
X92968195Y-105979221D01*
X92968182Y-105979228D01*
X92853458Y-106055885D01*
X92853454Y-106055888D01*
X92755888Y-106153454D01*
X92755885Y-106153458D01*
X92679228Y-106268182D01*
X92679221Y-106268195D01*
X92626421Y-106395667D01*
X92626418Y-106395677D01*
X92599500Y-106531004D01*
X92599500Y-106531007D01*
X92599500Y-106668993D01*
X92599500Y-106668995D01*
X92599499Y-106668995D01*
X89150500Y-106668995D01*
X89150500Y-106496535D01*
X89110130Y-106293580D01*
X89030941Y-106102402D01*
X88915977Y-105930345D01*
X88915975Y-105930342D01*
X88769657Y-105784024D01*
X88683626Y-105726541D01*
X88597598Y-105669059D01*
X88595512Y-105668195D01*
X88406420Y-105589870D01*
X88406412Y-105589868D01*
X88203469Y-105549500D01*
X88203465Y-105549500D01*
X87996535Y-105549500D01*
X87996530Y-105549500D01*
X87793587Y-105589868D01*
X87793579Y-105589870D01*
X87602403Y-105669058D01*
X87430342Y-105784024D01*
X87284024Y-105930342D01*
X87169058Y-106102403D01*
X87089870Y-106293579D01*
X87089868Y-106293587D01*
X87049500Y-106496530D01*
X86300500Y-106496530D01*
X86300500Y-104568995D01*
X129999499Y-104568995D01*
X130026418Y-104704322D01*
X130026421Y-104704332D01*
X130079221Y-104831804D01*
X130079228Y-104831817D01*
X130155885Y-104946541D01*
X130155888Y-104946545D01*
X130253454Y-105044111D01*
X130253458Y-105044114D01*
X130368182Y-105120771D01*
X130368186Y-105120773D01*
X130368189Y-105120775D01*
X130380114Y-105125714D01*
X130403590Y-105135439D01*
X130457994Y-105179280D01*
X130480058Y-105245575D01*
X130462778Y-105313274D01*
X130411641Y-105360884D01*
X130403590Y-105364561D01*
X130368192Y-105379223D01*
X130368182Y-105379228D01*
X130253458Y-105455885D01*
X130253454Y-105455888D01*
X130155888Y-105553454D01*
X130155885Y-105553458D01*
X130079228Y-105668182D01*
X130079221Y-105668195D01*
X130026421Y-105795667D01*
X130026418Y-105795677D01*
X129999500Y-105931004D01*
X129999500Y-105931007D01*
X129999500Y-106068993D01*
X129999500Y-106068995D01*
X129999499Y-106068995D01*
X130026418Y-106204322D01*
X130026421Y-106204332D01*
X130079221Y-106331804D01*
X130079228Y-106331817D01*
X130155885Y-106446541D01*
X130155888Y-106446545D01*
X130253454Y-106544111D01*
X130253458Y-106544114D01*
X130368182Y-106620771D01*
X130368186Y-106620773D01*
X130368189Y-106620775D01*
X130380114Y-106625714D01*
X130403590Y-106635439D01*
X130457994Y-106679280D01*
X130480058Y-106745575D01*
X130462778Y-106813274D01*
X130411641Y-106860884D01*
X130403590Y-106864561D01*
X130368192Y-106879223D01*
X130368182Y-106879228D01*
X130253458Y-106955885D01*
X130253454Y-106955888D01*
X130155888Y-107053454D01*
X130155885Y-107053458D01*
X130079228Y-107168182D01*
X130079221Y-107168195D01*
X130026421Y-107295667D01*
X130026418Y-107295677D01*
X129999500Y-107431004D01*
X129999500Y-107431007D01*
X129999500Y-107568993D01*
X129999500Y-107568995D01*
X129999499Y-107568995D01*
X130026418Y-107704322D01*
X130026421Y-107704332D01*
X130079221Y-107831804D01*
X130079228Y-107831817D01*
X130155885Y-107946541D01*
X130155888Y-107946545D01*
X130253454Y-108044111D01*
X130253458Y-108044114D01*
X130368182Y-108120771D01*
X130368195Y-108120778D01*
X130495667Y-108173578D01*
X130495672Y-108173580D01*
X130495676Y-108173580D01*
X130495677Y-108173581D01*
X130631004Y-108200500D01*
X130631007Y-108200500D01*
X130768995Y-108200500D01*
X130860041Y-108182389D01*
X130904328Y-108173580D01*
X131009854Y-108129870D01*
X131031804Y-108120778D01*
X131031804Y-108120777D01*
X131031811Y-108120775D01*
X131146542Y-108044114D01*
X131244114Y-107946542D01*
X131320775Y-107831811D01*
X131373580Y-107704328D01*
X131392317Y-107610131D01*
X131400500Y-107568995D01*
X131400500Y-107431004D01*
X131373581Y-107295677D01*
X131373580Y-107295676D01*
X131373580Y-107295672D01*
X131364429Y-107273580D01*
X131320778Y-107168195D01*
X131320771Y-107168182D01*
X131244114Y-107053458D01*
X131244111Y-107053454D01*
X131146545Y-106955888D01*
X131146541Y-106955885D01*
X131031817Y-106879228D01*
X131031804Y-106879221D01*
X130996410Y-106864561D01*
X130942006Y-106820720D01*
X130919941Y-106754426D01*
X130937220Y-106686727D01*
X130988357Y-106639116D01*
X130996410Y-106635439D01*
X131031804Y-106620778D01*
X131031804Y-106620777D01*
X131031811Y-106620775D01*
X131146542Y-106544114D01*
X131244114Y-106446542D01*
X131320775Y-106331811D01*
X131373580Y-106204328D01*
X131387647Y-106133608D01*
X131400500Y-106068995D01*
X131400500Y-105931004D01*
X131373581Y-105795677D01*
X131373580Y-105795676D01*
X131373580Y-105795672D01*
X131368755Y-105784023D01*
X131320778Y-105668195D01*
X131320771Y-105668182D01*
X131244114Y-105553458D01*
X131244111Y-105553454D01*
X131146545Y-105455888D01*
X131146541Y-105455885D01*
X131031817Y-105379228D01*
X131031804Y-105379221D01*
X130996410Y-105364561D01*
X130942006Y-105320720D01*
X130919941Y-105254426D01*
X130937220Y-105186727D01*
X130988357Y-105139116D01*
X130996410Y-105135439D01*
X131031804Y-105120778D01*
X131031804Y-105120777D01*
X131031811Y-105120775D01*
X131146542Y-105044114D01*
X131244114Y-104946542D01*
X131320775Y-104831811D01*
X131373580Y-104704328D01*
X131400500Y-104568993D01*
X131400500Y-104431007D01*
X131400500Y-104431004D01*
X131373581Y-104295677D01*
X131373580Y-104295676D01*
X131373580Y-104295672D01*
X131373578Y-104295667D01*
X131320778Y-104168195D01*
X131320771Y-104168182D01*
X131244114Y-104053458D01*
X131244111Y-104053454D01*
X131146545Y-103955888D01*
X131146541Y-103955885D01*
X131031817Y-103879228D01*
X131031804Y-103879221D01*
X130904332Y-103826421D01*
X130904322Y-103826418D01*
X130768995Y-103799500D01*
X130768993Y-103799500D01*
X130631007Y-103799500D01*
X130631005Y-103799500D01*
X130495677Y-103826418D01*
X130495667Y-103826421D01*
X130368195Y-103879221D01*
X130368182Y-103879228D01*
X130253458Y-103955885D01*
X130253454Y-103955888D01*
X130155888Y-104053454D01*
X130155885Y-104053458D01*
X130079228Y-104168182D01*
X130079221Y-104168195D01*
X130026421Y-104295667D01*
X130026418Y-104295677D01*
X129999500Y-104431004D01*
X129999500Y-104431007D01*
X129999500Y-104568993D01*
X129999500Y-104568995D01*
X129999499Y-104568995D01*
X86300500Y-104568995D01*
X86300500Y-102968995D01*
X128299499Y-102968995D01*
X128326418Y-103104322D01*
X128326421Y-103104332D01*
X128379221Y-103231804D01*
X128379228Y-103231817D01*
X128455885Y-103346541D01*
X128455888Y-103346545D01*
X128553454Y-103444111D01*
X128553458Y-103444114D01*
X128668182Y-103520771D01*
X128668195Y-103520778D01*
X128795667Y-103573578D01*
X128795672Y-103573580D01*
X128795676Y-103573580D01*
X128795677Y-103573581D01*
X128931004Y-103600500D01*
X128931007Y-103600500D01*
X129068995Y-103600500D01*
X129160041Y-103582389D01*
X129204328Y-103573580D01*
X129331811Y-103520775D01*
X129446542Y-103444114D01*
X129544114Y-103346542D01*
X129620775Y-103231811D01*
X129673580Y-103104328D01*
X129700500Y-102968993D01*
X129700500Y-102831007D01*
X129700500Y-102831004D01*
X129673581Y-102695677D01*
X129673580Y-102695676D01*
X129673580Y-102695672D01*
X129673578Y-102695667D01*
X129620778Y-102568195D01*
X129620771Y-102568182D01*
X129544114Y-102453458D01*
X129544111Y-102453454D01*
X129446545Y-102355888D01*
X129446541Y-102355885D01*
X129331817Y-102279228D01*
X129331804Y-102279221D01*
X129204332Y-102226421D01*
X129204322Y-102226418D01*
X129068995Y-102199500D01*
X129068993Y-102199500D01*
X128931007Y-102199500D01*
X128931005Y-102199500D01*
X128795677Y-102226418D01*
X128795667Y-102226421D01*
X128668195Y-102279221D01*
X128668182Y-102279228D01*
X128553458Y-102355885D01*
X128553454Y-102355888D01*
X128455888Y-102453454D01*
X128455885Y-102453458D01*
X128379228Y-102568182D01*
X128379221Y-102568195D01*
X128326421Y-102695667D01*
X128326418Y-102695677D01*
X128299500Y-102831004D01*
X128299500Y-102831007D01*
X128299500Y-102968993D01*
X128299500Y-102968995D01*
X128299499Y-102968995D01*
X86300500Y-102968995D01*
X86300500Y-100650247D01*
X87049500Y-100650247D01*
X87049500Y-102389752D01*
X87061131Y-102448229D01*
X87061132Y-102448230D01*
X87105447Y-102514552D01*
X87171769Y-102558867D01*
X87171770Y-102558868D01*
X87230247Y-102570499D01*
X87230250Y-102570500D01*
X87230252Y-102570500D01*
X88969750Y-102570500D01*
X88969751Y-102570499D01*
X88984568Y-102567552D01*
X89028229Y-102558868D01*
X89028229Y-102558867D01*
X89028231Y-102558867D01*
X89094552Y-102514552D01*
X89138867Y-102448231D01*
X89138867Y-102448229D01*
X89138868Y-102448229D01*
X89150499Y-102389752D01*
X89150500Y-102389750D01*
X89150500Y-101368995D01*
X91299499Y-101368995D01*
X91326418Y-101504322D01*
X91326421Y-101504332D01*
X91379221Y-101631804D01*
X91379228Y-101631817D01*
X91455885Y-101746541D01*
X91455888Y-101746545D01*
X91553454Y-101844111D01*
X91553458Y-101844114D01*
X91668182Y-101920771D01*
X91668195Y-101920778D01*
X91795667Y-101973578D01*
X91795672Y-101973580D01*
X91795676Y-101973580D01*
X91795677Y-101973581D01*
X91931004Y-102000500D01*
X91931007Y-102000500D01*
X92068995Y-102000500D01*
X92160041Y-101982389D01*
X92204328Y-101973580D01*
X92331811Y-101920775D01*
X92446542Y-101844114D01*
X92544114Y-101746542D01*
X92620775Y-101631811D01*
X92673580Y-101504328D01*
X92700500Y-101368993D01*
X92700500Y-101231007D01*
X92700500Y-101231004D01*
X92673581Y-101095677D01*
X92673580Y-101095676D01*
X92673580Y-101095672D01*
X92673578Y-101095667D01*
X92620778Y-100968195D01*
X92620771Y-100968182D01*
X92544114Y-100853458D01*
X92544111Y-100853454D01*
X92446545Y-100755888D01*
X92446541Y-100755885D01*
X92331817Y-100679228D01*
X92331804Y-100679221D01*
X92204332Y-100626421D01*
X92204322Y-100626418D01*
X92068995Y-100599500D01*
X92068993Y-100599500D01*
X91931007Y-100599500D01*
X91931005Y-100599500D01*
X91795677Y-100626418D01*
X91795667Y-100626421D01*
X91668195Y-100679221D01*
X91668182Y-100679228D01*
X91553458Y-100755885D01*
X91553454Y-100755888D01*
X91455888Y-100853454D01*
X91455885Y-100853458D01*
X91379228Y-100968182D01*
X91379221Y-100968195D01*
X91326421Y-101095667D01*
X91326418Y-101095677D01*
X91299500Y-101231004D01*
X91299500Y-101231007D01*
X91299500Y-101368993D01*
X91299500Y-101368995D01*
X91299499Y-101368995D01*
X89150500Y-101368995D01*
X89150500Y-100650249D01*
X89150499Y-100650247D01*
X89138868Y-100591770D01*
X89138867Y-100591769D01*
X89094552Y-100525447D01*
X89028230Y-100481132D01*
X89028229Y-100481131D01*
X88969752Y-100469500D01*
X88969748Y-100469500D01*
X87230252Y-100469500D01*
X87230247Y-100469500D01*
X87171770Y-100481131D01*
X87171769Y-100481132D01*
X87105447Y-100525447D01*
X87061132Y-100591769D01*
X87061131Y-100591770D01*
X87049500Y-100650247D01*
X86300500Y-100650247D01*
X86300500Y-100168995D01*
X123699499Y-100168995D01*
X123726418Y-100304322D01*
X123726421Y-100304332D01*
X123779221Y-100431804D01*
X123779228Y-100431817D01*
X123855885Y-100546541D01*
X123855888Y-100546545D01*
X123953454Y-100644111D01*
X123953458Y-100644114D01*
X124068182Y-100720771D01*
X124068195Y-100720778D01*
X124195667Y-100773578D01*
X124195672Y-100773580D01*
X124195676Y-100773580D01*
X124195677Y-100773581D01*
X124331004Y-100800500D01*
X124331007Y-100800500D01*
X124468995Y-100800500D01*
X124560041Y-100782389D01*
X124604328Y-100773580D01*
X124731811Y-100720775D01*
X124846542Y-100644114D01*
X124944114Y-100546542D01*
X125020775Y-100431811D01*
X125073580Y-100304328D01*
X125093471Y-100204332D01*
X125100500Y-100168995D01*
X125100500Y-100031004D01*
X125073581Y-99895677D01*
X125073580Y-99895676D01*
X125073580Y-99895672D01*
X125032157Y-99795667D01*
X125020778Y-99768195D01*
X125020771Y-99768182D01*
X124944114Y-99653458D01*
X124944111Y-99653454D01*
X124846545Y-99555888D01*
X124846541Y-99555885D01*
X124731817Y-99479228D01*
X124731804Y-99479221D01*
X124604332Y-99426421D01*
X124604322Y-99426418D01*
X124468995Y-99399500D01*
X124468993Y-99399500D01*
X124331007Y-99399500D01*
X124331005Y-99399500D01*
X124195677Y-99426418D01*
X124195667Y-99426421D01*
X124068195Y-99479221D01*
X124068182Y-99479228D01*
X123953458Y-99555885D01*
X123953454Y-99555888D01*
X123855888Y-99653454D01*
X123855885Y-99653458D01*
X123779228Y-99768182D01*
X123779221Y-99768195D01*
X123726421Y-99895667D01*
X123726418Y-99895677D01*
X123699500Y-100031004D01*
X123699500Y-100031007D01*
X123699500Y-100168993D01*
X123699500Y-100168995D01*
X123699499Y-100168995D01*
X86300500Y-100168995D01*
X86300500Y-97705513D01*
X95399500Y-97705513D01*
X95399500Y-97894486D01*
X95429059Y-98081118D01*
X95487454Y-98260836D01*
X95573239Y-98429197D01*
X95573240Y-98429199D01*
X95684310Y-98582073D01*
X95817927Y-98715690D01*
X95970801Y-98826760D01*
X96050347Y-98867290D01*
X96139163Y-98912545D01*
X96139165Y-98912545D01*
X96139168Y-98912547D01*
X96235497Y-98943846D01*
X96318881Y-98970940D01*
X96505514Y-99000500D01*
X96505519Y-99000500D01*
X96694486Y-99000500D01*
X96881118Y-98970940D01*
X97060832Y-98912547D01*
X97229199Y-98826760D01*
X97382073Y-98715690D01*
X97515690Y-98582073D01*
X97626760Y-98429199D01*
X97712547Y-98260832D01*
X97770940Y-98081118D01*
X97775321Y-98053458D01*
X97800500Y-97894486D01*
X97800500Y-97826044D01*
X99056548Y-97826044D01*
X99083467Y-97961371D01*
X99083470Y-97961381D01*
X99136270Y-98088853D01*
X99136277Y-98088866D01*
X99212934Y-98203590D01*
X99212937Y-98203594D01*
X99310503Y-98301160D01*
X99310507Y-98301163D01*
X99425231Y-98377820D01*
X99425244Y-98377827D01*
X99552716Y-98430627D01*
X99552721Y-98430629D01*
X99552725Y-98430629D01*
X99552726Y-98430630D01*
X99688053Y-98457549D01*
X99688056Y-98457549D01*
X99826044Y-98457549D01*
X99917090Y-98439438D01*
X99961377Y-98430629D01*
X100088860Y-98377824D01*
X100203591Y-98301163D01*
X100301163Y-98203591D01*
X100377824Y-98088860D01*
X100430629Y-97961377D01*
X100457474Y-97826420D01*
X100457549Y-97826044D01*
X100457549Y-97705513D01*
X101899500Y-97705513D01*
X101899500Y-97894486D01*
X101929059Y-98081118D01*
X101987454Y-98260836D01*
X102073239Y-98429197D01*
X102073240Y-98429199D01*
X102184310Y-98582073D01*
X102317927Y-98715690D01*
X102470801Y-98826760D01*
X102550347Y-98867290D01*
X102639163Y-98912545D01*
X102639165Y-98912545D01*
X102639168Y-98912547D01*
X102735497Y-98943846D01*
X102818881Y-98970940D01*
X103005514Y-99000500D01*
X103005519Y-99000500D01*
X103194486Y-99000500D01*
X103381118Y-98970940D01*
X103560832Y-98912547D01*
X103729199Y-98826760D01*
X103882073Y-98715690D01*
X104015690Y-98582073D01*
X104025192Y-98568995D01*
X129999499Y-98568995D01*
X130026418Y-98704322D01*
X130026421Y-98704332D01*
X130079221Y-98831804D01*
X130079228Y-98831817D01*
X130155885Y-98946541D01*
X130155888Y-98946545D01*
X130253454Y-99044111D01*
X130253458Y-99044114D01*
X130368182Y-99120771D01*
X130368186Y-99120773D01*
X130368189Y-99120775D01*
X130380114Y-99125714D01*
X130403590Y-99135439D01*
X130457994Y-99179280D01*
X130480058Y-99245575D01*
X130462778Y-99313274D01*
X130411641Y-99360884D01*
X130403590Y-99364561D01*
X130368192Y-99379223D01*
X130368182Y-99379228D01*
X130253458Y-99455885D01*
X130253454Y-99455888D01*
X130155888Y-99553454D01*
X130155885Y-99553458D01*
X130079228Y-99668182D01*
X130079221Y-99668195D01*
X130026421Y-99795667D01*
X130026418Y-99795677D01*
X129999500Y-99931004D01*
X129999500Y-99931007D01*
X129999500Y-100068993D01*
X129999500Y-100068995D01*
X129999499Y-100068995D01*
X130026418Y-100204322D01*
X130026421Y-100204332D01*
X130079221Y-100331804D01*
X130079228Y-100331817D01*
X130155885Y-100446541D01*
X130155888Y-100446545D01*
X130253454Y-100544111D01*
X130253458Y-100544114D01*
X130368182Y-100620771D01*
X130368186Y-100620773D01*
X130368189Y-100620775D01*
X130380114Y-100625714D01*
X130403590Y-100635439D01*
X130457994Y-100679280D01*
X130480058Y-100745575D01*
X130462778Y-100813274D01*
X130411641Y-100860884D01*
X130403590Y-100864561D01*
X130368192Y-100879223D01*
X130368182Y-100879228D01*
X130253458Y-100955885D01*
X130253454Y-100955888D01*
X130155888Y-101053454D01*
X130155885Y-101053458D01*
X130079228Y-101168182D01*
X130079221Y-101168195D01*
X130026421Y-101295667D01*
X130026418Y-101295677D01*
X129999500Y-101431004D01*
X129999500Y-101431007D01*
X129999500Y-101568993D01*
X129999500Y-101568995D01*
X129999499Y-101568995D01*
X130026418Y-101704322D01*
X130026421Y-101704332D01*
X130079221Y-101831804D01*
X130079228Y-101831817D01*
X130155885Y-101946541D01*
X130155888Y-101946545D01*
X130253454Y-102044111D01*
X130253458Y-102044114D01*
X130368182Y-102120771D01*
X130368195Y-102120778D01*
X130495667Y-102173578D01*
X130495672Y-102173580D01*
X130495676Y-102173580D01*
X130495677Y-102173581D01*
X130631004Y-102200500D01*
X130631007Y-102200500D01*
X130768995Y-102200500D01*
X130860041Y-102182389D01*
X130904328Y-102173580D01*
X131031811Y-102120775D01*
X131146542Y-102044114D01*
X131244114Y-101946542D01*
X131320775Y-101831811D01*
X131373580Y-101704328D01*
X131382389Y-101660041D01*
X131400500Y-101568995D01*
X131400500Y-101431004D01*
X131373581Y-101295677D01*
X131373580Y-101295676D01*
X131373580Y-101295672D01*
X131346794Y-101231004D01*
X131320778Y-101168195D01*
X131320771Y-101168182D01*
X131244114Y-101053458D01*
X131244111Y-101053454D01*
X131146545Y-100955888D01*
X131146541Y-100955885D01*
X131031817Y-100879228D01*
X131031804Y-100879221D01*
X130996410Y-100864561D01*
X130942006Y-100820720D01*
X130919941Y-100754426D01*
X130937220Y-100686727D01*
X130988357Y-100639116D01*
X130996410Y-100635439D01*
X131031804Y-100620778D01*
X131031804Y-100620777D01*
X131031811Y-100620775D01*
X131146542Y-100544114D01*
X131244114Y-100446542D01*
X131320775Y-100331811D01*
X131373580Y-100204328D01*
X131400500Y-100068993D01*
X131400500Y-99931007D01*
X131400500Y-99931004D01*
X131373581Y-99795677D01*
X131373580Y-99795676D01*
X131373580Y-99795672D01*
X131362193Y-99768182D01*
X131320778Y-99668195D01*
X131320771Y-99668182D01*
X131244114Y-99553458D01*
X131244111Y-99553454D01*
X131146545Y-99455888D01*
X131146541Y-99455885D01*
X131031817Y-99379228D01*
X131031804Y-99379221D01*
X130996410Y-99364561D01*
X130942006Y-99320720D01*
X130919941Y-99254426D01*
X130937220Y-99186727D01*
X130988357Y-99139116D01*
X130996410Y-99135439D01*
X131031804Y-99120778D01*
X131031804Y-99120777D01*
X131031811Y-99120775D01*
X131146542Y-99044114D01*
X131244114Y-98946542D01*
X131320775Y-98831811D01*
X131373580Y-98704328D01*
X131397898Y-98582074D01*
X131400500Y-98568995D01*
X131400500Y-98431004D01*
X131373581Y-98295677D01*
X131373580Y-98295676D01*
X131373580Y-98295672D01*
X131359149Y-98260832D01*
X131320778Y-98168195D01*
X131320771Y-98168182D01*
X131244114Y-98053458D01*
X131244111Y-98053454D01*
X131146545Y-97955888D01*
X131146541Y-97955885D01*
X131031817Y-97879228D01*
X131031804Y-97879221D01*
X130904332Y-97826421D01*
X130904322Y-97826418D01*
X130768995Y-97799500D01*
X130768993Y-97799500D01*
X130631007Y-97799500D01*
X130631005Y-97799500D01*
X130495677Y-97826418D01*
X130495667Y-97826421D01*
X130368195Y-97879221D01*
X130368182Y-97879228D01*
X130253458Y-97955885D01*
X130253454Y-97955888D01*
X130155888Y-98053454D01*
X130155885Y-98053458D01*
X130079228Y-98168182D01*
X130079221Y-98168195D01*
X130026421Y-98295667D01*
X130026418Y-98295677D01*
X129999500Y-98431004D01*
X129999500Y-98431007D01*
X129999500Y-98568993D01*
X129999500Y-98568995D01*
X129999499Y-98568995D01*
X104025192Y-98568995D01*
X104126760Y-98429199D01*
X104212547Y-98260832D01*
X104270940Y-98081118D01*
X104275321Y-98053458D01*
X104300500Y-97894486D01*
X104300500Y-97705513D01*
X104270940Y-97518881D01*
X104212545Y-97339163D01*
X104126759Y-97170800D01*
X104015690Y-97017927D01*
X103882073Y-96884310D01*
X103729199Y-96773240D01*
X103560836Y-96687454D01*
X103381118Y-96629059D01*
X103194486Y-96599500D01*
X103194481Y-96599500D01*
X103005519Y-96599500D01*
X103005514Y-96599500D01*
X102818881Y-96629059D01*
X102639163Y-96687454D01*
X102470800Y-96773240D01*
X102383579Y-96836610D01*
X102317927Y-96884310D01*
X102317925Y-96884312D01*
X102317924Y-96884312D01*
X102184312Y-97017924D01*
X102184312Y-97017925D01*
X102184310Y-97017927D01*
X102136692Y-97083467D01*
X102073240Y-97170800D01*
X101987454Y-97339163D01*
X101929059Y-97518881D01*
X101899500Y-97705513D01*
X100457549Y-97705513D01*
X100457549Y-97688053D01*
X100430630Y-97552726D01*
X100430629Y-97552725D01*
X100430629Y-97552721D01*
X100430627Y-97552716D01*
X100377827Y-97425244D01*
X100377820Y-97425231D01*
X100301163Y-97310507D01*
X100301160Y-97310503D01*
X100203594Y-97212937D01*
X100203590Y-97212934D01*
X100088866Y-97136277D01*
X100088853Y-97136270D01*
X99961381Y-97083470D01*
X99961371Y-97083467D01*
X99826044Y-97056549D01*
X99826042Y-97056549D01*
X99688056Y-97056549D01*
X99688054Y-97056549D01*
X99552726Y-97083467D01*
X99552716Y-97083470D01*
X99425244Y-97136270D01*
X99425231Y-97136277D01*
X99310507Y-97212934D01*
X99310503Y-97212937D01*
X99212937Y-97310503D01*
X99212934Y-97310507D01*
X99136277Y-97425231D01*
X99136270Y-97425244D01*
X99083470Y-97552716D01*
X99083467Y-97552726D01*
X99056549Y-97688053D01*
X99056549Y-97688056D01*
X99056549Y-97826042D01*
X99056549Y-97826044D01*
X99056548Y-97826044D01*
X97800500Y-97826044D01*
X97800500Y-97705514D01*
X97799843Y-97701368D01*
X97799843Y-97701366D01*
X97799842Y-97701362D01*
X97770940Y-97518881D01*
X97712545Y-97339163D01*
X97626759Y-97170800D01*
X97515690Y-97017927D01*
X97382073Y-96884310D01*
X97229199Y-96773240D01*
X97060836Y-96687454D01*
X96881118Y-96629059D01*
X96694486Y-96599500D01*
X96694481Y-96599500D01*
X96505519Y-96599500D01*
X96505514Y-96599500D01*
X96318881Y-96629059D01*
X96139163Y-96687454D01*
X95970800Y-96773240D01*
X95883579Y-96836610D01*
X95817927Y-96884310D01*
X95817925Y-96884312D01*
X95817924Y-96884312D01*
X95684312Y-97017924D01*
X95684312Y-97017925D01*
X95684310Y-97017927D01*
X95636692Y-97083467D01*
X95573240Y-97170800D01*
X95487454Y-97339163D01*
X95429059Y-97518881D01*
X95399500Y-97705513D01*
X86300500Y-97705513D01*
X86300500Y-95534108D01*
X122699500Y-95534108D01*
X122699500Y-95665891D01*
X122733608Y-95793187D01*
X122766554Y-95850250D01*
X122799500Y-95907314D01*
X122892686Y-96000500D01*
X123006814Y-96066392D01*
X123134108Y-96100500D01*
X123134110Y-96100500D01*
X123265890Y-96100500D01*
X123265892Y-96100500D01*
X123393186Y-96066392D01*
X123507314Y-96000500D01*
X123600500Y-95907314D01*
X123666392Y-95793186D01*
X123700500Y-95665892D01*
X123700500Y-95534108D01*
X123666392Y-95406814D01*
X123600500Y-95292686D01*
X123507314Y-95199500D01*
X123450250Y-95166554D01*
X123393187Y-95133608D01*
X123329539Y-95116554D01*
X123265892Y-95099500D01*
X123134108Y-95099500D01*
X123006812Y-95133608D01*
X122892686Y-95199500D01*
X122892683Y-95199502D01*
X122799502Y-95292683D01*
X122799500Y-95292686D01*
X122733608Y-95406812D01*
X122699500Y-95534108D01*
X86300500Y-95534108D01*
X86300500Y-91968995D01*
X128299499Y-91968995D01*
X128326418Y-92104322D01*
X128326421Y-92104332D01*
X128379221Y-92231804D01*
X128379228Y-92231817D01*
X128455885Y-92346541D01*
X128455888Y-92346545D01*
X128553454Y-92444111D01*
X128553458Y-92444114D01*
X128668182Y-92520771D01*
X128668195Y-92520778D01*
X128784598Y-92568993D01*
X128795672Y-92573580D01*
X128795676Y-92573580D01*
X128795677Y-92573581D01*
X128931004Y-92600500D01*
X128931007Y-92600500D01*
X129068995Y-92600500D01*
X129160041Y-92582389D01*
X129204328Y-92573580D01*
X129215397Y-92568995D01*
X129999499Y-92568995D01*
X130026418Y-92704322D01*
X130026421Y-92704332D01*
X130079221Y-92831804D01*
X130079228Y-92831817D01*
X130155885Y-92946541D01*
X130155888Y-92946545D01*
X130253454Y-93044111D01*
X130253458Y-93044114D01*
X130368182Y-93120771D01*
X130368186Y-93120773D01*
X130368189Y-93120775D01*
X130380114Y-93125714D01*
X130403590Y-93135439D01*
X130457994Y-93179280D01*
X130480058Y-93245575D01*
X130462778Y-93313274D01*
X130411641Y-93360884D01*
X130403590Y-93364561D01*
X130368192Y-93379223D01*
X130368182Y-93379228D01*
X130253458Y-93455885D01*
X130253454Y-93455888D01*
X130155888Y-93553454D01*
X130155885Y-93553458D01*
X130079228Y-93668182D01*
X130079221Y-93668195D01*
X130026421Y-93795667D01*
X130026418Y-93795677D01*
X129999500Y-93931004D01*
X129999500Y-93931007D01*
X129999500Y-94068993D01*
X129999500Y-94068995D01*
X129999499Y-94068995D01*
X130026418Y-94204322D01*
X130026421Y-94204332D01*
X130079221Y-94331804D01*
X130079228Y-94331817D01*
X130155885Y-94446541D01*
X130155888Y-94446545D01*
X130253454Y-94544111D01*
X130253458Y-94544114D01*
X130368182Y-94620771D01*
X130368186Y-94620773D01*
X130368189Y-94620775D01*
X130380114Y-94625714D01*
X130403590Y-94635439D01*
X130457994Y-94679280D01*
X130480058Y-94745575D01*
X130462778Y-94813274D01*
X130411641Y-94860884D01*
X130403590Y-94864561D01*
X130368192Y-94879223D01*
X130368182Y-94879228D01*
X130253458Y-94955885D01*
X130253454Y-94955888D01*
X130155888Y-95053454D01*
X130155885Y-95053458D01*
X130079228Y-95168182D01*
X130079221Y-95168195D01*
X130026421Y-95295667D01*
X130026418Y-95295677D01*
X129999500Y-95431004D01*
X129999500Y-95431007D01*
X129999500Y-95568993D01*
X129999500Y-95568995D01*
X129999499Y-95568995D01*
X130026418Y-95704322D01*
X130026421Y-95704332D01*
X130079221Y-95831804D01*
X130079228Y-95831817D01*
X130155885Y-95946541D01*
X130155888Y-95946545D01*
X130253454Y-96044111D01*
X130253458Y-96044114D01*
X130368182Y-96120771D01*
X130368195Y-96120778D01*
X130495667Y-96173578D01*
X130495672Y-96173580D01*
X130495676Y-96173580D01*
X130495677Y-96173581D01*
X130631004Y-96200500D01*
X130631007Y-96200500D01*
X130768995Y-96200500D01*
X130860041Y-96182389D01*
X130904328Y-96173580D01*
X131031811Y-96120775D01*
X131146542Y-96044114D01*
X131244114Y-95946542D01*
X131320775Y-95831811D01*
X131373580Y-95704328D01*
X131400500Y-95568993D01*
X131400500Y-95431007D01*
X131400500Y-95431004D01*
X131373581Y-95295677D01*
X131373580Y-95295676D01*
X131373580Y-95295672D01*
X131372342Y-95292683D01*
X131320778Y-95168195D01*
X131320771Y-95168182D01*
X131244114Y-95053458D01*
X131244111Y-95053454D01*
X131146545Y-94955888D01*
X131146541Y-94955885D01*
X131031817Y-94879228D01*
X131031804Y-94879221D01*
X130996410Y-94864561D01*
X130942006Y-94820720D01*
X130919941Y-94754426D01*
X130937220Y-94686727D01*
X130988357Y-94639116D01*
X130996410Y-94635439D01*
X131031804Y-94620778D01*
X131031804Y-94620777D01*
X131031811Y-94620775D01*
X131146542Y-94544114D01*
X131244114Y-94446542D01*
X131320775Y-94331811D01*
X131373580Y-94204328D01*
X131400500Y-94068993D01*
X131400500Y-93931007D01*
X131400500Y-93931004D01*
X131373581Y-93795677D01*
X131373580Y-93795676D01*
X131373580Y-93795672D01*
X131373578Y-93795667D01*
X131320778Y-93668195D01*
X131320771Y-93668182D01*
X131244114Y-93553458D01*
X131244111Y-93553454D01*
X131146545Y-93455888D01*
X131146541Y-93455885D01*
X131031817Y-93379228D01*
X131031804Y-93379221D01*
X130996410Y-93364561D01*
X130942006Y-93320720D01*
X130919941Y-93254426D01*
X130937220Y-93186727D01*
X130988357Y-93139116D01*
X130996410Y-93135439D01*
X131031804Y-93120778D01*
X131031804Y-93120777D01*
X131031811Y-93120775D01*
X131146542Y-93044114D01*
X131244114Y-92946542D01*
X131320775Y-92831811D01*
X131373580Y-92704328D01*
X131394233Y-92600500D01*
X131400500Y-92568995D01*
X131400500Y-92431004D01*
X131373581Y-92295677D01*
X131373580Y-92295676D01*
X131373580Y-92295672D01*
X131373578Y-92295667D01*
X131320778Y-92168195D01*
X131320771Y-92168182D01*
X131244114Y-92053458D01*
X131244111Y-92053454D01*
X131146545Y-91955888D01*
X131146541Y-91955885D01*
X131031817Y-91879228D01*
X131031804Y-91879221D01*
X130904332Y-91826421D01*
X130904322Y-91826418D01*
X130768995Y-91799500D01*
X130768993Y-91799500D01*
X130631007Y-91799500D01*
X130631005Y-91799500D01*
X130495677Y-91826418D01*
X130495667Y-91826421D01*
X130368195Y-91879221D01*
X130368182Y-91879228D01*
X130253458Y-91955885D01*
X130253454Y-91955888D01*
X130155888Y-92053454D01*
X130155885Y-92053458D01*
X130079228Y-92168182D01*
X130079221Y-92168195D01*
X130026421Y-92295667D01*
X130026418Y-92295677D01*
X129999500Y-92431004D01*
X129999500Y-92431007D01*
X129999500Y-92568993D01*
X129999500Y-92568995D01*
X129999499Y-92568995D01*
X129215397Y-92568995D01*
X129331811Y-92520775D01*
X129446542Y-92444114D01*
X129544114Y-92346542D01*
X129620775Y-92231811D01*
X129673580Y-92104328D01*
X129700500Y-91968993D01*
X129700500Y-91831007D01*
X129700500Y-91831004D01*
X129673581Y-91695677D01*
X129673580Y-91695676D01*
X129673580Y-91695672D01*
X129673578Y-91695667D01*
X129620778Y-91568195D01*
X129620771Y-91568182D01*
X129544114Y-91453458D01*
X129544111Y-91453454D01*
X129446545Y-91355888D01*
X129446541Y-91355885D01*
X129331817Y-91279228D01*
X129331804Y-91279221D01*
X129204332Y-91226421D01*
X129204322Y-91226418D01*
X129068995Y-91199500D01*
X129068993Y-91199500D01*
X128931007Y-91199500D01*
X128931005Y-91199500D01*
X128795677Y-91226418D01*
X128795667Y-91226421D01*
X128668195Y-91279221D01*
X128668182Y-91279228D01*
X128553458Y-91355885D01*
X128553454Y-91355888D01*
X128455888Y-91453454D01*
X128455885Y-91453458D01*
X128379228Y-91568182D01*
X128379221Y-91568195D01*
X128326421Y-91695667D01*
X128326418Y-91695677D01*
X128299500Y-91831004D01*
X128299500Y-91831007D01*
X128299500Y-91968993D01*
X128299500Y-91968995D01*
X128299499Y-91968995D01*
X86300500Y-91968995D01*
X86300500Y-89168995D01*
X123699499Y-89168995D01*
X123726418Y-89304322D01*
X123726421Y-89304332D01*
X123779221Y-89431804D01*
X123779228Y-89431817D01*
X123855885Y-89546541D01*
X123855888Y-89546545D01*
X123953454Y-89644111D01*
X123953458Y-89644114D01*
X124068182Y-89720771D01*
X124068195Y-89720778D01*
X124195667Y-89773578D01*
X124195672Y-89773580D01*
X124195676Y-89773580D01*
X124195677Y-89773581D01*
X124331004Y-89800500D01*
X124331007Y-89800500D01*
X124468995Y-89800500D01*
X124560041Y-89782389D01*
X124604328Y-89773580D01*
X124731811Y-89720775D01*
X124846542Y-89644114D01*
X124944114Y-89546542D01*
X125020775Y-89431811D01*
X125073580Y-89304328D01*
X125100500Y-89168993D01*
X125100500Y-89031007D01*
X125100500Y-89031004D01*
X125073581Y-88895677D01*
X125073580Y-88895676D01*
X125073580Y-88895672D01*
X125066769Y-88879228D01*
X125020778Y-88768195D01*
X125020771Y-88768182D01*
X124944114Y-88653458D01*
X124944111Y-88653454D01*
X124846545Y-88555888D01*
X124846541Y-88555885D01*
X124731817Y-88479228D01*
X124731804Y-88479221D01*
X124604332Y-88426421D01*
X124604322Y-88426418D01*
X124468995Y-88399500D01*
X124468993Y-88399500D01*
X124331007Y-88399500D01*
X124331005Y-88399500D01*
X124195677Y-88426418D01*
X124195667Y-88426421D01*
X124068195Y-88479221D01*
X124068182Y-88479228D01*
X123953458Y-88555885D01*
X123953454Y-88555888D01*
X123855888Y-88653454D01*
X123855885Y-88653458D01*
X123779228Y-88768182D01*
X123779221Y-88768195D01*
X123726421Y-88895667D01*
X123726418Y-88895677D01*
X123699500Y-89031004D01*
X123699500Y-89031007D01*
X123699500Y-89168993D01*
X123699500Y-89168995D01*
X123699499Y-89168995D01*
X86300500Y-89168995D01*
X86300500Y-86913389D01*
X88919500Y-86913389D01*
X88919500Y-87086610D01*
X88933274Y-87173580D01*
X88946598Y-87257701D01*
X89000127Y-87422445D01*
X89078768Y-87576788D01*
X89180586Y-87716928D01*
X89303072Y-87839414D01*
X89443212Y-87941232D01*
X89597555Y-88019873D01*
X89762299Y-88073402D01*
X89933389Y-88100500D01*
X89933390Y-88100500D01*
X90106610Y-88100500D01*
X90106611Y-88100500D01*
X90277701Y-88073402D01*
X90442445Y-88019873D01*
X90596788Y-87941232D01*
X90736928Y-87839414D01*
X90859414Y-87716928D01*
X90961232Y-87576788D01*
X91039873Y-87422445D01*
X91093402Y-87257701D01*
X91120500Y-87086611D01*
X91120500Y-87034108D01*
X113999500Y-87034108D01*
X113999500Y-87165891D01*
X114033608Y-87293187D01*
X114066554Y-87350250D01*
X114099500Y-87407314D01*
X114192686Y-87500500D01*
X114306814Y-87566392D01*
X114358441Y-87580225D01*
X114418102Y-87616590D01*
X114448631Y-87679437D01*
X114440336Y-87748812D01*
X114395851Y-87802690D01*
X114358442Y-87819774D01*
X114340666Y-87824537D01*
X114306812Y-87833608D01*
X114192686Y-87899500D01*
X114192683Y-87899502D01*
X114099502Y-87992683D01*
X114099500Y-87992686D01*
X114033608Y-88106812D01*
X113999500Y-88234108D01*
X113999500Y-88365891D01*
X114033608Y-88493187D01*
X114063010Y-88544111D01*
X114099500Y-88607314D01*
X114192686Y-88700500D01*
X114306814Y-88766392D01*
X114434108Y-88800500D01*
X114434110Y-88800500D01*
X114565890Y-88800500D01*
X114565892Y-88800500D01*
X114693186Y-88766392D01*
X114807314Y-88700500D01*
X114900500Y-88607314D01*
X114966392Y-88493186D01*
X115000500Y-88365892D01*
X115000500Y-88234108D01*
X114966392Y-88106814D01*
X114900500Y-87992686D01*
X114807314Y-87899500D01*
X114750250Y-87866554D01*
X114693187Y-87833608D01*
X114676259Y-87829072D01*
X114641556Y-87819774D01*
X114581897Y-87783410D01*
X114551368Y-87720564D01*
X114559662Y-87651188D01*
X114604147Y-87597310D01*
X114641555Y-87580226D01*
X114693186Y-87566392D01*
X114807314Y-87500500D01*
X114900500Y-87407314D01*
X114966392Y-87293186D01*
X115000500Y-87165892D01*
X115000500Y-87034108D01*
X114966392Y-86906814D01*
X114900500Y-86792686D01*
X114807314Y-86699500D01*
X114750250Y-86666554D01*
X114693187Y-86633608D01*
X114629539Y-86616554D01*
X114565892Y-86599500D01*
X114434108Y-86599500D01*
X114306812Y-86633608D01*
X114192686Y-86699500D01*
X114192683Y-86699502D01*
X114099502Y-86792683D01*
X114099500Y-86792686D01*
X114033608Y-86906812D01*
X113999500Y-87034108D01*
X91120500Y-87034108D01*
X91120500Y-86913389D01*
X91093402Y-86742299D01*
X91039873Y-86577555D01*
X91035512Y-86568995D01*
X129999499Y-86568995D01*
X130026418Y-86704322D01*
X130026421Y-86704332D01*
X130079221Y-86831804D01*
X130079228Y-86831817D01*
X130155885Y-86946541D01*
X130155888Y-86946545D01*
X130253454Y-87044111D01*
X130253458Y-87044114D01*
X130368182Y-87120771D01*
X130368186Y-87120773D01*
X130368189Y-87120775D01*
X130380114Y-87125714D01*
X130403590Y-87135439D01*
X130457994Y-87179280D01*
X130480058Y-87245575D01*
X130462778Y-87313274D01*
X130411641Y-87360884D01*
X130403590Y-87364561D01*
X130368192Y-87379223D01*
X130368182Y-87379228D01*
X130253458Y-87455885D01*
X130253454Y-87455888D01*
X130155888Y-87553454D01*
X130155885Y-87553458D01*
X130079228Y-87668182D01*
X130079221Y-87668195D01*
X130026421Y-87795667D01*
X130026418Y-87795677D01*
X129999500Y-87931004D01*
X129999500Y-87931007D01*
X129999500Y-88068993D01*
X129999500Y-88068995D01*
X129999499Y-88068995D01*
X130026418Y-88204322D01*
X130026421Y-88204332D01*
X130079221Y-88331804D01*
X130079228Y-88331817D01*
X130155885Y-88446541D01*
X130155888Y-88446545D01*
X130253454Y-88544111D01*
X130253458Y-88544114D01*
X130368182Y-88620771D01*
X130368186Y-88620773D01*
X130368189Y-88620775D01*
X130380114Y-88625714D01*
X130403590Y-88635439D01*
X130457994Y-88679280D01*
X130480058Y-88745575D01*
X130462778Y-88813274D01*
X130411641Y-88860884D01*
X130403590Y-88864561D01*
X130368192Y-88879223D01*
X130368182Y-88879228D01*
X130253458Y-88955885D01*
X130253454Y-88955888D01*
X130155888Y-89053454D01*
X130155885Y-89053458D01*
X130079228Y-89168182D01*
X130079221Y-89168195D01*
X130026421Y-89295667D01*
X130026418Y-89295677D01*
X129999500Y-89431004D01*
X129999500Y-89431007D01*
X129999500Y-89568993D01*
X129999500Y-89568995D01*
X129999499Y-89568995D01*
X130026418Y-89704322D01*
X130026421Y-89704332D01*
X130079221Y-89831804D01*
X130079228Y-89831817D01*
X130155885Y-89946541D01*
X130155888Y-89946545D01*
X130253454Y-90044111D01*
X130253458Y-90044114D01*
X130368182Y-90120771D01*
X130368195Y-90120778D01*
X130495667Y-90173578D01*
X130495672Y-90173580D01*
X130495676Y-90173580D01*
X130495677Y-90173581D01*
X130631004Y-90200500D01*
X130631007Y-90200500D01*
X130768995Y-90200500D01*
X130860041Y-90182389D01*
X130904328Y-90173580D01*
X131031811Y-90120775D01*
X131146542Y-90044114D01*
X131244114Y-89946542D01*
X131320775Y-89831811D01*
X131373580Y-89704328D01*
X131400500Y-89568993D01*
X131400500Y-89431007D01*
X131400500Y-89431004D01*
X131373581Y-89295677D01*
X131373580Y-89295676D01*
X131373580Y-89295672D01*
X131321109Y-89168995D01*
X131320778Y-89168195D01*
X131320771Y-89168182D01*
X131244114Y-89053458D01*
X131244111Y-89053454D01*
X131146545Y-88955888D01*
X131146541Y-88955885D01*
X131031817Y-88879228D01*
X131031804Y-88879221D01*
X130996410Y-88864561D01*
X130942006Y-88820720D01*
X130919941Y-88754426D01*
X130937220Y-88686727D01*
X130988357Y-88639116D01*
X130996410Y-88635439D01*
X131031804Y-88620778D01*
X131031804Y-88620777D01*
X131031811Y-88620775D01*
X131146542Y-88544114D01*
X131244114Y-88446542D01*
X131320775Y-88331811D01*
X131373580Y-88204328D01*
X131392977Y-88106814D01*
X131400500Y-88068995D01*
X131400500Y-87931004D01*
X131373581Y-87795677D01*
X131373580Y-87795676D01*
X131373580Y-87795672D01*
X131354170Y-87748812D01*
X131320778Y-87668195D01*
X131320771Y-87668182D01*
X131244114Y-87553458D01*
X131244111Y-87553454D01*
X131146545Y-87455888D01*
X131146541Y-87455885D01*
X131031817Y-87379228D01*
X131031804Y-87379221D01*
X130996410Y-87364561D01*
X130942006Y-87320720D01*
X130919941Y-87254426D01*
X130937220Y-87186727D01*
X130988357Y-87139116D01*
X130996410Y-87135439D01*
X131031804Y-87120778D01*
X131031804Y-87120777D01*
X131031811Y-87120775D01*
X131146542Y-87044114D01*
X131244114Y-86946542D01*
X131320775Y-86831811D01*
X131373580Y-86704328D01*
X131398797Y-86577555D01*
X131400500Y-86568995D01*
X131400500Y-86431004D01*
X131373581Y-86295677D01*
X131373580Y-86295676D01*
X131373580Y-86295672D01*
X131368360Y-86283069D01*
X131320778Y-86168195D01*
X131320771Y-86168182D01*
X131244114Y-86053458D01*
X131244111Y-86053454D01*
X131146545Y-85955888D01*
X131146541Y-85955885D01*
X131031817Y-85879228D01*
X131031804Y-85879221D01*
X130904332Y-85826421D01*
X130904322Y-85826418D01*
X130768995Y-85799500D01*
X130768993Y-85799500D01*
X130631007Y-85799500D01*
X130631005Y-85799500D01*
X130495677Y-85826418D01*
X130495667Y-85826421D01*
X130368195Y-85879221D01*
X130368182Y-85879228D01*
X130253458Y-85955885D01*
X130253454Y-85955888D01*
X130155888Y-86053454D01*
X130155885Y-86053458D01*
X130079228Y-86168182D01*
X130079221Y-86168195D01*
X130026421Y-86295667D01*
X130026418Y-86295677D01*
X129999500Y-86431004D01*
X129999500Y-86431007D01*
X129999500Y-86568993D01*
X129999500Y-86568995D01*
X129999499Y-86568995D01*
X91035512Y-86568995D01*
X90965204Y-86431007D01*
X90961233Y-86423213D01*
X90945937Y-86402160D01*
X90859414Y-86283072D01*
X90736928Y-86160586D01*
X90596788Y-86058768D01*
X90442445Y-85980127D01*
X90277701Y-85926598D01*
X90277699Y-85926597D01*
X90277698Y-85926597D01*
X90146271Y-85905781D01*
X90106611Y-85899500D01*
X89933389Y-85899500D01*
X89893728Y-85905781D01*
X89762302Y-85926597D01*
X89597552Y-85980128D01*
X89443211Y-86058768D01*
X89363256Y-86116859D01*
X89303072Y-86160586D01*
X89303070Y-86160588D01*
X89303069Y-86160588D01*
X89180588Y-86283069D01*
X89180588Y-86283070D01*
X89180586Y-86283072D01*
X89171432Y-86295672D01*
X89078768Y-86423211D01*
X89000128Y-86577552D01*
X88946597Y-86742302D01*
X88919500Y-86913389D01*
X86300500Y-86913389D01*
X86300500Y-83060097D01*
X101709500Y-83060097D01*
X101709500Y-83319902D01*
X101750140Y-83576493D01*
X101830422Y-83823576D01*
X101893079Y-83946545D01*
X101942793Y-84044114D01*
X101948368Y-84055054D01*
X102054040Y-84200499D01*
X102101069Y-84265229D01*
X102284771Y-84448931D01*
X102494949Y-84601634D01*
X102621058Y-84665890D01*
X102726423Y-84719577D01*
X102726425Y-84719577D01*
X102726428Y-84719579D01*
X102973507Y-84799860D01*
X103105706Y-84820797D01*
X103230098Y-84840500D01*
X103230103Y-84840500D01*
X103489902Y-84840500D01*
X103603298Y-84822539D01*
X103746493Y-84799860D01*
X103993572Y-84719579D01*
X104225051Y-84601634D01*
X104317993Y-84534108D01*
X122799500Y-84534108D01*
X122799500Y-84665891D01*
X122833608Y-84793187D01*
X122837461Y-84799860D01*
X122899500Y-84907314D01*
X122992686Y-85000500D01*
X123106814Y-85066392D01*
X123234108Y-85100500D01*
X123234110Y-85100500D01*
X123365890Y-85100500D01*
X123365892Y-85100500D01*
X123493186Y-85066392D01*
X123607314Y-85000500D01*
X123700500Y-84907314D01*
X123766392Y-84793186D01*
X123800500Y-84665892D01*
X123800500Y-84534108D01*
X123766392Y-84406814D01*
X123700500Y-84292686D01*
X123607314Y-84199500D01*
X123550250Y-84166554D01*
X123493187Y-84133608D01*
X123429539Y-84116554D01*
X123365892Y-84099500D01*
X123234108Y-84099500D01*
X123106812Y-84133608D01*
X122992686Y-84199500D01*
X122992683Y-84199502D01*
X122899502Y-84292683D01*
X122899500Y-84292686D01*
X122833608Y-84406812D01*
X122799500Y-84534108D01*
X104317993Y-84534108D01*
X104435229Y-84448931D01*
X104618931Y-84265229D01*
X104771634Y-84055051D01*
X104877517Y-83847245D01*
X113107538Y-83847245D01*
X113107538Y-83979029D01*
X113111332Y-83993187D01*
X113141646Y-84106324D01*
X113174592Y-84163387D01*
X113207538Y-84220451D01*
X113300724Y-84313637D01*
X113414852Y-84379529D01*
X113542146Y-84413637D01*
X113542148Y-84413637D01*
X113673928Y-84413637D01*
X113673930Y-84413637D01*
X113801224Y-84379529D01*
X113915352Y-84313637D01*
X113984709Y-84244279D01*
X114046028Y-84210797D01*
X114115720Y-84215781D01*
X114134381Y-84224572D01*
X114206814Y-84266392D01*
X114334108Y-84300500D01*
X114334110Y-84300500D01*
X114465890Y-84300500D01*
X114465892Y-84300500D01*
X114593186Y-84266392D01*
X114707314Y-84200500D01*
X114800500Y-84107314D01*
X114866392Y-83993186D01*
X114900500Y-83865892D01*
X114900500Y-83734108D01*
X114866392Y-83606814D01*
X114800500Y-83492686D01*
X114707314Y-83399500D01*
X114650250Y-83366554D01*
X114593187Y-83333608D01*
X114529539Y-83316554D01*
X114465892Y-83299500D01*
X114334108Y-83299500D01*
X114206812Y-83333608D01*
X114092686Y-83399500D01*
X114023331Y-83468855D01*
X113962007Y-83502339D01*
X113892316Y-83497354D01*
X113873650Y-83488560D01*
X113801226Y-83446746D01*
X113801225Y-83446745D01*
X113801224Y-83446745D01*
X113673930Y-83412637D01*
X113542146Y-83412637D01*
X113414850Y-83446745D01*
X113300724Y-83512637D01*
X113300721Y-83512639D01*
X113207540Y-83605820D01*
X113207538Y-83605823D01*
X113141646Y-83719949D01*
X113137852Y-83734110D01*
X113107538Y-83847245D01*
X104877517Y-83847245D01*
X104889579Y-83823572D01*
X104969860Y-83576493D01*
X104997892Y-83399502D01*
X105010500Y-83319902D01*
X105010500Y-83060097D01*
X104988947Y-82924021D01*
X104969860Y-82803507D01*
X104889579Y-82556428D01*
X104889577Y-82556425D01*
X104889577Y-82556423D01*
X104846787Y-82472445D01*
X104771634Y-82324949D01*
X104618931Y-82114771D01*
X104435229Y-81931069D01*
X104393150Y-81900497D01*
X104225054Y-81778368D01*
X104225053Y-81778367D01*
X104225051Y-81778366D01*
X104152764Y-81741534D01*
X103993576Y-81660422D01*
X103746493Y-81580140D01*
X103489902Y-81539500D01*
X103489897Y-81539500D01*
X103230103Y-81539500D01*
X103230098Y-81539500D01*
X102973506Y-81580140D01*
X102726423Y-81660422D01*
X102494945Y-81778368D01*
X102284774Y-81931066D01*
X102284768Y-81931071D01*
X102101071Y-82114768D01*
X102101066Y-82114774D01*
X101948368Y-82324945D01*
X101830422Y-82556423D01*
X101750140Y-82803506D01*
X101709500Y-83060097D01*
X86300500Y-83060097D01*
X86300500Y-79293389D01*
X93999500Y-79293389D01*
X93999500Y-79466610D01*
X94025949Y-79633608D01*
X94026598Y-79637701D01*
X94080127Y-79802445D01*
X94158768Y-79956788D01*
X94260586Y-80096928D01*
X94383072Y-80219414D01*
X94523212Y-80321232D01*
X94677555Y-80399873D01*
X94842299Y-80453402D01*
X95013389Y-80480500D01*
X95013390Y-80480500D01*
X95186610Y-80480500D01*
X95186611Y-80480500D01*
X95357701Y-80453402D01*
X95522445Y-80399873D01*
X95676788Y-80321232D01*
X95816928Y-80219414D01*
X95939414Y-80096928D01*
X96041232Y-79956788D01*
X96119873Y-79802445D01*
X96173402Y-79637701D01*
X96200500Y-79466611D01*
X96200500Y-79293389D01*
X96194490Y-79255441D01*
X97644500Y-79255441D01*
X97644500Y-79504558D01*
X97644501Y-79504575D01*
X97670163Y-79699502D01*
X97677018Y-79751565D01*
X97711225Y-79879228D01*
X97741498Y-79992207D01*
X97836830Y-80222361D01*
X97836837Y-80222376D01*
X97961400Y-80438126D01*
X98113060Y-80635774D01*
X98113066Y-80635781D01*
X98289218Y-80811933D01*
X98289225Y-80811939D01*
X98486873Y-80963599D01*
X98702623Y-81088162D01*
X98702638Y-81088169D01*
X98781347Y-81120771D01*
X98932793Y-81183502D01*
X99173435Y-81247982D01*
X99420435Y-81280500D01*
X99420442Y-81280500D01*
X99669558Y-81280500D01*
X99669565Y-81280500D01*
X99916565Y-81247982D01*
X100157207Y-81183502D01*
X100387373Y-81088164D01*
X100468884Y-81041104D01*
X106293054Y-81041104D01*
X106293054Y-81172888D01*
X106294767Y-81179280D01*
X106327162Y-81300183D01*
X106360108Y-81357246D01*
X106393054Y-81414310D01*
X106486240Y-81507496D01*
X106600368Y-81573388D01*
X106727662Y-81607496D01*
X106727664Y-81607496D01*
X106859444Y-81607496D01*
X106859446Y-81607496D01*
X106986740Y-81573388D01*
X107100868Y-81507496D01*
X107194054Y-81414310D01*
X107259946Y-81300182D01*
X107294054Y-81172888D01*
X107294054Y-81134108D01*
X112699500Y-81134108D01*
X112699500Y-81265891D01*
X112733608Y-81393187D01*
X112766554Y-81450250D01*
X112799500Y-81507314D01*
X112892686Y-81600500D01*
X113006814Y-81666392D01*
X113134108Y-81700500D01*
X113134110Y-81700500D01*
X113265890Y-81700500D01*
X113265892Y-81700500D01*
X113393186Y-81666392D01*
X113507314Y-81600500D01*
X113600500Y-81507314D01*
X113666392Y-81393186D01*
X113700500Y-81265892D01*
X113700500Y-81134108D01*
X113666392Y-81006814D01*
X113600500Y-80892686D01*
X113507314Y-80799500D01*
X113442724Y-80762209D01*
X113393187Y-80733608D01*
X113292009Y-80706498D01*
X113265892Y-80699500D01*
X113134108Y-80699500D01*
X113006812Y-80733608D01*
X112892686Y-80799500D01*
X112892683Y-80799502D01*
X112799502Y-80892683D01*
X112799500Y-80892686D01*
X112733608Y-81006812D01*
X112699500Y-81134108D01*
X107294054Y-81134108D01*
X107294054Y-81041104D01*
X107259946Y-80913810D01*
X107255579Y-80906247D01*
X107247748Y-80892683D01*
X107194054Y-80799682D01*
X107100868Y-80706496D01*
X107043804Y-80673550D01*
X106986741Y-80640604D01*
X106923093Y-80623550D01*
X106859446Y-80606496D01*
X106727662Y-80606496D01*
X106600366Y-80640604D01*
X106486240Y-80706496D01*
X106486237Y-80706498D01*
X106393056Y-80799679D01*
X106393054Y-80799682D01*
X106327162Y-80913808D01*
X106293054Y-81041104D01*
X100468884Y-81041104D01*
X100588228Y-80972201D01*
X100603122Y-80963602D01*
X100603122Y-80963601D01*
X100603127Y-80963599D01*
X100800776Y-80811938D01*
X100976938Y-80635776D01*
X101128599Y-80438127D01*
X101253164Y-80222373D01*
X101331146Y-80034108D01*
X114199500Y-80034108D01*
X114199500Y-80165892D01*
X114213840Y-80219411D01*
X114233608Y-80293187D01*
X114235040Y-80295667D01*
X114299500Y-80407314D01*
X114392686Y-80500500D01*
X114491521Y-80557563D01*
X114505944Y-80565890D01*
X114506814Y-80566392D01*
X114608442Y-80593623D01*
X114668102Y-80629987D01*
X114698631Y-80692834D01*
X114690337Y-80762209D01*
X114645851Y-80816087D01*
X114614314Y-80830490D01*
X114614318Y-80830500D01*
X114614061Y-80830606D01*
X114608447Y-80833170D01*
X114607873Y-80833324D01*
X114606812Y-80833608D01*
X114492686Y-80899500D01*
X114492683Y-80899502D01*
X114399502Y-80992683D01*
X114399500Y-80992686D01*
X114333608Y-81106812D01*
X114310600Y-81192683D01*
X114299500Y-81234108D01*
X114299500Y-81365892D01*
X114312474Y-81414312D01*
X114333608Y-81493187D01*
X114360347Y-81539500D01*
X114399500Y-81607314D01*
X114492686Y-81700500D01*
X114606814Y-81766392D01*
X114734108Y-81800500D01*
X114734110Y-81800500D01*
X114865890Y-81800500D01*
X114865892Y-81800500D01*
X114993186Y-81766392D01*
X115107314Y-81700500D01*
X115200500Y-81607314D01*
X115266392Y-81493186D01*
X115300500Y-81365892D01*
X115300500Y-81234108D01*
X115266392Y-81106814D01*
X115200500Y-80992686D01*
X115107314Y-80899500D01*
X114993186Y-80833608D01*
X114891556Y-80806376D01*
X114831897Y-80770012D01*
X114801368Y-80707165D01*
X114809663Y-80637789D01*
X114854148Y-80583911D01*
X114885686Y-80569509D01*
X114885682Y-80569500D01*
X114885957Y-80569385D01*
X114891559Y-80566827D01*
X114893186Y-80566392D01*
X115007314Y-80500500D01*
X115073706Y-80434108D01*
X117299500Y-80434108D01*
X117299500Y-80565892D01*
X117300436Y-80569385D01*
X117333608Y-80693187D01*
X117356946Y-80733608D01*
X117399500Y-80807314D01*
X117399502Y-80807316D01*
X117492687Y-80900501D01*
X117494158Y-80901630D01*
X117495083Y-80902897D01*
X117498433Y-80906247D01*
X117497910Y-80906769D01*
X117535356Y-80958060D01*
X117539506Y-81027807D01*
X117505289Y-81088725D01*
X117494158Y-81098370D01*
X117492687Y-81099498D01*
X117399502Y-81192683D01*
X117399500Y-81192686D01*
X117333608Y-81306812D01*
X117304805Y-81414309D01*
X117299500Y-81434108D01*
X117299500Y-81565892D01*
X117310647Y-81607495D01*
X117333608Y-81693187D01*
X117366554Y-81750250D01*
X117399500Y-81807314D01*
X117492686Y-81900500D01*
X117606814Y-81966392D01*
X117734108Y-82000500D01*
X117734110Y-82000500D01*
X117865890Y-82000500D01*
X117865892Y-82000500D01*
X117993186Y-81966392D01*
X118107314Y-81900500D01*
X118200500Y-81807314D01*
X118266392Y-81693186D01*
X118300500Y-81565892D01*
X118300500Y-81434108D01*
X118266392Y-81306814D01*
X118200500Y-81192686D01*
X118107314Y-81099500D01*
X118107311Y-81099498D01*
X118105847Y-81098375D01*
X118104921Y-81097107D01*
X118101567Y-81093753D01*
X118102090Y-81093229D01*
X118064645Y-81041947D01*
X118060491Y-80972201D01*
X118094704Y-80911281D01*
X118105847Y-80901625D01*
X118107306Y-80900504D01*
X118107314Y-80900500D01*
X118200500Y-80807314D01*
X118266392Y-80693186D01*
X118299669Y-80568995D01*
X129999499Y-80568995D01*
X130026418Y-80704322D01*
X130026421Y-80704332D01*
X130079221Y-80831804D01*
X130079228Y-80831817D01*
X130155885Y-80946541D01*
X130155888Y-80946545D01*
X130253454Y-81044111D01*
X130253458Y-81044114D01*
X130368182Y-81120771D01*
X130368186Y-81120773D01*
X130368189Y-81120775D01*
X130380114Y-81125714D01*
X130403590Y-81135439D01*
X130457994Y-81179280D01*
X130480058Y-81245575D01*
X130462778Y-81313274D01*
X130411641Y-81360884D01*
X130403590Y-81364561D01*
X130368192Y-81379223D01*
X130368182Y-81379228D01*
X130253458Y-81455885D01*
X130253454Y-81455888D01*
X130155888Y-81553454D01*
X130155885Y-81553458D01*
X130079228Y-81668182D01*
X130079221Y-81668195D01*
X130026421Y-81795667D01*
X130026418Y-81795677D01*
X129999500Y-81931004D01*
X129999500Y-81931007D01*
X129999500Y-82068993D01*
X129999500Y-82068995D01*
X129999499Y-82068995D01*
X130026418Y-82204322D01*
X130026421Y-82204332D01*
X130079221Y-82331804D01*
X130079228Y-82331817D01*
X130155885Y-82446541D01*
X130155888Y-82446545D01*
X130253454Y-82544111D01*
X130253458Y-82544114D01*
X130368182Y-82620771D01*
X130368186Y-82620773D01*
X130368189Y-82620775D01*
X130380114Y-82625714D01*
X130403590Y-82635439D01*
X130457994Y-82679280D01*
X130480058Y-82745575D01*
X130462778Y-82813274D01*
X130411641Y-82860884D01*
X130403590Y-82864561D01*
X130368192Y-82879223D01*
X130368182Y-82879228D01*
X130253458Y-82955885D01*
X130253454Y-82955888D01*
X130155888Y-83053454D01*
X130155885Y-83053458D01*
X130079228Y-83168182D01*
X130079221Y-83168195D01*
X130026421Y-83295667D01*
X130026418Y-83295677D01*
X129999500Y-83431004D01*
X129999500Y-83431007D01*
X129999500Y-83568993D01*
X129999500Y-83568995D01*
X129999499Y-83568995D01*
X130026418Y-83704322D01*
X130026421Y-83704332D01*
X130079221Y-83831804D01*
X130079228Y-83831817D01*
X130155885Y-83946541D01*
X130155888Y-83946545D01*
X130253454Y-84044111D01*
X130253458Y-84044114D01*
X130368182Y-84120771D01*
X130368195Y-84120778D01*
X130495667Y-84173578D01*
X130495672Y-84173580D01*
X130495676Y-84173580D01*
X130495677Y-84173581D01*
X130631004Y-84200500D01*
X130631007Y-84200500D01*
X130768995Y-84200500D01*
X130860041Y-84182389D01*
X130904328Y-84173580D01*
X131031811Y-84120775D01*
X131146542Y-84044114D01*
X131244114Y-83946542D01*
X131320775Y-83831811D01*
X131373580Y-83704328D01*
X131392977Y-83606814D01*
X131400500Y-83568995D01*
X131400500Y-83431004D01*
X131373581Y-83295677D01*
X131373580Y-83295676D01*
X131373580Y-83295672D01*
X131373578Y-83295667D01*
X131320778Y-83168195D01*
X131320771Y-83168182D01*
X131244114Y-83053458D01*
X131244111Y-83053454D01*
X131146545Y-82955888D01*
X131146541Y-82955885D01*
X131031817Y-82879228D01*
X131031804Y-82879221D01*
X130996410Y-82864561D01*
X130942006Y-82820720D01*
X130919941Y-82754426D01*
X130937220Y-82686727D01*
X130988357Y-82639116D01*
X130996410Y-82635439D01*
X131031804Y-82620778D01*
X131031804Y-82620777D01*
X131031811Y-82620775D01*
X131146542Y-82544114D01*
X131244114Y-82446542D01*
X131320775Y-82331811D01*
X131373580Y-82204328D01*
X131400500Y-82068993D01*
X131400500Y-81931007D01*
X131400500Y-81931004D01*
X131373581Y-81795677D01*
X131373580Y-81795676D01*
X131373580Y-81795672D01*
X131373578Y-81795667D01*
X131320778Y-81668195D01*
X131320771Y-81668182D01*
X131244114Y-81553458D01*
X131244111Y-81553454D01*
X131146545Y-81455888D01*
X131146541Y-81455885D01*
X131031817Y-81379228D01*
X131031804Y-81379221D01*
X130996410Y-81364561D01*
X130942006Y-81320720D01*
X130919941Y-81254426D01*
X130937220Y-81186727D01*
X130988357Y-81139116D01*
X130996410Y-81135439D01*
X131031804Y-81120778D01*
X131031804Y-81120777D01*
X131031811Y-81120775D01*
X131146542Y-81044114D01*
X131244114Y-80946542D01*
X131320775Y-80831811D01*
X131373580Y-80704328D01*
X131387216Y-80635774D01*
X131400500Y-80568995D01*
X131400500Y-80431004D01*
X131373581Y-80295677D01*
X131373580Y-80295676D01*
X131373580Y-80295672D01*
X131330921Y-80192683D01*
X131320778Y-80168195D01*
X131320771Y-80168182D01*
X131244114Y-80053458D01*
X131244111Y-80053454D01*
X131146545Y-79955888D01*
X131146541Y-79955885D01*
X131031817Y-79879228D01*
X131031804Y-79879221D01*
X130904332Y-79826421D01*
X130904322Y-79826418D01*
X130768995Y-79799500D01*
X130768993Y-79799500D01*
X130631007Y-79799500D01*
X130631005Y-79799500D01*
X130495677Y-79826418D01*
X130495667Y-79826421D01*
X130368195Y-79879221D01*
X130368182Y-79879228D01*
X130253458Y-79955885D01*
X130253454Y-79955888D01*
X130155888Y-80053454D01*
X130155885Y-80053458D01*
X130079228Y-80168182D01*
X130079221Y-80168195D01*
X130026421Y-80295667D01*
X130026418Y-80295677D01*
X129999500Y-80431004D01*
X129999500Y-80431007D01*
X129999500Y-80568993D01*
X129999500Y-80568995D01*
X129999499Y-80568995D01*
X118299669Y-80568995D01*
X118300500Y-80565892D01*
X118300500Y-80434108D01*
X118266392Y-80306814D01*
X118200500Y-80192686D01*
X118107314Y-80099500D01*
X118050250Y-80066554D01*
X117993187Y-80033608D01*
X117929539Y-80016554D01*
X117865892Y-79999500D01*
X117734108Y-79999500D01*
X117606812Y-80033608D01*
X117492686Y-80099500D01*
X117492683Y-80099502D01*
X117399502Y-80192683D01*
X117399500Y-80192686D01*
X117333608Y-80306812D01*
X117308674Y-80399871D01*
X117299500Y-80434108D01*
X115073706Y-80434108D01*
X115100500Y-80407314D01*
X115113023Y-80385622D01*
X115125520Y-80363980D01*
X115164954Y-80295677D01*
X115166392Y-80293186D01*
X115200500Y-80165892D01*
X115200500Y-80034108D01*
X115166392Y-79906814D01*
X115100500Y-79792686D01*
X115007314Y-79699500D01*
X114950250Y-79666554D01*
X114893187Y-79633608D01*
X114829539Y-79616554D01*
X114765892Y-79599500D01*
X114634108Y-79599500D01*
X114506812Y-79633608D01*
X114392686Y-79699500D01*
X114392683Y-79699502D01*
X114299502Y-79792683D01*
X114299500Y-79792686D01*
X114233608Y-79906812D01*
X114210727Y-79992207D01*
X114199500Y-80034108D01*
X101331146Y-80034108D01*
X101348502Y-79992207D01*
X101412982Y-79751565D01*
X101445500Y-79504565D01*
X101445500Y-79255435D01*
X101412982Y-79008435D01*
X101348502Y-78767793D01*
X101317019Y-78691786D01*
X106164160Y-78691786D01*
X106164160Y-78823569D01*
X106198268Y-78950865D01*
X106202129Y-78957552D01*
X106264160Y-79064992D01*
X106357346Y-79158178D01*
X106471474Y-79224070D01*
X106598768Y-79258178D01*
X106598770Y-79258178D01*
X106730550Y-79258178D01*
X106730552Y-79258178D01*
X106857846Y-79224070D01*
X106971974Y-79158178D01*
X107065160Y-79064992D01*
X107131052Y-78950864D01*
X107165160Y-78823570D01*
X107165160Y-78691786D01*
X107131052Y-78564492D01*
X107065160Y-78450364D01*
X107064525Y-78449729D01*
X107064162Y-78449064D01*
X107060213Y-78443918D01*
X107061015Y-78443302D01*
X107031040Y-78388406D01*
X107036024Y-78318714D01*
X107064526Y-78274366D01*
X107073855Y-78265038D01*
X107139747Y-78150910D01*
X107173855Y-78023616D01*
X107173855Y-77891832D01*
X107139747Y-77764538D01*
X107073855Y-77650410D01*
X106980669Y-77557224D01*
X106902370Y-77512018D01*
X106866542Y-77491332D01*
X106802894Y-77474278D01*
X106739247Y-77457224D01*
X106607463Y-77457224D01*
X106480167Y-77491332D01*
X106366041Y-77557224D01*
X106366038Y-77557226D01*
X106272857Y-77650407D01*
X106272855Y-77650410D01*
X106206963Y-77764536D01*
X106198425Y-77796401D01*
X106172855Y-77891832D01*
X106172855Y-78023616D01*
X106189909Y-78087263D01*
X106206963Y-78150911D01*
X106220052Y-78173581D01*
X106272855Y-78265038D01*
X106272856Y-78265039D01*
X106272857Y-78265040D01*
X106273489Y-78265672D01*
X106273851Y-78266335D01*
X106277802Y-78271484D01*
X106276999Y-78272100D01*
X106306974Y-78326995D01*
X106301990Y-78396687D01*
X106273492Y-78441031D01*
X106264164Y-78450359D01*
X106264160Y-78450364D01*
X106198268Y-78564490D01*
X106164160Y-78691786D01*
X101317019Y-78691786D01*
X101253164Y-78537627D01*
X101202416Y-78449729D01*
X101128599Y-78321873D01*
X100976939Y-78124225D01*
X100976933Y-78124218D01*
X100800781Y-77948066D01*
X100800774Y-77948060D01*
X100603126Y-77796400D01*
X100387376Y-77671837D01*
X100387361Y-77671830D01*
X100157207Y-77576498D01*
X99916561Y-77512017D01*
X99669575Y-77479501D01*
X99669570Y-77479500D01*
X99669565Y-77479500D01*
X99420435Y-77479500D01*
X99420429Y-77479500D01*
X99420424Y-77479501D01*
X99173438Y-77512017D01*
X98932792Y-77576498D01*
X98702638Y-77671830D01*
X98702623Y-77671837D01*
X98486873Y-77796400D01*
X98289225Y-77948060D01*
X98289218Y-77948066D01*
X98113066Y-78124218D01*
X98113060Y-78124225D01*
X97961400Y-78321873D01*
X97836837Y-78537623D01*
X97836830Y-78537638D01*
X97741498Y-78767792D01*
X97677017Y-79008438D01*
X97644501Y-79255424D01*
X97644500Y-79255441D01*
X96194490Y-79255441D01*
X96173402Y-79122299D01*
X96119873Y-78957555D01*
X96041232Y-78803212D01*
X95939414Y-78663072D01*
X95816928Y-78540586D01*
X95676788Y-78438768D01*
X95522445Y-78360127D01*
X95357701Y-78306598D01*
X95357699Y-78306597D01*
X95357698Y-78306597D01*
X95226271Y-78285781D01*
X95186611Y-78279500D01*
X95013389Y-78279500D01*
X94973728Y-78285781D01*
X94842302Y-78306597D01*
X94842299Y-78306598D01*
X94695249Y-78354378D01*
X94677552Y-78360128D01*
X94523211Y-78438768D01*
X94443256Y-78496859D01*
X94383072Y-78540586D01*
X94383070Y-78540588D01*
X94383069Y-78540588D01*
X94260588Y-78663069D01*
X94260588Y-78663070D01*
X94260586Y-78663072D01*
X94239724Y-78691786D01*
X94158768Y-78803211D01*
X94080128Y-78957552D01*
X94026597Y-79122302D01*
X93999500Y-79293389D01*
X86300500Y-79293389D01*
X86300500Y-75834108D01*
X105899500Y-75834108D01*
X105899500Y-75965892D01*
X105916554Y-76029539D01*
X105933608Y-76093187D01*
X105966554Y-76150250D01*
X105999500Y-76207314D01*
X106092686Y-76300500D01*
X106206814Y-76366392D01*
X106334108Y-76400500D01*
X106334110Y-76400500D01*
X106465890Y-76400500D01*
X106465892Y-76400500D01*
X106593186Y-76366392D01*
X106707314Y-76300500D01*
X106800500Y-76207314D01*
X106866392Y-76093186D01*
X106900500Y-75965892D01*
X106900500Y-75834108D01*
X106866392Y-75706814D01*
X106866389Y-75706808D01*
X106855520Y-75687982D01*
X106855519Y-75687981D01*
X106824415Y-75634108D01*
X109799500Y-75634108D01*
X109799500Y-75765892D01*
X109807481Y-75795677D01*
X109833608Y-75893187D01*
X109855442Y-75931004D01*
X109899500Y-76007314D01*
X109992686Y-76100500D01*
X110106814Y-76166392D01*
X110234108Y-76200500D01*
X110234110Y-76200500D01*
X110365890Y-76200500D01*
X110365892Y-76200500D01*
X110493186Y-76166392D01*
X110607314Y-76100500D01*
X110700500Y-76007314D01*
X110766392Y-75893186D01*
X110800500Y-75765892D01*
X110800500Y-75634108D01*
X110771831Y-75527112D01*
X116705946Y-75527112D01*
X116705946Y-75658896D01*
X116723000Y-75722543D01*
X116740054Y-75786191D01*
X116767721Y-75834110D01*
X116805946Y-75900318D01*
X116899132Y-75993504D01*
X117013260Y-76059396D01*
X117140554Y-76093504D01*
X117140556Y-76093504D01*
X117272336Y-76093504D01*
X117272338Y-76093504D01*
X117399632Y-76059396D01*
X117513760Y-75993504D01*
X117606946Y-75900318D01*
X117672838Y-75786190D01*
X117706946Y-75658896D01*
X117706946Y-75527112D01*
X117672838Y-75399818D01*
X117672654Y-75399500D01*
X117650359Y-75360884D01*
X117606946Y-75285690D01*
X117513760Y-75192504D01*
X117456696Y-75159558D01*
X117399633Y-75126612D01*
X117335985Y-75109558D01*
X117272338Y-75092504D01*
X117140554Y-75092504D01*
X117013258Y-75126612D01*
X116899132Y-75192504D01*
X116899129Y-75192506D01*
X116805948Y-75285687D01*
X116805946Y-75285690D01*
X116740054Y-75399816D01*
X116713344Y-75499502D01*
X116705946Y-75527112D01*
X110771831Y-75527112D01*
X110766392Y-75506814D01*
X110700500Y-75392686D01*
X110607314Y-75299500D01*
X110529244Y-75254426D01*
X110493187Y-75233608D01*
X110429539Y-75216554D01*
X110365892Y-75199500D01*
X110234108Y-75199500D01*
X110106812Y-75233608D01*
X109992686Y-75299500D01*
X109992683Y-75299502D01*
X109899502Y-75392683D01*
X109899500Y-75392686D01*
X109833608Y-75506812D01*
X109821111Y-75553454D01*
X109799500Y-75634108D01*
X106824415Y-75634108D01*
X106800500Y-75592686D01*
X106707314Y-75499500D01*
X106631771Y-75455885D01*
X106593187Y-75433608D01*
X106529539Y-75416554D01*
X106465892Y-75399500D01*
X106334108Y-75399500D01*
X106206812Y-75433608D01*
X106092686Y-75499500D01*
X106092683Y-75499502D01*
X105999502Y-75592683D01*
X105999500Y-75592686D01*
X105933608Y-75706812D01*
X105917778Y-75765892D01*
X105899500Y-75834108D01*
X86300500Y-75834108D01*
X86300500Y-74668995D01*
X128299499Y-74668995D01*
X128326418Y-74804322D01*
X128326421Y-74804332D01*
X128379221Y-74931804D01*
X128379228Y-74931817D01*
X128455885Y-75046541D01*
X128455888Y-75046545D01*
X128553454Y-75144111D01*
X128553458Y-75144114D01*
X128668182Y-75220771D01*
X128668195Y-75220778D01*
X128795667Y-75273578D01*
X128795672Y-75273580D01*
X128795676Y-75273580D01*
X128795677Y-75273581D01*
X128931004Y-75300500D01*
X128931007Y-75300500D01*
X129068995Y-75300500D01*
X129160041Y-75282389D01*
X129204328Y-75273580D01*
X129331811Y-75220775D01*
X129446542Y-75144114D01*
X129544114Y-75046542D01*
X129620775Y-74931811D01*
X129673580Y-74804328D01*
X129693471Y-74704332D01*
X129700500Y-74668995D01*
X129700500Y-74568995D01*
X129999499Y-74568995D01*
X130026418Y-74704322D01*
X130026421Y-74704332D01*
X130079221Y-74831804D01*
X130079228Y-74831817D01*
X130155885Y-74946541D01*
X130155888Y-74946545D01*
X130253454Y-75044111D01*
X130253458Y-75044114D01*
X130368182Y-75120771D01*
X130368186Y-75120773D01*
X130368189Y-75120775D01*
X130380114Y-75125714D01*
X130403590Y-75135439D01*
X130457994Y-75179280D01*
X130480058Y-75245575D01*
X130462778Y-75313274D01*
X130411641Y-75360884D01*
X130403590Y-75364561D01*
X130368192Y-75379223D01*
X130368182Y-75379228D01*
X130253458Y-75455885D01*
X130253454Y-75455888D01*
X130155888Y-75553454D01*
X130155885Y-75553458D01*
X130079228Y-75668182D01*
X130079221Y-75668195D01*
X130026421Y-75795667D01*
X130026418Y-75795677D01*
X129999500Y-75931004D01*
X129999500Y-75931007D01*
X129999500Y-76068993D01*
X129999500Y-76068995D01*
X129999499Y-76068995D01*
X130026418Y-76204322D01*
X130026421Y-76204332D01*
X130079221Y-76331804D01*
X130079228Y-76331817D01*
X130155885Y-76446541D01*
X130155888Y-76446545D01*
X130253454Y-76544111D01*
X130253458Y-76544114D01*
X130368182Y-76620771D01*
X130368186Y-76620773D01*
X130368189Y-76620775D01*
X130380114Y-76625714D01*
X130403590Y-76635439D01*
X130457994Y-76679280D01*
X130480058Y-76745575D01*
X130462778Y-76813274D01*
X130411641Y-76860884D01*
X130403590Y-76864561D01*
X130368192Y-76879223D01*
X130368182Y-76879228D01*
X130253458Y-76955885D01*
X130253454Y-76955888D01*
X130155888Y-77053454D01*
X130155885Y-77053458D01*
X130079228Y-77168182D01*
X130079221Y-77168195D01*
X130026421Y-77295667D01*
X130026418Y-77295677D01*
X129999500Y-77431004D01*
X129999500Y-77431007D01*
X129999500Y-77568993D01*
X129999500Y-77568995D01*
X129999499Y-77568995D01*
X130026418Y-77704322D01*
X130026421Y-77704332D01*
X130079221Y-77831804D01*
X130079228Y-77831817D01*
X130155885Y-77946541D01*
X130155888Y-77946545D01*
X130253454Y-78044111D01*
X130253458Y-78044114D01*
X130368182Y-78120771D01*
X130368195Y-78120778D01*
X130495667Y-78173578D01*
X130495672Y-78173580D01*
X130495676Y-78173580D01*
X130495677Y-78173581D01*
X130631004Y-78200500D01*
X130631007Y-78200500D01*
X130768995Y-78200500D01*
X130860041Y-78182389D01*
X130904328Y-78173580D01*
X131023482Y-78124225D01*
X131031804Y-78120778D01*
X131031804Y-78120777D01*
X131031811Y-78120775D01*
X131146542Y-78044114D01*
X131244114Y-77946542D01*
X131320775Y-77831811D01*
X131373580Y-77704328D01*
X131384306Y-77650407D01*
X131400500Y-77568995D01*
X131400500Y-77431004D01*
X131373581Y-77295677D01*
X131373580Y-77295676D01*
X131373580Y-77295672D01*
X131373578Y-77295667D01*
X131320778Y-77168195D01*
X131320771Y-77168182D01*
X131244114Y-77053458D01*
X131244111Y-77053454D01*
X131146545Y-76955888D01*
X131146541Y-76955885D01*
X131031817Y-76879228D01*
X131031804Y-76879221D01*
X130996410Y-76864561D01*
X130942006Y-76820720D01*
X130919941Y-76754426D01*
X130937220Y-76686727D01*
X130988357Y-76639116D01*
X130996410Y-76635439D01*
X131031804Y-76620778D01*
X131031804Y-76620777D01*
X131031811Y-76620775D01*
X131146542Y-76544114D01*
X131244114Y-76446542D01*
X131320775Y-76331811D01*
X131373580Y-76204328D01*
X131394233Y-76100499D01*
X131400500Y-76068995D01*
X131400500Y-75931004D01*
X131373581Y-75795677D01*
X131373580Y-75795676D01*
X131373580Y-75795672D01*
X131369653Y-75786191D01*
X131320778Y-75668195D01*
X131320771Y-75668182D01*
X131244114Y-75553458D01*
X131244111Y-75553454D01*
X131146545Y-75455888D01*
X131146541Y-75455885D01*
X131031817Y-75379228D01*
X131031804Y-75379221D01*
X130996410Y-75364561D01*
X130942006Y-75320720D01*
X130919941Y-75254426D01*
X130937220Y-75186727D01*
X130988357Y-75139116D01*
X130996410Y-75135439D01*
X131031804Y-75120778D01*
X131031804Y-75120777D01*
X131031811Y-75120775D01*
X131146542Y-75044114D01*
X131244114Y-74946542D01*
X131320775Y-74831811D01*
X131373580Y-74704328D01*
X131400500Y-74568993D01*
X131400500Y-74431007D01*
X131400500Y-74431004D01*
X131373581Y-74295677D01*
X131373580Y-74295676D01*
X131373580Y-74295672D01*
X131362193Y-74268182D01*
X131320778Y-74168195D01*
X131320771Y-74168182D01*
X131244114Y-74053458D01*
X131244111Y-74053454D01*
X131146545Y-73955888D01*
X131146541Y-73955885D01*
X131031817Y-73879228D01*
X131031804Y-73879221D01*
X130904332Y-73826421D01*
X130904322Y-73826418D01*
X130768995Y-73799500D01*
X130768993Y-73799500D01*
X130631007Y-73799500D01*
X130631005Y-73799500D01*
X130495677Y-73826418D01*
X130495667Y-73826421D01*
X130368195Y-73879221D01*
X130368182Y-73879228D01*
X130253458Y-73955885D01*
X130253454Y-73955888D01*
X130155888Y-74053454D01*
X130155885Y-74053458D01*
X130079228Y-74168182D01*
X130079221Y-74168195D01*
X130026421Y-74295667D01*
X130026418Y-74295677D01*
X129999500Y-74431004D01*
X129999500Y-74431007D01*
X129999500Y-74568993D01*
X129999500Y-74568995D01*
X129999499Y-74568995D01*
X129700500Y-74568995D01*
X129700500Y-74531004D01*
X129684209Y-74449107D01*
X129684209Y-74449106D01*
X129673581Y-74395679D01*
X129673581Y-74395677D01*
X129673580Y-74395672D01*
X129632157Y-74295667D01*
X129620778Y-74268195D01*
X129620771Y-74268182D01*
X129544114Y-74153458D01*
X129544111Y-74153454D01*
X129446545Y-74055888D01*
X129446541Y-74055885D01*
X129331817Y-73979228D01*
X129331804Y-73979221D01*
X129204332Y-73926421D01*
X129204322Y-73926418D01*
X129068995Y-73899500D01*
X129068993Y-73899500D01*
X128931007Y-73899500D01*
X128931005Y-73899500D01*
X128795677Y-73926418D01*
X128795667Y-73926421D01*
X128668195Y-73979221D01*
X128668182Y-73979228D01*
X128553458Y-74055885D01*
X128553454Y-74055888D01*
X128455888Y-74153454D01*
X128455885Y-74153458D01*
X128379228Y-74268182D01*
X128379221Y-74268195D01*
X128326421Y-74395667D01*
X128326418Y-74395677D01*
X128299500Y-74531004D01*
X128299500Y-74531007D01*
X128299500Y-74668993D01*
X128299500Y-74668995D01*
X128299499Y-74668995D01*
X86300500Y-74668995D01*
X86300500Y-72634108D01*
X108699500Y-72634108D01*
X108699500Y-72765891D01*
X108733608Y-72893187D01*
X108766554Y-72950250D01*
X108799500Y-73007314D01*
X108892686Y-73100500D01*
X109006814Y-73166392D01*
X109134108Y-73200500D01*
X109134110Y-73200500D01*
X109265890Y-73200500D01*
X109265892Y-73200500D01*
X109393186Y-73166392D01*
X109507314Y-73100500D01*
X109600500Y-73007314D01*
X109666392Y-72893186D01*
X109700500Y-72765892D01*
X109700500Y-72634108D01*
X111199500Y-72634108D01*
X111199500Y-72765891D01*
X111233608Y-72893187D01*
X111266554Y-72950250D01*
X111299500Y-73007314D01*
X111392686Y-73100500D01*
X111506814Y-73166392D01*
X111634108Y-73200500D01*
X111634110Y-73200500D01*
X111765890Y-73200500D01*
X111765892Y-73200500D01*
X111893186Y-73166392D01*
X112007314Y-73100500D01*
X112100500Y-73007314D01*
X112166392Y-72893186D01*
X112200500Y-72765892D01*
X112200500Y-72634108D01*
X114199500Y-72634108D01*
X114199500Y-72765891D01*
X114233608Y-72893187D01*
X114266554Y-72950250D01*
X114299500Y-73007314D01*
X114392686Y-73100500D01*
X114506814Y-73166392D01*
X114634108Y-73200500D01*
X114634110Y-73200500D01*
X114765890Y-73200500D01*
X114765892Y-73200500D01*
X114893186Y-73166392D01*
X115007314Y-73100500D01*
X115100500Y-73007314D01*
X115166392Y-72893186D01*
X115200500Y-72765892D01*
X115200500Y-72634108D01*
X115166392Y-72506814D01*
X115100500Y-72392686D01*
X115007314Y-72299500D01*
X114950250Y-72266554D01*
X114893187Y-72233608D01*
X114829539Y-72216554D01*
X114765892Y-72199500D01*
X114634108Y-72199500D01*
X114506812Y-72233608D01*
X114392686Y-72299500D01*
X114392683Y-72299502D01*
X114299502Y-72392683D01*
X114299500Y-72392686D01*
X114233608Y-72506812D01*
X114199500Y-72634108D01*
X112200500Y-72634108D01*
X112166392Y-72506814D01*
X112100500Y-72392686D01*
X112007314Y-72299500D01*
X111950250Y-72266554D01*
X111893187Y-72233608D01*
X111829539Y-72216554D01*
X111765892Y-72199500D01*
X111634108Y-72199500D01*
X111506812Y-72233608D01*
X111392686Y-72299500D01*
X111392683Y-72299502D01*
X111299502Y-72392683D01*
X111299500Y-72392686D01*
X111233608Y-72506812D01*
X111199500Y-72634108D01*
X109700500Y-72634108D01*
X109666392Y-72506814D01*
X109600500Y-72392686D01*
X109507314Y-72299500D01*
X109450250Y-72266554D01*
X109393187Y-72233608D01*
X109329539Y-72216554D01*
X109265892Y-72199500D01*
X109134108Y-72199500D01*
X109006812Y-72233608D01*
X108892686Y-72299500D01*
X108892683Y-72299502D01*
X108799502Y-72392683D01*
X108799500Y-72392686D01*
X108733608Y-72506812D01*
X108699500Y-72634108D01*
X86300500Y-72634108D01*
X86300500Y-71868995D01*
X123699499Y-71868995D01*
X123726418Y-72004322D01*
X123726421Y-72004332D01*
X123779221Y-72131804D01*
X123779228Y-72131817D01*
X123855885Y-72246541D01*
X123855888Y-72246545D01*
X123953454Y-72344111D01*
X123953458Y-72344114D01*
X124068182Y-72420771D01*
X124068195Y-72420778D01*
X124195667Y-72473578D01*
X124195672Y-72473580D01*
X124195676Y-72473580D01*
X124195677Y-72473581D01*
X124331004Y-72500500D01*
X124331007Y-72500500D01*
X124468995Y-72500500D01*
X124560041Y-72482389D01*
X124604328Y-72473580D01*
X124731811Y-72420775D01*
X124846542Y-72344114D01*
X124944114Y-72246542D01*
X125020775Y-72131811D01*
X125073580Y-72004328D01*
X125100500Y-71868993D01*
X125100500Y-71731007D01*
X125100500Y-71731004D01*
X125073581Y-71595677D01*
X125073580Y-71595676D01*
X125073580Y-71595672D01*
X125062529Y-71568993D01*
X125020778Y-71468195D01*
X125020771Y-71468182D01*
X124944114Y-71353458D01*
X124944111Y-71353454D01*
X124846545Y-71255888D01*
X124846541Y-71255885D01*
X124731817Y-71179228D01*
X124731804Y-71179221D01*
X124604332Y-71126421D01*
X124604322Y-71126418D01*
X124468995Y-71099500D01*
X124468993Y-71099500D01*
X124331007Y-71099500D01*
X124331005Y-71099500D01*
X124195677Y-71126418D01*
X124195667Y-71126421D01*
X124068195Y-71179221D01*
X124068182Y-71179228D01*
X123953458Y-71255885D01*
X123953454Y-71255888D01*
X123855888Y-71353454D01*
X123855885Y-71353458D01*
X123779228Y-71468182D01*
X123779221Y-71468195D01*
X123726421Y-71595667D01*
X123726418Y-71595677D01*
X123699500Y-71731004D01*
X123699500Y-71731007D01*
X123699500Y-71868993D01*
X123699500Y-71868995D01*
X123699499Y-71868995D01*
X86300500Y-71868995D01*
X86300500Y-68034108D01*
X107299500Y-68034108D01*
X107299500Y-68165892D01*
X107300117Y-68168195D01*
X107333608Y-68293187D01*
X107335040Y-68295667D01*
X107399500Y-68407314D01*
X107492686Y-68500500D01*
X107606814Y-68566392D01*
X107734108Y-68600500D01*
X107734110Y-68600500D01*
X107865890Y-68600500D01*
X107865892Y-68600500D01*
X107983471Y-68568995D01*
X129999499Y-68568995D01*
X130026418Y-68704322D01*
X130026421Y-68704332D01*
X130079221Y-68831804D01*
X130079228Y-68831817D01*
X130155885Y-68946541D01*
X130155888Y-68946545D01*
X130253454Y-69044111D01*
X130253458Y-69044114D01*
X130368182Y-69120771D01*
X130368186Y-69120773D01*
X130368189Y-69120775D01*
X130380114Y-69125714D01*
X130403590Y-69135439D01*
X130457994Y-69179280D01*
X130480058Y-69245575D01*
X130462778Y-69313274D01*
X130411641Y-69360884D01*
X130403590Y-69364561D01*
X130368192Y-69379223D01*
X130368182Y-69379228D01*
X130253458Y-69455885D01*
X130253454Y-69455888D01*
X130155888Y-69553454D01*
X130155885Y-69553458D01*
X130079228Y-69668182D01*
X130079221Y-69668195D01*
X130026421Y-69795667D01*
X130026418Y-69795677D01*
X129999500Y-69931004D01*
X129999500Y-69931007D01*
X129999500Y-70068993D01*
X129999500Y-70068995D01*
X129999499Y-70068995D01*
X130026418Y-70204322D01*
X130026421Y-70204332D01*
X130079221Y-70331804D01*
X130079228Y-70331817D01*
X130155885Y-70446541D01*
X130155888Y-70446545D01*
X130253454Y-70544111D01*
X130253458Y-70544114D01*
X130368182Y-70620771D01*
X130368186Y-70620773D01*
X130368189Y-70620775D01*
X130380114Y-70625714D01*
X130403590Y-70635439D01*
X130457994Y-70679280D01*
X130480058Y-70745575D01*
X130462778Y-70813274D01*
X130411641Y-70860884D01*
X130403590Y-70864561D01*
X130368192Y-70879223D01*
X130368182Y-70879228D01*
X130253458Y-70955885D01*
X130253454Y-70955888D01*
X130155888Y-71053454D01*
X130155885Y-71053458D01*
X130079228Y-71168182D01*
X130079221Y-71168195D01*
X130026421Y-71295667D01*
X130026418Y-71295677D01*
X129999500Y-71431004D01*
X129999500Y-71431007D01*
X129999500Y-71568993D01*
X129999500Y-71568995D01*
X129999499Y-71568995D01*
X130026418Y-71704322D01*
X130026421Y-71704332D01*
X130079221Y-71831804D01*
X130079228Y-71831817D01*
X130155885Y-71946541D01*
X130155888Y-71946545D01*
X130253454Y-72044111D01*
X130253458Y-72044114D01*
X130368182Y-72120771D01*
X130368195Y-72120778D01*
X130495667Y-72173578D01*
X130495672Y-72173580D01*
X130495676Y-72173580D01*
X130495677Y-72173581D01*
X130631004Y-72200500D01*
X130631007Y-72200500D01*
X130768995Y-72200500D01*
X130860041Y-72182389D01*
X130904328Y-72173580D01*
X131031811Y-72120775D01*
X131146542Y-72044114D01*
X131244114Y-71946542D01*
X131320775Y-71831811D01*
X131373580Y-71704328D01*
X131400500Y-71568993D01*
X131400500Y-71431007D01*
X131400500Y-71431004D01*
X131373581Y-71295677D01*
X131373580Y-71295676D01*
X131373580Y-71295672D01*
X131357100Y-71255885D01*
X131320778Y-71168195D01*
X131320771Y-71168182D01*
X131244114Y-71053458D01*
X131244111Y-71053454D01*
X131146545Y-70955888D01*
X131146541Y-70955885D01*
X131031817Y-70879228D01*
X131031804Y-70879221D01*
X130996410Y-70864561D01*
X130942006Y-70820720D01*
X130919941Y-70754426D01*
X130937220Y-70686727D01*
X130988357Y-70639116D01*
X130996410Y-70635439D01*
X131031804Y-70620778D01*
X131031804Y-70620777D01*
X131031811Y-70620775D01*
X131146542Y-70544114D01*
X131244114Y-70446542D01*
X131320775Y-70331811D01*
X131373580Y-70204328D01*
X131400500Y-70068993D01*
X131400500Y-69931007D01*
X131400500Y-69931004D01*
X131373581Y-69795677D01*
X131373580Y-69795676D01*
X131373580Y-69795672D01*
X131373578Y-69795667D01*
X131320778Y-69668195D01*
X131320771Y-69668182D01*
X131244114Y-69553458D01*
X131244111Y-69553454D01*
X131146545Y-69455888D01*
X131146541Y-69455885D01*
X131031817Y-69379228D01*
X131031804Y-69379221D01*
X130996410Y-69364561D01*
X130942006Y-69320720D01*
X130919941Y-69254426D01*
X130937220Y-69186727D01*
X130988357Y-69139116D01*
X130996410Y-69135439D01*
X131031804Y-69120778D01*
X131031804Y-69120777D01*
X131031811Y-69120775D01*
X131146542Y-69044114D01*
X131244114Y-68946542D01*
X131320775Y-68831811D01*
X131373580Y-68704328D01*
X131400500Y-68568993D01*
X131400500Y-68431007D01*
X131400500Y-68431004D01*
X131373581Y-68295677D01*
X131373580Y-68295676D01*
X131373580Y-68295672D01*
X131372550Y-68293186D01*
X131320778Y-68168195D01*
X131320771Y-68168182D01*
X131244114Y-68053458D01*
X131244111Y-68053454D01*
X131146545Y-67955888D01*
X131146541Y-67955885D01*
X131031817Y-67879228D01*
X131031804Y-67879221D01*
X130904332Y-67826421D01*
X130904322Y-67826418D01*
X130768995Y-67799500D01*
X130768993Y-67799500D01*
X130631007Y-67799500D01*
X130631005Y-67799500D01*
X130495677Y-67826418D01*
X130495667Y-67826421D01*
X130368195Y-67879221D01*
X130368182Y-67879228D01*
X130253458Y-67955885D01*
X130253454Y-67955888D01*
X130155888Y-68053454D01*
X130155885Y-68053458D01*
X130079228Y-68168182D01*
X130079221Y-68168195D01*
X130026421Y-68295667D01*
X130026418Y-68295677D01*
X129999500Y-68431004D01*
X129999500Y-68431007D01*
X129999500Y-68568993D01*
X129999500Y-68568995D01*
X129999499Y-68568995D01*
X107983471Y-68568995D01*
X107993186Y-68566392D01*
X108107314Y-68500500D01*
X108200500Y-68407314D01*
X108266392Y-68293186D01*
X108300500Y-68165892D01*
X108300500Y-68034108D01*
X108266392Y-67906814D01*
X108200500Y-67792686D01*
X108107314Y-67699500D01*
X108050250Y-67666554D01*
X107993187Y-67633608D01*
X107929539Y-67616554D01*
X107865892Y-67599500D01*
X107734108Y-67599500D01*
X107606812Y-67633608D01*
X107492686Y-67699500D01*
X107492683Y-67699502D01*
X107399502Y-67792683D01*
X107399500Y-67792686D01*
X107333608Y-67906812D01*
X107299500Y-68034108D01*
X86300500Y-68034108D01*
X86300500Y-67299108D01*
X122864500Y-67299108D01*
X122864500Y-67430891D01*
X122898608Y-67558187D01*
X122922461Y-67599500D01*
X122964500Y-67672314D01*
X123057686Y-67765500D01*
X123171814Y-67831392D01*
X123299108Y-67865500D01*
X123299110Y-67865500D01*
X123430890Y-67865500D01*
X123430892Y-67865500D01*
X123558186Y-67831392D01*
X123672314Y-67765500D01*
X123765500Y-67672314D01*
X123831392Y-67558186D01*
X123865500Y-67430892D01*
X123865500Y-67299108D01*
X123831392Y-67171814D01*
X123765500Y-67057686D01*
X123672314Y-66964500D01*
X123615250Y-66931554D01*
X123558187Y-66898608D01*
X123494539Y-66881554D01*
X123430892Y-66864500D01*
X123299108Y-66864500D01*
X123171812Y-66898608D01*
X123057686Y-66964500D01*
X123057683Y-66964502D01*
X122964502Y-67057683D01*
X122964500Y-67057686D01*
X122898608Y-67171812D01*
X122864500Y-67299108D01*
X86300500Y-67299108D01*
X86300500Y-63668995D01*
X128299499Y-63668995D01*
X128326418Y-63804322D01*
X128326421Y-63804332D01*
X128379221Y-63931804D01*
X128379228Y-63931817D01*
X128455885Y-64046541D01*
X128455888Y-64046545D01*
X128553454Y-64144111D01*
X128553458Y-64144114D01*
X128668182Y-64220771D01*
X128668195Y-64220778D01*
X128795667Y-64273578D01*
X128795672Y-64273580D01*
X128795676Y-64273580D01*
X128795677Y-64273581D01*
X128931004Y-64300500D01*
X128931007Y-64300500D01*
X129068995Y-64300500D01*
X129160041Y-64282389D01*
X129204328Y-64273580D01*
X129331811Y-64220775D01*
X129446542Y-64144114D01*
X129544114Y-64046542D01*
X129620775Y-63931811D01*
X129673580Y-63804328D01*
X129700500Y-63668993D01*
X129700500Y-63531007D01*
X129700500Y-63531004D01*
X129673581Y-63395677D01*
X129673580Y-63395676D01*
X129673580Y-63395672D01*
X129666769Y-63379228D01*
X129620778Y-63268195D01*
X129620771Y-63268182D01*
X129544114Y-63153458D01*
X129544111Y-63153454D01*
X129446545Y-63055888D01*
X129446541Y-63055885D01*
X129331817Y-62979228D01*
X129331804Y-62979221D01*
X129204332Y-62926421D01*
X129204322Y-62926418D01*
X129068995Y-62899500D01*
X129068993Y-62899500D01*
X128931007Y-62899500D01*
X128931005Y-62899500D01*
X128795677Y-62926418D01*
X128795667Y-62926421D01*
X128668195Y-62979221D01*
X128668182Y-62979228D01*
X128553458Y-63055885D01*
X128553454Y-63055888D01*
X128455888Y-63153454D01*
X128455885Y-63153458D01*
X128379228Y-63268182D01*
X128379221Y-63268195D01*
X128326421Y-63395667D01*
X128326418Y-63395677D01*
X128299500Y-63531004D01*
X128299500Y-63531007D01*
X128299500Y-63668993D01*
X128299500Y-63668995D01*
X128299499Y-63668995D01*
X86300500Y-63668995D01*
X86300500Y-62568995D01*
X129999499Y-62568995D01*
X130026418Y-62704322D01*
X130026421Y-62704332D01*
X130079221Y-62831804D01*
X130079228Y-62831817D01*
X130155885Y-62946541D01*
X130155888Y-62946545D01*
X130253454Y-63044111D01*
X130253458Y-63044114D01*
X130368182Y-63120771D01*
X130368186Y-63120773D01*
X130368189Y-63120775D01*
X130380114Y-63125714D01*
X130403590Y-63135439D01*
X130457994Y-63179280D01*
X130480058Y-63245575D01*
X130462778Y-63313274D01*
X130411641Y-63360884D01*
X130403590Y-63364561D01*
X130368192Y-63379223D01*
X130368182Y-63379228D01*
X130253458Y-63455885D01*
X130253454Y-63455888D01*
X130155888Y-63553454D01*
X130155885Y-63553458D01*
X130079228Y-63668182D01*
X130079221Y-63668195D01*
X130026421Y-63795667D01*
X130026418Y-63795677D01*
X129999500Y-63931004D01*
X129999500Y-63931007D01*
X129999500Y-64068993D01*
X129999500Y-64068995D01*
X129999499Y-64068995D01*
X130026418Y-64204322D01*
X130026421Y-64204332D01*
X130079221Y-64331804D01*
X130079228Y-64331817D01*
X130155885Y-64446541D01*
X130155888Y-64446545D01*
X130253454Y-64544111D01*
X130253458Y-64544114D01*
X130368182Y-64620771D01*
X130368186Y-64620773D01*
X130368189Y-64620775D01*
X130380114Y-64625714D01*
X130403590Y-64635439D01*
X130457994Y-64679280D01*
X130480058Y-64745575D01*
X130462778Y-64813274D01*
X130411641Y-64860884D01*
X130403590Y-64864561D01*
X130368192Y-64879223D01*
X130368182Y-64879228D01*
X130253458Y-64955885D01*
X130253454Y-64955888D01*
X130155888Y-65053454D01*
X130155885Y-65053458D01*
X130079228Y-65168182D01*
X130079221Y-65168195D01*
X130026421Y-65295667D01*
X130026418Y-65295677D01*
X129999500Y-65431004D01*
X129999500Y-65431007D01*
X129999500Y-65568993D01*
X129999500Y-65568995D01*
X129999499Y-65568995D01*
X130026418Y-65704322D01*
X130026421Y-65704332D01*
X130079221Y-65831804D01*
X130079228Y-65831817D01*
X130155885Y-65946541D01*
X130155888Y-65946545D01*
X130253454Y-66044111D01*
X130253458Y-66044114D01*
X130368182Y-66120771D01*
X130368195Y-66120778D01*
X130495667Y-66173578D01*
X130495672Y-66173580D01*
X130495676Y-66173580D01*
X130495677Y-66173581D01*
X130631004Y-66200500D01*
X130631007Y-66200500D01*
X130768995Y-66200500D01*
X130860041Y-66182389D01*
X130904328Y-66173580D01*
X131031811Y-66120775D01*
X131146542Y-66044114D01*
X131244114Y-65946542D01*
X131320775Y-65831811D01*
X131373580Y-65704328D01*
X131400500Y-65568993D01*
X131400500Y-65431007D01*
X131400500Y-65431004D01*
X131373581Y-65295677D01*
X131373580Y-65295676D01*
X131373580Y-65295672D01*
X131373578Y-65295667D01*
X131320778Y-65168195D01*
X131320771Y-65168182D01*
X131244114Y-65053458D01*
X131244111Y-65053454D01*
X131146545Y-64955888D01*
X131146541Y-64955885D01*
X131031817Y-64879228D01*
X131031804Y-64879221D01*
X130996410Y-64864561D01*
X130942006Y-64820720D01*
X130919941Y-64754426D01*
X130937220Y-64686727D01*
X130988357Y-64639116D01*
X130996410Y-64635439D01*
X131031804Y-64620778D01*
X131031804Y-64620777D01*
X131031811Y-64620775D01*
X131146542Y-64544114D01*
X131244114Y-64446542D01*
X131320775Y-64331811D01*
X131373580Y-64204328D01*
X131400500Y-64068993D01*
X131400500Y-63931007D01*
X131400500Y-63931004D01*
X131373581Y-63795677D01*
X131373580Y-63795676D01*
X131373580Y-63795672D01*
X131321109Y-63668995D01*
X131320778Y-63668195D01*
X131320771Y-63668182D01*
X131244114Y-63553458D01*
X131244111Y-63553454D01*
X131146545Y-63455888D01*
X131146541Y-63455885D01*
X131031817Y-63379228D01*
X131031804Y-63379221D01*
X130996410Y-63364561D01*
X130942006Y-63320720D01*
X130919941Y-63254426D01*
X130937220Y-63186727D01*
X130988357Y-63139116D01*
X130996410Y-63135439D01*
X131031804Y-63120778D01*
X131031804Y-63120777D01*
X131031811Y-63120775D01*
X131146542Y-63044114D01*
X131244114Y-62946542D01*
X131320775Y-62831811D01*
X131373580Y-62704328D01*
X131400500Y-62568993D01*
X131400500Y-62431007D01*
X131400500Y-62431004D01*
X131373581Y-62295677D01*
X131373580Y-62295676D01*
X131373580Y-62295672D01*
X131373578Y-62295667D01*
X131320778Y-62168195D01*
X131320771Y-62168182D01*
X131244114Y-62053458D01*
X131244111Y-62053454D01*
X131146545Y-61955888D01*
X131146541Y-61955885D01*
X131031817Y-61879228D01*
X131031804Y-61879221D01*
X130904332Y-61826421D01*
X130904322Y-61826418D01*
X130768995Y-61799500D01*
X130768993Y-61799500D01*
X130631007Y-61799500D01*
X130631005Y-61799500D01*
X130495677Y-61826418D01*
X130495667Y-61826421D01*
X130368195Y-61879221D01*
X130368182Y-61879228D01*
X130253458Y-61955885D01*
X130253454Y-61955888D01*
X130155888Y-62053454D01*
X130155885Y-62053458D01*
X130079228Y-62168182D01*
X130079221Y-62168195D01*
X130026421Y-62295667D01*
X130026418Y-62295677D01*
X129999500Y-62431004D01*
X129999500Y-62431007D01*
X129999500Y-62568993D01*
X129999500Y-62568995D01*
X129999499Y-62568995D01*
X86300500Y-62568995D01*
X86300500Y-60533389D01*
X88929500Y-60533389D01*
X88929500Y-60706611D01*
X88933364Y-60731007D01*
X88955218Y-60868993D01*
X88956598Y-60877701D01*
X89010127Y-61042445D01*
X89088768Y-61196788D01*
X89190586Y-61336928D01*
X89313072Y-61459414D01*
X89453212Y-61561232D01*
X89607555Y-61639873D01*
X89772299Y-61693402D01*
X89943389Y-61720500D01*
X89943390Y-61720500D01*
X90116610Y-61720500D01*
X90116611Y-61720500D01*
X90287701Y-61693402D01*
X90452445Y-61639873D01*
X90606788Y-61561232D01*
X90746928Y-61459414D01*
X90869414Y-61336928D01*
X90971232Y-61196788D01*
X91049873Y-61042445D01*
X91103402Y-60877701D01*
X91130500Y-60706611D01*
X91130500Y-60533389D01*
X91124490Y-60495441D01*
X102099500Y-60495441D01*
X102099500Y-60744558D01*
X102099501Y-60744575D01*
X102132017Y-60991561D01*
X102196498Y-61232207D01*
X102291830Y-61462361D01*
X102291837Y-61462376D01*
X102416400Y-61678126D01*
X102568060Y-61875774D01*
X102568066Y-61875781D01*
X102744218Y-62051933D01*
X102744225Y-62051939D01*
X102941873Y-62203599D01*
X103157623Y-62328162D01*
X103157638Y-62328169D01*
X103256825Y-62369253D01*
X103387793Y-62423502D01*
X103628435Y-62487982D01*
X103875435Y-62520500D01*
X103875442Y-62520500D01*
X104124558Y-62520500D01*
X104124565Y-62520500D01*
X104371565Y-62487982D01*
X104612207Y-62423502D01*
X104842373Y-62328164D01*
X105058127Y-62203599D01*
X105255776Y-62051938D01*
X105431938Y-61875776D01*
X105583599Y-61678127D01*
X105708164Y-61462373D01*
X105803502Y-61232207D01*
X105867982Y-60991565D01*
X105900500Y-60744565D01*
X105900500Y-60495435D01*
X105882972Y-60362299D01*
X105880322Y-60342166D01*
X105879261Y-60334108D01*
X107399500Y-60334108D01*
X107399500Y-60465892D01*
X107400117Y-60468195D01*
X107433608Y-60593187D01*
X107435040Y-60595667D01*
X107499500Y-60707314D01*
X107592686Y-60800500D01*
X107706814Y-60866392D01*
X107834108Y-60900500D01*
X107834110Y-60900500D01*
X107965890Y-60900500D01*
X107965892Y-60900500D01*
X108083471Y-60868995D01*
X123699499Y-60868995D01*
X123726418Y-61004322D01*
X123726421Y-61004332D01*
X123779221Y-61131804D01*
X123779228Y-61131817D01*
X123855885Y-61246541D01*
X123855888Y-61246545D01*
X123953454Y-61344111D01*
X123953458Y-61344114D01*
X124068182Y-61420771D01*
X124068195Y-61420778D01*
X124168623Y-61462376D01*
X124195672Y-61473580D01*
X124195676Y-61473580D01*
X124195677Y-61473581D01*
X124331004Y-61500500D01*
X124331007Y-61500500D01*
X124468995Y-61500500D01*
X124560041Y-61482389D01*
X124604328Y-61473580D01*
X124731811Y-61420775D01*
X124846542Y-61344114D01*
X124944114Y-61246542D01*
X125020775Y-61131811D01*
X125073580Y-61004328D01*
X125100500Y-60868993D01*
X125100500Y-60731007D01*
X125100500Y-60731004D01*
X125073581Y-60595677D01*
X125073580Y-60595676D01*
X125073580Y-60595672D01*
X125047782Y-60533389D01*
X125020778Y-60468195D01*
X125020771Y-60468182D01*
X124944114Y-60353458D01*
X124944111Y-60353454D01*
X124846545Y-60255888D01*
X124846541Y-60255885D01*
X124731817Y-60179228D01*
X124731804Y-60179221D01*
X124604332Y-60126421D01*
X124604322Y-60126418D01*
X124468995Y-60099500D01*
X124468993Y-60099500D01*
X124331007Y-60099500D01*
X124331005Y-60099500D01*
X124195677Y-60126418D01*
X124195667Y-60126421D01*
X124068195Y-60179221D01*
X124068182Y-60179228D01*
X123953458Y-60255885D01*
X123953454Y-60255888D01*
X123855888Y-60353454D01*
X123855885Y-60353458D01*
X123779228Y-60468182D01*
X123779221Y-60468195D01*
X123726421Y-60595667D01*
X123726418Y-60595677D01*
X123699500Y-60731004D01*
X123699500Y-60731007D01*
X123699500Y-60868993D01*
X123699500Y-60868995D01*
X123699499Y-60868995D01*
X108083471Y-60868995D01*
X108093186Y-60866392D01*
X108207314Y-60800500D01*
X108300500Y-60707314D01*
X108366392Y-60593186D01*
X108400500Y-60465892D01*
X108400500Y-60334108D01*
X108366392Y-60206814D01*
X108300500Y-60092686D01*
X108207314Y-59999500D01*
X108150250Y-59966554D01*
X108093187Y-59933608D01*
X108029539Y-59916554D01*
X107965892Y-59899500D01*
X107834108Y-59899500D01*
X107706812Y-59933608D01*
X107592686Y-59999500D01*
X107592683Y-59999502D01*
X107499502Y-60092683D01*
X107499500Y-60092686D01*
X107433608Y-60206812D01*
X107399500Y-60334108D01*
X105879261Y-60334108D01*
X105868963Y-60255886D01*
X105867982Y-60248435D01*
X105803502Y-60007793D01*
X105730605Y-59831804D01*
X105708169Y-59777638D01*
X105708166Y-59777632D01*
X105708164Y-59777627D01*
X105583599Y-59561873D01*
X105431938Y-59364224D01*
X105431933Y-59364218D01*
X105255781Y-59188066D01*
X105255774Y-59188060D01*
X105058126Y-59036400D01*
X104842376Y-58911837D01*
X104842361Y-58911830D01*
X104612207Y-58816498D01*
X104548770Y-58799500D01*
X104371565Y-58752018D01*
X104371564Y-58752017D01*
X104371561Y-58752017D01*
X104124575Y-58719501D01*
X104124570Y-58719500D01*
X104124565Y-58719500D01*
X103875435Y-58719500D01*
X103875429Y-58719500D01*
X103875424Y-58719501D01*
X103628438Y-58752017D01*
X103387792Y-58816498D01*
X103157638Y-58911830D01*
X103157623Y-58911837D01*
X102941873Y-59036400D01*
X102744225Y-59188060D01*
X102744218Y-59188066D01*
X102568066Y-59364218D01*
X102568060Y-59364225D01*
X102416400Y-59561873D01*
X102291839Y-59777622D01*
X102291830Y-59777638D01*
X102196498Y-60007792D01*
X102132017Y-60248438D01*
X102099501Y-60495424D01*
X102099500Y-60495441D01*
X91124490Y-60495441D01*
X91103402Y-60362299D01*
X91049873Y-60197555D01*
X90971232Y-60043212D01*
X90869414Y-59903072D01*
X90746928Y-59780586D01*
X90606788Y-59678768D01*
X90452445Y-59600127D01*
X90287701Y-59546598D01*
X90287699Y-59546597D01*
X90287698Y-59546597D01*
X90156271Y-59525781D01*
X90116611Y-59519500D01*
X89943389Y-59519500D01*
X89903728Y-59525781D01*
X89772302Y-59546597D01*
X89607552Y-59600128D01*
X89453211Y-59678768D01*
X89418026Y-59704332D01*
X89313072Y-59780586D01*
X89313070Y-59780588D01*
X89313069Y-59780588D01*
X89190588Y-59903069D01*
X89190588Y-59903070D01*
X89190586Y-59903072D01*
X89168400Y-59933608D01*
X89088768Y-60043211D01*
X89010128Y-60197552D01*
X88956597Y-60362302D01*
X88939826Y-60468195D01*
X88929500Y-60533389D01*
X86300500Y-60533389D01*
X86300500Y-56680097D01*
X102349500Y-56680097D01*
X102349500Y-56939902D01*
X102390140Y-57196493D01*
X102470422Y-57443576D01*
X102588368Y-57675054D01*
X102676002Y-57795672D01*
X102741069Y-57885229D01*
X102924771Y-58068931D01*
X103134949Y-58221634D01*
X103282445Y-58296787D01*
X103366423Y-58339577D01*
X103366425Y-58339577D01*
X103366428Y-58339579D01*
X103613507Y-58419860D01*
X103745706Y-58440797D01*
X103870098Y-58460500D01*
X103870103Y-58460500D01*
X104129902Y-58460500D01*
X104243298Y-58442539D01*
X104386493Y-58419860D01*
X104633572Y-58339579D01*
X104865051Y-58221634D01*
X105075229Y-58068931D01*
X105258931Y-57885229D01*
X105411634Y-57675051D01*
X105529579Y-57443572D01*
X105609860Y-57196493D01*
X105633994Y-57044114D01*
X105650500Y-56939902D01*
X105650500Y-56680097D01*
X105616573Y-56465892D01*
X105609860Y-56423507D01*
X105609859Y-56423503D01*
X105609859Y-56423502D01*
X105590623Y-56364299D01*
X105580813Y-56334108D01*
X122799500Y-56334108D01*
X122799500Y-56465891D01*
X122833608Y-56593187D01*
X122866554Y-56650250D01*
X122899500Y-56707314D01*
X122992686Y-56800500D01*
X123106814Y-56866392D01*
X123234108Y-56900500D01*
X123234110Y-56900500D01*
X123365890Y-56900500D01*
X123365892Y-56900500D01*
X123493186Y-56866392D01*
X123607314Y-56800500D01*
X123700500Y-56707314D01*
X123766392Y-56593186D01*
X123772874Y-56568995D01*
X129999499Y-56568995D01*
X130026418Y-56704322D01*
X130026421Y-56704332D01*
X130079221Y-56831804D01*
X130079228Y-56831817D01*
X130155885Y-56946541D01*
X130155888Y-56946545D01*
X130253454Y-57044111D01*
X130253458Y-57044114D01*
X130368182Y-57120771D01*
X130368186Y-57120773D01*
X130368189Y-57120775D01*
X130380114Y-57125714D01*
X130403590Y-57135439D01*
X130457994Y-57179280D01*
X130480058Y-57245575D01*
X130462778Y-57313274D01*
X130411641Y-57360884D01*
X130403590Y-57364561D01*
X130368192Y-57379223D01*
X130368182Y-57379228D01*
X130253458Y-57455885D01*
X130253454Y-57455888D01*
X130155888Y-57553454D01*
X130155885Y-57553458D01*
X130079228Y-57668182D01*
X130079221Y-57668195D01*
X130026421Y-57795667D01*
X130026418Y-57795677D01*
X129999500Y-57931004D01*
X129999500Y-57931007D01*
X129999500Y-58068993D01*
X129999500Y-58068995D01*
X129999499Y-58068995D01*
X130026418Y-58204322D01*
X130026421Y-58204332D01*
X130079221Y-58331804D01*
X130079228Y-58331817D01*
X130155885Y-58446541D01*
X130155888Y-58446545D01*
X130253454Y-58544111D01*
X130253458Y-58544114D01*
X130368182Y-58620771D01*
X130368186Y-58620773D01*
X130368189Y-58620775D01*
X130380114Y-58625714D01*
X130403590Y-58635439D01*
X130457994Y-58679280D01*
X130480058Y-58745575D01*
X130462778Y-58813274D01*
X130411641Y-58860884D01*
X130403590Y-58864561D01*
X130368192Y-58879223D01*
X130368182Y-58879228D01*
X130253458Y-58955885D01*
X130253454Y-58955888D01*
X130155888Y-59053454D01*
X130155885Y-59053458D01*
X130079228Y-59168182D01*
X130079221Y-59168195D01*
X130026421Y-59295667D01*
X130026418Y-59295677D01*
X129999500Y-59431004D01*
X129999500Y-59431007D01*
X129999500Y-59568993D01*
X129999500Y-59568995D01*
X129999499Y-59568995D01*
X130026418Y-59704322D01*
X130026421Y-59704332D01*
X130079221Y-59831804D01*
X130079228Y-59831817D01*
X130155885Y-59946541D01*
X130155888Y-59946545D01*
X130253454Y-60044111D01*
X130253458Y-60044114D01*
X130368182Y-60120771D01*
X130368195Y-60120778D01*
X130495667Y-60173578D01*
X130495672Y-60173580D01*
X130495676Y-60173580D01*
X130495677Y-60173581D01*
X130631004Y-60200500D01*
X130631007Y-60200500D01*
X130768995Y-60200500D01*
X130860041Y-60182389D01*
X130904328Y-60173580D01*
X131031811Y-60120775D01*
X131146542Y-60044114D01*
X131244114Y-59946542D01*
X131320775Y-59831811D01*
X131373580Y-59704328D01*
X131400500Y-59568993D01*
X131400500Y-59431007D01*
X131400500Y-59431004D01*
X131373581Y-59295677D01*
X131373580Y-59295676D01*
X131373580Y-59295672D01*
X131373578Y-59295667D01*
X131320778Y-59168195D01*
X131320771Y-59168182D01*
X131244114Y-59053458D01*
X131244111Y-59053454D01*
X131146545Y-58955888D01*
X131146541Y-58955885D01*
X131031817Y-58879228D01*
X131031804Y-58879221D01*
X130996410Y-58864561D01*
X130942006Y-58820720D01*
X130919941Y-58754426D01*
X130937220Y-58686727D01*
X130988357Y-58639116D01*
X130996410Y-58635439D01*
X131031804Y-58620778D01*
X131031804Y-58620777D01*
X131031811Y-58620775D01*
X131146542Y-58544114D01*
X131244114Y-58446542D01*
X131320775Y-58331811D01*
X131373580Y-58204328D01*
X131400500Y-58068993D01*
X131400500Y-57931007D01*
X131400500Y-57931004D01*
X131373581Y-57795677D01*
X131373580Y-57795676D01*
X131373580Y-57795672D01*
X131323619Y-57675054D01*
X131320778Y-57668195D01*
X131320771Y-57668182D01*
X131244114Y-57553458D01*
X131244111Y-57553454D01*
X131146545Y-57455888D01*
X131146541Y-57455885D01*
X131031817Y-57379228D01*
X131031804Y-57379221D01*
X130996410Y-57364561D01*
X130942006Y-57320720D01*
X130919941Y-57254426D01*
X130937220Y-57186727D01*
X130988357Y-57139116D01*
X130996410Y-57135439D01*
X131031804Y-57120778D01*
X131031804Y-57120777D01*
X131031811Y-57120775D01*
X131146542Y-57044114D01*
X131244114Y-56946542D01*
X131320775Y-56831811D01*
X131373580Y-56704328D01*
X131382389Y-56660041D01*
X131400500Y-56568995D01*
X131400500Y-56431004D01*
X131373581Y-56295677D01*
X131373580Y-56295676D01*
X131373580Y-56295672D01*
X131334159Y-56200500D01*
X131320778Y-56168195D01*
X131320771Y-56168182D01*
X131244114Y-56053458D01*
X131244111Y-56053454D01*
X131146545Y-55955888D01*
X131146541Y-55955885D01*
X131031817Y-55879228D01*
X131031804Y-55879221D01*
X130904332Y-55826421D01*
X130904322Y-55826418D01*
X130768995Y-55799500D01*
X130768993Y-55799500D01*
X130631007Y-55799500D01*
X130631005Y-55799500D01*
X130495677Y-55826418D01*
X130495667Y-55826421D01*
X130368195Y-55879221D01*
X130368182Y-55879228D01*
X130253458Y-55955885D01*
X130253454Y-55955888D01*
X130155888Y-56053454D01*
X130155885Y-56053458D01*
X130079228Y-56168182D01*
X130079221Y-56168195D01*
X130026421Y-56295667D01*
X130026418Y-56295677D01*
X129999500Y-56431004D01*
X129999500Y-56431007D01*
X129999500Y-56568993D01*
X129999500Y-56568995D01*
X129999499Y-56568995D01*
X123772874Y-56568995D01*
X123800500Y-56465892D01*
X123800500Y-56334108D01*
X123766392Y-56206814D01*
X123700500Y-56092686D01*
X123607314Y-55999500D01*
X123531771Y-55955885D01*
X123493187Y-55933608D01*
X123429539Y-55916554D01*
X123365892Y-55899500D01*
X123234108Y-55899500D01*
X123106812Y-55933608D01*
X122992686Y-55999500D01*
X122992683Y-55999502D01*
X122899502Y-56092683D01*
X122899500Y-56092686D01*
X122833608Y-56206812D01*
X122799500Y-56334108D01*
X105580813Y-56334108D01*
X105529577Y-56176423D01*
X105466920Y-56053454D01*
X105411634Y-55944949D01*
X105258931Y-55734771D01*
X105158268Y-55634108D01*
X108599500Y-55634108D01*
X108599500Y-55765891D01*
X108633608Y-55893187D01*
X108637253Y-55899500D01*
X108699500Y-56007314D01*
X108792686Y-56100500D01*
X108906814Y-56166392D01*
X109034108Y-56200500D01*
X109034110Y-56200500D01*
X109165890Y-56200500D01*
X109165892Y-56200500D01*
X109293186Y-56166392D01*
X109407314Y-56100500D01*
X109500500Y-56007314D01*
X109566392Y-55893186D01*
X109600500Y-55765892D01*
X109600500Y-55634108D01*
X109566392Y-55506814D01*
X109500500Y-55392686D01*
X109407314Y-55299500D01*
X109350250Y-55266554D01*
X109293187Y-55233608D01*
X109229539Y-55216554D01*
X109165892Y-55199500D01*
X109034108Y-55199500D01*
X108906812Y-55233608D01*
X108792686Y-55299500D01*
X108792683Y-55299502D01*
X108699502Y-55392683D01*
X108699500Y-55392686D01*
X108633608Y-55506812D01*
X108599500Y-55634108D01*
X105158268Y-55634108D01*
X105075229Y-55551069D01*
X105014317Y-55506814D01*
X104865054Y-55398368D01*
X104865053Y-55398367D01*
X104865051Y-55398366D01*
X104792764Y-55361534D01*
X104633576Y-55280422D01*
X104386493Y-55200140D01*
X104129902Y-55159500D01*
X104129897Y-55159500D01*
X103870103Y-55159500D01*
X103870098Y-55159500D01*
X103613506Y-55200140D01*
X103366423Y-55280422D01*
X103134945Y-55398368D01*
X102924774Y-55551066D01*
X102924768Y-55551071D01*
X102741071Y-55734768D01*
X102741066Y-55734774D01*
X102588368Y-55944945D01*
X102470422Y-56176423D01*
X102390140Y-56423506D01*
X102349500Y-56680097D01*
X86300500Y-56680097D01*
X86300500Y-52913389D01*
X94009500Y-52913389D01*
X94009500Y-53086610D01*
X94022419Y-53168182D01*
X94036598Y-53257701D01*
X94090127Y-53422445D01*
X94168768Y-53576788D01*
X94270586Y-53716928D01*
X94393072Y-53839414D01*
X94533212Y-53941232D01*
X94687555Y-54019873D01*
X94852299Y-54073402D01*
X95023389Y-54100500D01*
X95023390Y-54100500D01*
X95196610Y-54100500D01*
X95196611Y-54100500D01*
X95367701Y-54073402D01*
X95532445Y-54019873D01*
X95686788Y-53941232D01*
X95826928Y-53839414D01*
X95949414Y-53716928D01*
X96051232Y-53576788D01*
X96129873Y-53422445D01*
X96183402Y-53257701D01*
X96210500Y-53086611D01*
X96210500Y-52913389D01*
X96183402Y-52742299D01*
X96159584Y-52668995D01*
X128399499Y-52668995D01*
X128426418Y-52804322D01*
X128426421Y-52804332D01*
X128479221Y-52931804D01*
X128479228Y-52931817D01*
X128555885Y-53046541D01*
X128555888Y-53046545D01*
X128653454Y-53144111D01*
X128653458Y-53144114D01*
X128768182Y-53220771D01*
X128768195Y-53220778D01*
X128895667Y-53273578D01*
X128895672Y-53273580D01*
X128895676Y-53273580D01*
X128895677Y-53273581D01*
X129031004Y-53300500D01*
X129031007Y-53300500D01*
X129168995Y-53300500D01*
X129260041Y-53282389D01*
X129304328Y-53273580D01*
X129431811Y-53220775D01*
X129546542Y-53144114D01*
X129644114Y-53046542D01*
X129720775Y-52931811D01*
X129773580Y-52804328D01*
X129785918Y-52742302D01*
X129800500Y-52668995D01*
X129800500Y-52531004D01*
X129773581Y-52395677D01*
X129773580Y-52395676D01*
X129773580Y-52395672D01*
X129773578Y-52395667D01*
X129720778Y-52268195D01*
X129720771Y-52268182D01*
X129644114Y-52153458D01*
X129644111Y-52153454D01*
X129546545Y-52055888D01*
X129546541Y-52055885D01*
X129431817Y-51979228D01*
X129431804Y-51979221D01*
X129304332Y-51926421D01*
X129304322Y-51926418D01*
X129168995Y-51899500D01*
X129168993Y-51899500D01*
X129031007Y-51899500D01*
X129031005Y-51899500D01*
X128895677Y-51926418D01*
X128895667Y-51926421D01*
X128768195Y-51979221D01*
X128768182Y-51979228D01*
X128653458Y-52055885D01*
X128653454Y-52055888D01*
X128555888Y-52153454D01*
X128555885Y-52153458D01*
X128479228Y-52268182D01*
X128479221Y-52268195D01*
X128426421Y-52395667D01*
X128426418Y-52395677D01*
X128399500Y-52531004D01*
X128399500Y-52531007D01*
X128399500Y-52668993D01*
X128399500Y-52668995D01*
X128399499Y-52668995D01*
X96159584Y-52668995D01*
X96129873Y-52577555D01*
X96051232Y-52423212D01*
X96051231Y-52423211D01*
X95984829Y-52331817D01*
X95949414Y-52283072D01*
X95826928Y-52160586D01*
X95686788Y-52058768D01*
X95532445Y-51980127D01*
X95367701Y-51926598D01*
X95367699Y-51926597D01*
X95367698Y-51926597D01*
X95236271Y-51905781D01*
X95196611Y-51899500D01*
X95023389Y-51899500D01*
X94983728Y-51905781D01*
X94852302Y-51926597D01*
X94687552Y-51980128D01*
X94533211Y-52058768D01*
X94453256Y-52116859D01*
X94393072Y-52160586D01*
X94393070Y-52160588D01*
X94393069Y-52160588D01*
X94270588Y-52283069D01*
X94270588Y-52283070D01*
X94270586Y-52283072D01*
X94235180Y-52331804D01*
X94168768Y-52423211D01*
X94090128Y-52577552D01*
X94036597Y-52742302D01*
X94009500Y-52913389D01*
X86300500Y-52913389D01*
X86300500Y-50534108D01*
X108599500Y-50534108D01*
X108599500Y-50665891D01*
X108633608Y-50793187D01*
X108666554Y-50850250D01*
X108699500Y-50907314D01*
X108792686Y-51000500D01*
X108906814Y-51066392D01*
X109034108Y-51100500D01*
X109034110Y-51100500D01*
X109165890Y-51100500D01*
X109165892Y-51100500D01*
X109293186Y-51066392D01*
X109407314Y-51000500D01*
X109500500Y-50907314D01*
X109566392Y-50793186D01*
X109600500Y-50665892D01*
X109600500Y-50568995D01*
X129999499Y-50568995D01*
X130026418Y-50704322D01*
X130026421Y-50704332D01*
X130079221Y-50831804D01*
X130079228Y-50831817D01*
X130155885Y-50946541D01*
X130155888Y-50946545D01*
X130253454Y-51044111D01*
X130253458Y-51044114D01*
X130368182Y-51120771D01*
X130368186Y-51120773D01*
X130368189Y-51120775D01*
X130380114Y-51125714D01*
X130403590Y-51135439D01*
X130457994Y-51179280D01*
X130480058Y-51245575D01*
X130462778Y-51313274D01*
X130411641Y-51360884D01*
X130403590Y-51364561D01*
X130368192Y-51379223D01*
X130368182Y-51379228D01*
X130253458Y-51455885D01*
X130253454Y-51455888D01*
X130155888Y-51553454D01*
X130155885Y-51553458D01*
X130079228Y-51668182D01*
X130079221Y-51668195D01*
X130026421Y-51795667D01*
X130026418Y-51795677D01*
X129999500Y-51931004D01*
X129999500Y-51931007D01*
X129999500Y-52068993D01*
X129999500Y-52068995D01*
X129999499Y-52068995D01*
X130026418Y-52204322D01*
X130026421Y-52204332D01*
X130079221Y-52331804D01*
X130079228Y-52331817D01*
X130155885Y-52446541D01*
X130155888Y-52446545D01*
X130253454Y-52544111D01*
X130253458Y-52544114D01*
X130368182Y-52620771D01*
X130368186Y-52620773D01*
X130368189Y-52620775D01*
X130380114Y-52625714D01*
X130403590Y-52635439D01*
X130457994Y-52679280D01*
X130480058Y-52745575D01*
X130462778Y-52813274D01*
X130411641Y-52860884D01*
X130403590Y-52864561D01*
X130368192Y-52879223D01*
X130368182Y-52879228D01*
X130253458Y-52955885D01*
X130253454Y-52955888D01*
X130155888Y-53053454D01*
X130155885Y-53053458D01*
X130079228Y-53168182D01*
X130079221Y-53168195D01*
X130026421Y-53295667D01*
X130026418Y-53295677D01*
X129999500Y-53431004D01*
X129999500Y-53431007D01*
X129999500Y-53568993D01*
X129999500Y-53568995D01*
X129999499Y-53568995D01*
X130026418Y-53704322D01*
X130026421Y-53704332D01*
X130079221Y-53831804D01*
X130079228Y-53831817D01*
X130155885Y-53946541D01*
X130155888Y-53946545D01*
X130253454Y-54044111D01*
X130253458Y-54044114D01*
X130368182Y-54120771D01*
X130368195Y-54120778D01*
X130495667Y-54173578D01*
X130495672Y-54173580D01*
X130495676Y-54173580D01*
X130495677Y-54173581D01*
X130631004Y-54200500D01*
X130631007Y-54200500D01*
X130768995Y-54200500D01*
X130860041Y-54182389D01*
X130904328Y-54173580D01*
X131031811Y-54120775D01*
X131146542Y-54044114D01*
X131244114Y-53946542D01*
X131320775Y-53831811D01*
X131373580Y-53704328D01*
X131382389Y-53660041D01*
X131400500Y-53568995D01*
X131400500Y-53431004D01*
X131373581Y-53295677D01*
X131373580Y-53295676D01*
X131373580Y-53295672D01*
X131364429Y-53273580D01*
X131320778Y-53168195D01*
X131320771Y-53168182D01*
X131244114Y-53053458D01*
X131244111Y-53053454D01*
X131146545Y-52955888D01*
X131146541Y-52955885D01*
X131031817Y-52879228D01*
X131031804Y-52879221D01*
X130996410Y-52864561D01*
X130942006Y-52820720D01*
X130919941Y-52754426D01*
X130937220Y-52686727D01*
X130988357Y-52639116D01*
X130996410Y-52635439D01*
X131031804Y-52620778D01*
X131031804Y-52620777D01*
X131031811Y-52620775D01*
X131146542Y-52544114D01*
X131244114Y-52446542D01*
X131320775Y-52331811D01*
X131373580Y-52204328D01*
X131400500Y-52068993D01*
X131400500Y-51931007D01*
X131400500Y-51931004D01*
X131373581Y-51795677D01*
X131373580Y-51795676D01*
X131373580Y-51795672D01*
X131373578Y-51795667D01*
X131320778Y-51668195D01*
X131320771Y-51668182D01*
X131244114Y-51553458D01*
X131244111Y-51553454D01*
X131146545Y-51455888D01*
X131146541Y-51455885D01*
X131031817Y-51379228D01*
X131031804Y-51379221D01*
X130996410Y-51364561D01*
X130942006Y-51320720D01*
X130919941Y-51254426D01*
X130937220Y-51186727D01*
X130988357Y-51139116D01*
X130996410Y-51135439D01*
X131031804Y-51120778D01*
X131031804Y-51120777D01*
X131031811Y-51120775D01*
X131146542Y-51044114D01*
X131244114Y-50946542D01*
X131320775Y-50831811D01*
X131373580Y-50704328D01*
X131400500Y-50568993D01*
X131400500Y-50431007D01*
X131400500Y-50431004D01*
X131373581Y-50295677D01*
X131373580Y-50295676D01*
X131373580Y-50295672D01*
X131353230Y-50246542D01*
X131320778Y-50168195D01*
X131320771Y-50168182D01*
X131244114Y-50053458D01*
X131244111Y-50053454D01*
X131146545Y-49955888D01*
X131146541Y-49955885D01*
X131031817Y-49879228D01*
X131031804Y-49879221D01*
X130904332Y-49826421D01*
X130904322Y-49826418D01*
X130768995Y-49799500D01*
X130768993Y-49799500D01*
X130631007Y-49799500D01*
X130631005Y-49799500D01*
X130495677Y-49826418D01*
X130495667Y-49826421D01*
X130368195Y-49879221D01*
X130368182Y-49879228D01*
X130253458Y-49955885D01*
X130253454Y-49955888D01*
X130155888Y-50053454D01*
X130155885Y-50053458D01*
X130079228Y-50168182D01*
X130079221Y-50168195D01*
X130026421Y-50295667D01*
X130026418Y-50295677D01*
X129999500Y-50431004D01*
X129999500Y-50431007D01*
X129999500Y-50568993D01*
X129999500Y-50568995D01*
X129999499Y-50568995D01*
X109600500Y-50568995D01*
X109600500Y-50534108D01*
X109566392Y-50406814D01*
X109500500Y-50292686D01*
X109407314Y-50199500D01*
X109350250Y-50166554D01*
X109293187Y-50133608D01*
X109229539Y-50116554D01*
X109165892Y-50099500D01*
X109034108Y-50099500D01*
X108906812Y-50133608D01*
X108792686Y-50199500D01*
X108792683Y-50199502D01*
X108699502Y-50292683D01*
X108699500Y-50292686D01*
X108633608Y-50406812D01*
X108599500Y-50534108D01*
X86300500Y-50534108D01*
X86300500Y-49868995D01*
X123699499Y-49868995D01*
X123726418Y-50004322D01*
X123726421Y-50004332D01*
X123779221Y-50131804D01*
X123779228Y-50131817D01*
X123855885Y-50246541D01*
X123855888Y-50246545D01*
X123953454Y-50344111D01*
X123953458Y-50344114D01*
X124068182Y-50420771D01*
X124068195Y-50420778D01*
X124195667Y-50473578D01*
X124195672Y-50473580D01*
X124195676Y-50473580D01*
X124195677Y-50473581D01*
X124331004Y-50500500D01*
X124331007Y-50500500D01*
X124468995Y-50500500D01*
X124560041Y-50482389D01*
X124604328Y-50473580D01*
X124731811Y-50420775D01*
X124846542Y-50344114D01*
X124846545Y-50344111D01*
X124853423Y-50337234D01*
X124944111Y-50246545D01*
X124944114Y-50246542D01*
X125020775Y-50131811D01*
X125073580Y-50004328D01*
X125100500Y-49868993D01*
X125100500Y-49731007D01*
X125100500Y-49731004D01*
X125073581Y-49595677D01*
X125073580Y-49595676D01*
X125073580Y-49595672D01*
X125073578Y-49595667D01*
X125020778Y-49468195D01*
X125020771Y-49468182D01*
X124944114Y-49353458D01*
X124944111Y-49353454D01*
X124846545Y-49255888D01*
X124846541Y-49255885D01*
X124731817Y-49179228D01*
X124731804Y-49179221D01*
X124604332Y-49126421D01*
X124604322Y-49126418D01*
X124468995Y-49099500D01*
X124468993Y-49099500D01*
X124331007Y-49099500D01*
X124331005Y-49099500D01*
X124195677Y-49126418D01*
X124195667Y-49126421D01*
X124068195Y-49179221D01*
X124068182Y-49179228D01*
X123953458Y-49255885D01*
X123953454Y-49255888D01*
X123855888Y-49353454D01*
X123855885Y-49353458D01*
X123779228Y-49468182D01*
X123779221Y-49468195D01*
X123726421Y-49595667D01*
X123726418Y-49595677D01*
X123699500Y-49731004D01*
X123699500Y-49731007D01*
X123699500Y-49868993D01*
X123699500Y-49868995D01*
X123699499Y-49868995D01*
X86300500Y-49868995D01*
X86300500Y-47234108D01*
X109899500Y-47234108D01*
X109899500Y-47365892D01*
X109909750Y-47404147D01*
X109933608Y-47493187D01*
X109966554Y-47550250D01*
X109999500Y-47607314D01*
X110092686Y-47700500D01*
X110206814Y-47766392D01*
X110334108Y-47800500D01*
X110334110Y-47800500D01*
X110465890Y-47800500D01*
X110465892Y-47800500D01*
X110593186Y-47766392D01*
X110707314Y-47700500D01*
X110800500Y-47607314D01*
X110866392Y-47493186D01*
X110880225Y-47441556D01*
X110916590Y-47381897D01*
X110979436Y-47351368D01*
X111048812Y-47359662D01*
X111102690Y-47404147D01*
X111119773Y-47441555D01*
X111129072Y-47476259D01*
X111133608Y-47493187D01*
X111166554Y-47550250D01*
X111199500Y-47607314D01*
X111292686Y-47700500D01*
X111406814Y-47766392D01*
X111534108Y-47800500D01*
X111534110Y-47800500D01*
X111665890Y-47800500D01*
X111665892Y-47800500D01*
X111793186Y-47766392D01*
X111907314Y-47700500D01*
X112000500Y-47607314D01*
X112066392Y-47493186D01*
X112100500Y-47365892D01*
X112100500Y-47234108D01*
X112066392Y-47106814D01*
X112000500Y-46992686D01*
X111907314Y-46899500D01*
X111840429Y-46860884D01*
X111793187Y-46833608D01*
X111717298Y-46813274D01*
X111665892Y-46799500D01*
X111534108Y-46799500D01*
X111406812Y-46833608D01*
X111292686Y-46899500D01*
X111292683Y-46899502D01*
X111199502Y-46992683D01*
X111199500Y-46992686D01*
X111133608Y-47106812D01*
X111119775Y-47158441D01*
X111083410Y-47218102D01*
X111020563Y-47248631D01*
X110951188Y-47240336D01*
X110897310Y-47195851D01*
X110880225Y-47158441D01*
X110866391Y-47106812D01*
X110857563Y-47091521D01*
X110800500Y-46992686D01*
X110707314Y-46899500D01*
X110640429Y-46860884D01*
X110593187Y-46833608D01*
X110517298Y-46813274D01*
X110465892Y-46799500D01*
X110334108Y-46799500D01*
X110206812Y-46833608D01*
X110092686Y-46899500D01*
X110092683Y-46899502D01*
X109999502Y-46992683D01*
X109999500Y-46992686D01*
X109933608Y-47106812D01*
X109917161Y-47168195D01*
X109899500Y-47234108D01*
X86300500Y-47234108D01*
X86300500Y-45299108D01*
X122834500Y-45299108D01*
X122834500Y-45430891D01*
X122868608Y-45558187D01*
X122901554Y-45615250D01*
X122934500Y-45672314D01*
X123027686Y-45765500D01*
X123141814Y-45831392D01*
X123269108Y-45865500D01*
X123269110Y-45865500D01*
X123400890Y-45865500D01*
X123400892Y-45865500D01*
X123528186Y-45831392D01*
X123642314Y-45765500D01*
X123735500Y-45672314D01*
X123801392Y-45558186D01*
X123835500Y-45430892D01*
X123835500Y-45299108D01*
X123801392Y-45171814D01*
X123735500Y-45057686D01*
X123642314Y-44964500D01*
X123585250Y-44931554D01*
X123528187Y-44898608D01*
X123464539Y-44881554D01*
X123400892Y-44864500D01*
X123269108Y-44864500D01*
X123141812Y-44898608D01*
X123027686Y-44964500D01*
X123027683Y-44964502D01*
X122934502Y-45057683D01*
X122934500Y-45057686D01*
X122868608Y-45171812D01*
X122834500Y-45299108D01*
X86300500Y-45299108D01*
X86300500Y-44568995D01*
X129999499Y-44568995D01*
X130026418Y-44704322D01*
X130026421Y-44704332D01*
X130079221Y-44831804D01*
X130079228Y-44831817D01*
X130155885Y-44946541D01*
X130155888Y-44946545D01*
X130253454Y-45044111D01*
X130253458Y-45044114D01*
X130368182Y-45120771D01*
X130368186Y-45120773D01*
X130368189Y-45120775D01*
X130380114Y-45125714D01*
X130403590Y-45135439D01*
X130457994Y-45179280D01*
X130480058Y-45245575D01*
X130462778Y-45313274D01*
X130411641Y-45360884D01*
X130403590Y-45364561D01*
X130368192Y-45379223D01*
X130368182Y-45379228D01*
X130253458Y-45455885D01*
X130253454Y-45455888D01*
X130155888Y-45553454D01*
X130155885Y-45553458D01*
X130079228Y-45668182D01*
X130079221Y-45668195D01*
X130026421Y-45795667D01*
X130026418Y-45795677D01*
X129999500Y-45931004D01*
X129999500Y-45931007D01*
X129999500Y-46068993D01*
X129999500Y-46068995D01*
X129999499Y-46068995D01*
X130026418Y-46204322D01*
X130026421Y-46204332D01*
X130079221Y-46331804D01*
X130079228Y-46331817D01*
X130155885Y-46446541D01*
X130155888Y-46446545D01*
X130253454Y-46544111D01*
X130253458Y-46544114D01*
X130368182Y-46620771D01*
X130368186Y-46620773D01*
X130368189Y-46620775D01*
X130380114Y-46625714D01*
X130403590Y-46635439D01*
X130457994Y-46679280D01*
X130480058Y-46745575D01*
X130462778Y-46813274D01*
X130411641Y-46860884D01*
X130403590Y-46864561D01*
X130368192Y-46879223D01*
X130368182Y-46879228D01*
X130253458Y-46955885D01*
X130253454Y-46955888D01*
X130155888Y-47053454D01*
X130155885Y-47053458D01*
X130079228Y-47168182D01*
X130079221Y-47168195D01*
X130026421Y-47295667D01*
X130026418Y-47295677D01*
X129999500Y-47431004D01*
X129999500Y-47431007D01*
X129999500Y-47568993D01*
X129999500Y-47568995D01*
X129999499Y-47568995D01*
X130026418Y-47704322D01*
X130026421Y-47704332D01*
X130079221Y-47831804D01*
X130079228Y-47831817D01*
X130155885Y-47946541D01*
X130155888Y-47946545D01*
X130253454Y-48044111D01*
X130253458Y-48044114D01*
X130368182Y-48120771D01*
X130368195Y-48120778D01*
X130495667Y-48173578D01*
X130495672Y-48173580D01*
X130495676Y-48173580D01*
X130495677Y-48173581D01*
X130631004Y-48200500D01*
X130631007Y-48200500D01*
X130768995Y-48200500D01*
X130860041Y-48182389D01*
X130904328Y-48173580D01*
X131031811Y-48120775D01*
X131146542Y-48044114D01*
X131244114Y-47946542D01*
X131320775Y-47831811D01*
X131373580Y-47704328D01*
X131392877Y-47607316D01*
X131400500Y-47568995D01*
X131400500Y-47431004D01*
X131373581Y-47295677D01*
X131373580Y-47295676D01*
X131373580Y-47295672D01*
X131350659Y-47240336D01*
X131320778Y-47168195D01*
X131320771Y-47168182D01*
X131244114Y-47053458D01*
X131244111Y-47053454D01*
X131146545Y-46955888D01*
X131146541Y-46955885D01*
X131031817Y-46879228D01*
X131031804Y-46879221D01*
X130996410Y-46864561D01*
X130942006Y-46820720D01*
X130919941Y-46754426D01*
X130937220Y-46686727D01*
X130988357Y-46639116D01*
X130996410Y-46635439D01*
X131031804Y-46620778D01*
X131031804Y-46620777D01*
X131031811Y-46620775D01*
X131146542Y-46544114D01*
X131244114Y-46446542D01*
X131320775Y-46331811D01*
X131373580Y-46204328D01*
X131400500Y-46068993D01*
X131400500Y-45931007D01*
X131400500Y-45931004D01*
X131373581Y-45795677D01*
X131373580Y-45795676D01*
X131373580Y-45795672D01*
X131373578Y-45795667D01*
X131320778Y-45668195D01*
X131320771Y-45668182D01*
X131244114Y-45553458D01*
X131244111Y-45553454D01*
X131146545Y-45455888D01*
X131146541Y-45455885D01*
X131031817Y-45379228D01*
X131031804Y-45379221D01*
X130996410Y-45364561D01*
X130942006Y-45320720D01*
X130919941Y-45254426D01*
X130937220Y-45186727D01*
X130988357Y-45139116D01*
X130996410Y-45135439D01*
X131031804Y-45120778D01*
X131031804Y-45120777D01*
X131031811Y-45120775D01*
X131146542Y-45044114D01*
X131244114Y-44946542D01*
X131320775Y-44831811D01*
X131373580Y-44704328D01*
X131400500Y-44568993D01*
X131400500Y-44431007D01*
X131400500Y-44431004D01*
X131373581Y-44295677D01*
X131373580Y-44295676D01*
X131373580Y-44295672D01*
X131373578Y-44295667D01*
X131320778Y-44168195D01*
X131320771Y-44168182D01*
X131244114Y-44053458D01*
X131244111Y-44053454D01*
X131146545Y-43955888D01*
X131146541Y-43955885D01*
X131031817Y-43879228D01*
X131031804Y-43879221D01*
X130904332Y-43826421D01*
X130904322Y-43826418D01*
X130768995Y-43799500D01*
X130768993Y-43799500D01*
X130631007Y-43799500D01*
X130631005Y-43799500D01*
X130495677Y-43826418D01*
X130495667Y-43826421D01*
X130368195Y-43879221D01*
X130368182Y-43879228D01*
X130253458Y-43955885D01*
X130253454Y-43955888D01*
X130155888Y-44053454D01*
X130155885Y-44053458D01*
X130079228Y-44168182D01*
X130079221Y-44168195D01*
X130026421Y-44295667D01*
X130026418Y-44295677D01*
X129999500Y-44431004D01*
X129999500Y-44431007D01*
X129999500Y-44568993D01*
X129999500Y-44568995D01*
X129999499Y-44568995D01*
X86300500Y-44568995D01*
X86300500Y-42230985D01*
X99305500Y-42230985D01*
X99305500Y-42419014D01*
X99342179Y-42603409D01*
X99342182Y-42603421D01*
X99414129Y-42777118D01*
X99414136Y-42777131D01*
X99518591Y-42933457D01*
X99518594Y-42933461D01*
X99651538Y-43066405D01*
X99651542Y-43066408D01*
X99807868Y-43170863D01*
X99807881Y-43170870D01*
X99981578Y-43242817D01*
X99981583Y-43242819D01*
X100165985Y-43279499D01*
X100165988Y-43279500D01*
X100165990Y-43279500D01*
X100354012Y-43279500D01*
X100354013Y-43279499D01*
X100538417Y-43242819D01*
X100712125Y-43170867D01*
X100868458Y-43066408D01*
X101001408Y-42933458D01*
X101105867Y-42777125D01*
X101177819Y-42603417D01*
X101214500Y-42419010D01*
X101214500Y-42230990D01*
X101214500Y-42230987D01*
X101214499Y-42230985D01*
X104385500Y-42230985D01*
X104385500Y-42419014D01*
X104422179Y-42603409D01*
X104422182Y-42603421D01*
X104494129Y-42777118D01*
X104494136Y-42777131D01*
X104598591Y-42933457D01*
X104598594Y-42933461D01*
X104731538Y-43066405D01*
X104731542Y-43066408D01*
X104887868Y-43170863D01*
X104887881Y-43170870D01*
X105061578Y-43242817D01*
X105061583Y-43242819D01*
X105245985Y-43279499D01*
X105245988Y-43279500D01*
X105245990Y-43279500D01*
X105434012Y-43279500D01*
X105434013Y-43279499D01*
X105618417Y-43242819D01*
X105792125Y-43170867D01*
X105948458Y-43066408D01*
X106081408Y-42933458D01*
X106185867Y-42777125D01*
X106257819Y-42603417D01*
X106294500Y-42419010D01*
X106294500Y-42230990D01*
X106294500Y-42230987D01*
X106294499Y-42230985D01*
X106288435Y-42200500D01*
X106257819Y-42046583D01*
X106256795Y-42044111D01*
X106185870Y-41872881D01*
X106185863Y-41872868D01*
X106081408Y-41716542D01*
X106081405Y-41716538D01*
X105948461Y-41583594D01*
X105948457Y-41583591D01*
X105792131Y-41479136D01*
X105792118Y-41479129D01*
X105618421Y-41407182D01*
X105618409Y-41407179D01*
X105434013Y-41370500D01*
X105434010Y-41370500D01*
X105245990Y-41370500D01*
X105245987Y-41370500D01*
X105061590Y-41407179D01*
X105061578Y-41407182D01*
X104887881Y-41479129D01*
X104887868Y-41479136D01*
X104731542Y-41583591D01*
X104731538Y-41583594D01*
X104598594Y-41716538D01*
X104598591Y-41716542D01*
X104494136Y-41872868D01*
X104494129Y-41872881D01*
X104422182Y-42046578D01*
X104422179Y-42046590D01*
X104385500Y-42230985D01*
X101214499Y-42230985D01*
X101208435Y-42200500D01*
X101177819Y-42046583D01*
X101176795Y-42044111D01*
X101105870Y-41872881D01*
X101105863Y-41872868D01*
X101001408Y-41716542D01*
X101001405Y-41716538D01*
X100868461Y-41583594D01*
X100868457Y-41583591D01*
X100712131Y-41479136D01*
X100712118Y-41479129D01*
X100538421Y-41407182D01*
X100538409Y-41407179D01*
X100354013Y-41370500D01*
X100354010Y-41370500D01*
X100165990Y-41370500D01*
X100165987Y-41370500D01*
X99981590Y-41407179D01*
X99981578Y-41407182D01*
X99807881Y-41479129D01*
X99807868Y-41479136D01*
X99651542Y-41583591D01*
X99651538Y-41583594D01*
X99518594Y-41716538D01*
X99518591Y-41716542D01*
X99414136Y-41872868D01*
X99414129Y-41872881D01*
X99342182Y-42046578D01*
X99342179Y-42046590D01*
X99305500Y-42230985D01*
X86300500Y-42230985D01*
X86300500Y-40003051D01*
X86300649Y-39996966D01*
X86307263Y-39862332D01*
X116899500Y-39862332D01*
X116899500Y-40137667D01*
X116899501Y-40137684D01*
X116935438Y-40410655D01*
X116935439Y-40410660D01*
X116935440Y-40410666D01*
X116935441Y-40410668D01*
X117006704Y-40676630D01*
X117112075Y-40931017D01*
X117112080Y-40931028D01*
X117182764Y-41053454D01*
X117249751Y-41169479D01*
X117249753Y-41169482D01*
X117249754Y-41169483D01*
X117417370Y-41387926D01*
X117417376Y-41387933D01*
X117612066Y-41582623D01*
X117612072Y-41582628D01*
X117830521Y-41750249D01*
X117971778Y-41831804D01*
X118068971Y-41887919D01*
X118068976Y-41887921D01*
X118068979Y-41887923D01*
X118323368Y-41993295D01*
X118589334Y-42064560D01*
X118862326Y-42100500D01*
X118862333Y-42100500D01*
X119137667Y-42100500D01*
X119137674Y-42100500D01*
X119410666Y-42064560D01*
X119676632Y-41993295D01*
X119931021Y-41887923D01*
X120169479Y-41750249D01*
X120387928Y-41582628D01*
X120582628Y-41387928D01*
X120750249Y-41169479D01*
X120887923Y-40931021D01*
X120993295Y-40676632D01*
X121064560Y-40410666D01*
X121100500Y-40137674D01*
X121100500Y-39862326D01*
X121064560Y-39589334D01*
X120993295Y-39323368D01*
X120887923Y-39068979D01*
X120887921Y-39068976D01*
X120887919Y-39068971D01*
X120838732Y-38983778D01*
X120750249Y-38830521D01*
X120582628Y-38612072D01*
X120582623Y-38612066D01*
X120539552Y-38568995D01*
X129999499Y-38568995D01*
X130026418Y-38704322D01*
X130026421Y-38704332D01*
X130079221Y-38831804D01*
X130079228Y-38831817D01*
X130155885Y-38946541D01*
X130155888Y-38946545D01*
X130253454Y-39044111D01*
X130253458Y-39044114D01*
X130368182Y-39120771D01*
X130368186Y-39120773D01*
X130368189Y-39120775D01*
X130380114Y-39125714D01*
X130403590Y-39135439D01*
X130457994Y-39179280D01*
X130480058Y-39245575D01*
X130462778Y-39313274D01*
X130411641Y-39360884D01*
X130403590Y-39364561D01*
X130368192Y-39379223D01*
X130368182Y-39379228D01*
X130253458Y-39455885D01*
X130253454Y-39455888D01*
X130155888Y-39553454D01*
X130155885Y-39553458D01*
X130079228Y-39668182D01*
X130079221Y-39668195D01*
X130026421Y-39795667D01*
X130026418Y-39795677D01*
X129999500Y-39931004D01*
X129999500Y-39931007D01*
X129999500Y-40068993D01*
X129999500Y-40068995D01*
X129999499Y-40068995D01*
X130026418Y-40204322D01*
X130026421Y-40204332D01*
X130079221Y-40331804D01*
X130079228Y-40331817D01*
X130155885Y-40446541D01*
X130155888Y-40446545D01*
X130253454Y-40544111D01*
X130253458Y-40544114D01*
X130368182Y-40620771D01*
X130368186Y-40620773D01*
X130368189Y-40620775D01*
X130380114Y-40625714D01*
X130403590Y-40635439D01*
X130457994Y-40679280D01*
X130480058Y-40745575D01*
X130462778Y-40813274D01*
X130411641Y-40860884D01*
X130403590Y-40864561D01*
X130368192Y-40879223D01*
X130368182Y-40879228D01*
X130253458Y-40955885D01*
X130253454Y-40955888D01*
X130155888Y-41053454D01*
X130155885Y-41053458D01*
X130079228Y-41168182D01*
X130079221Y-41168195D01*
X130026421Y-41295667D01*
X130026418Y-41295677D01*
X129999500Y-41431004D01*
X129999500Y-41431007D01*
X129999500Y-41568993D01*
X129999500Y-41568995D01*
X129999499Y-41568995D01*
X130026418Y-41704322D01*
X130026421Y-41704332D01*
X130079221Y-41831804D01*
X130079228Y-41831817D01*
X130155885Y-41946541D01*
X130155888Y-41946545D01*
X130253454Y-42044111D01*
X130253458Y-42044114D01*
X130368182Y-42120771D01*
X130368195Y-42120778D01*
X130495667Y-42173578D01*
X130495672Y-42173580D01*
X130495676Y-42173580D01*
X130495677Y-42173581D01*
X130631004Y-42200500D01*
X130631007Y-42200500D01*
X130768995Y-42200500D01*
X130860041Y-42182389D01*
X130904328Y-42173580D01*
X131031811Y-42120775D01*
X131146542Y-42044114D01*
X131244114Y-41946542D01*
X131320775Y-41831811D01*
X131373580Y-41704328D01*
X131397596Y-41583592D01*
X131400500Y-41568995D01*
X131400500Y-41431004D01*
X131373581Y-41295677D01*
X131373580Y-41295676D01*
X131373580Y-41295672D01*
X131373578Y-41295667D01*
X131320778Y-41168195D01*
X131320771Y-41168182D01*
X131244114Y-41053458D01*
X131244111Y-41053454D01*
X131146545Y-40955888D01*
X131146541Y-40955885D01*
X131031817Y-40879228D01*
X131031804Y-40879221D01*
X130996410Y-40864561D01*
X130942006Y-40820720D01*
X130919941Y-40754426D01*
X130937220Y-40686727D01*
X130988357Y-40639116D01*
X130996410Y-40635439D01*
X131031804Y-40620778D01*
X131031804Y-40620777D01*
X131031811Y-40620775D01*
X131146542Y-40544114D01*
X131244114Y-40446542D01*
X131320775Y-40331811D01*
X131373580Y-40204328D01*
X131382389Y-40160041D01*
X131400500Y-40068995D01*
X131400500Y-39931004D01*
X131373581Y-39795677D01*
X131373580Y-39795676D01*
X131373580Y-39795672D01*
X131373578Y-39795667D01*
X131320778Y-39668195D01*
X131320771Y-39668182D01*
X131244114Y-39553458D01*
X131244111Y-39553454D01*
X131146545Y-39455888D01*
X131146541Y-39455885D01*
X131031817Y-39379228D01*
X131031804Y-39379221D01*
X130996410Y-39364561D01*
X130942006Y-39320720D01*
X130919941Y-39254426D01*
X130937220Y-39186727D01*
X130988357Y-39139116D01*
X130996410Y-39135439D01*
X131031804Y-39120778D01*
X131031804Y-39120777D01*
X131031811Y-39120775D01*
X131146542Y-39044114D01*
X131244114Y-38946542D01*
X131320775Y-38831811D01*
X131321312Y-38830516D01*
X131373578Y-38704332D01*
X131373580Y-38704328D01*
X131400500Y-38568993D01*
X131400500Y-38431007D01*
X131400500Y-38431004D01*
X131373581Y-38295677D01*
X131373580Y-38295676D01*
X131373580Y-38295672D01*
X131359455Y-38261570D01*
X131320778Y-38168195D01*
X131320771Y-38168182D01*
X131244114Y-38053458D01*
X131244111Y-38053454D01*
X131146545Y-37955888D01*
X131146541Y-37955885D01*
X131031817Y-37879228D01*
X131031804Y-37879221D01*
X130904332Y-37826421D01*
X130904322Y-37826418D01*
X130768995Y-37799500D01*
X130768993Y-37799500D01*
X130631007Y-37799500D01*
X130631005Y-37799500D01*
X130495677Y-37826418D01*
X130495667Y-37826421D01*
X130368195Y-37879221D01*
X130368182Y-37879228D01*
X130253458Y-37955885D01*
X130253454Y-37955888D01*
X130155888Y-38053454D01*
X130155885Y-38053458D01*
X130079228Y-38168182D01*
X130079221Y-38168195D01*
X130026421Y-38295667D01*
X130026418Y-38295677D01*
X129999500Y-38431004D01*
X129999500Y-38431007D01*
X129999500Y-38568993D01*
X129999500Y-38568995D01*
X129999499Y-38568995D01*
X120539552Y-38568995D01*
X120387933Y-38417376D01*
X120387926Y-38417370D01*
X120169483Y-38249754D01*
X120169482Y-38249753D01*
X120169479Y-38249751D01*
X120074407Y-38194861D01*
X119931028Y-38112080D01*
X119931017Y-38112075D01*
X119676630Y-38006704D01*
X119486979Y-37955888D01*
X119410666Y-37935440D01*
X119410660Y-37935439D01*
X119410655Y-37935438D01*
X119137684Y-37899501D01*
X119137679Y-37899500D01*
X119137674Y-37899500D01*
X118862326Y-37899500D01*
X118862320Y-37899500D01*
X118862315Y-37899501D01*
X118589344Y-37935438D01*
X118589337Y-37935439D01*
X118589334Y-37935440D01*
X118535379Y-37949897D01*
X118323369Y-38006704D01*
X118068982Y-38112075D01*
X118068971Y-38112080D01*
X117830516Y-38249754D01*
X117612073Y-38417370D01*
X117612066Y-38417376D01*
X117417376Y-38612066D01*
X117417370Y-38612073D01*
X117249754Y-38830516D01*
X117112080Y-39068971D01*
X117112075Y-39068982D01*
X117006704Y-39323369D01*
X116935441Y-39589331D01*
X116935438Y-39589344D01*
X116899501Y-39862315D01*
X116899500Y-39862332D01*
X86307263Y-39862332D01*
X86307762Y-39852182D01*
X86307762Y-39852181D01*
X86318015Y-39643469D01*
X86319208Y-39631359D01*
X86325442Y-39589331D01*
X86370692Y-39284278D01*
X86373061Y-39272367D01*
X86458322Y-38931986D01*
X86461852Y-38920353D01*
X86493997Y-38830516D01*
X86580055Y-38589999D01*
X86584710Y-38578762D01*
X86718598Y-38295677D01*
X86734735Y-38261557D01*
X86740454Y-38250857D01*
X86920851Y-37949884D01*
X86927594Y-37939791D01*
X87136630Y-37657939D01*
X87144333Y-37648554D01*
X87379983Y-37388553D01*
X87388553Y-37379983D01*
X87648554Y-37144333D01*
X87657939Y-37136630D01*
X87939791Y-36927594D01*
X87949884Y-36920851D01*
X88250857Y-36740454D01*
X88261557Y-36734735D01*
X88578762Y-36584710D01*
X88589999Y-36580055D01*
X88920361Y-36461849D01*
X88931986Y-36458322D01*
X89272367Y-36373061D01*
X89284278Y-36370692D01*
X89631359Y-36319207D01*
X89643465Y-36318015D01*
X89996967Y-36300648D01*
X90003051Y-36300500D01*
X90047595Y-36300500D01*
X190952405Y-36300500D01*
X190996949Y-36300500D01*
X191003032Y-36300648D01*
G37*
%TD.AperFunction*%
%TD*%
M02*
